{"glyphs":{"0":{"ha":1010,"x_min":0,"x_max":0,"o":"m 326 1114 b 404 1190 343 1178 354 1190 l 414 1190 b 326 1114 393 1156 361 1142 z m 142 1165 b 236 1256 165 1213 185 1232 b 142 1165 217 1201 210 1196 z m 488 -181 b 425 -290 475 -229 451 -260 b 422 -257 424 -278 422 -267 b 488 -181 422 -222 439 -204 z m 603 -435 b 524 -499 567 -487 557 -499 b 489 -497 514 -499 503 -499 b 572 -433 513 -449 528 -433 b 603 -435 581 -433 592 -433 z m 450 -149 b 517 -44 450 -97 471 -64 l 517 -68 b 450 -149 517 -119 506 -128 z m 561 353 b 565 324 564 342 565 333 b 503 247 565 286 536 267 b 496 290 499 267 496 279 b 561 353 496 315 511 325 z m 547 96 b 476 -18 540 17 540 17 b 475 4 475 -10 475 -3 b 547 96 475 49 500 76 z m 557 229 b 561 197 560 218 561 207 b 499 117 561 160 539 133 b 490 161 493 133 490 149 b 557 229 490 189 507 208 z m 481 -432 b 388 -499 456 -471 428 -499 b 356 -493 378 -499 367 -497 b 451 -431 381 -446 400 -431 b 481 -432 460 -431 469 -431 z m 258 -382 b 211 -429 247 -401 228 -414 b 188 -439 203 -436 196 -439 b 160 -422 178 -439 168 -433 b 154 -410 156 -417 154 -412 b 172 -386 154 -400 165 -393 b 189 -371 176 -381 183 -376 b 224 -349 206 -356 215 -349 b 258 -382 233 -349 242 -358 z m 489 607 b 479 663 483 635 479 651 b 531 717 479 683 492 689 b 547 725 538 722 543 725 b 560 706 554 725 558 718 b 561 689 561 700 561 694 b 542 650 561 675 556 661 b 489 607 525 639 510 625 z m 567 481 b 571 438 568 463 571 449 b 501 369 571 404 556 396 b 496 414 499 389 496 403 b 567 481 496 442 511 450 z m 444 1153 b 465 1117 458 1133 465 1125 b 446 1092 465 1110 458 1103 b 392 1044 428 1075 410 1060 b 363 1085 372 1065 363 1075 b 394 1118 363 1094 374 1101 b 433 1149 407 1129 421 1139 b 444 1153 438 1151 440 1151 z m 132 -365 b 115 -317 122 -343 115 -328 b 185 -257 115 -296 135 -283 b 203 -301 196 -279 203 -292 b 172 -337 203 -312 193 -321 b 132 -365 160 -349 149 -361 z m 99 -262 b 85 -211 90 -239 85 -224 b 151 -151 85 -190 103 -181 b 169 -201 163 -174 169 -189 b 99 -262 169 -224 150 -237 z m 356 -424 b 281 -487 318 -469 299 -487 b 233 -467 267 -487 254 -479 b 306 -404 267 -422 283 -404 b 356 -424 319 -404 333 -411 z m 535 842 b 543 794 540 822 543 807 b 488 732 543 764 526 749 b 476 729 483 731 481 729 b 464 743 469 729 465 735 b 460 771 461 753 460 763 b 481 807 460 785 464 797 b 535 842 499 817 511 835 z m 510 953 b 526 903 519 928 526 914 b 456 836 526 885 510 872 b 436 885 443 857 436 872 b 510 953 436 911 461 926 z m 72 -156 b 50 -101 60 -126 50 -112 b 115 -33 50 -86 67 -72 b 142 -90 132 -58 142 -76 b 72 -156 142 -111 121 -126 z m 563 615 b 574 563 569 593 574 576 b 500 492 574 533 556 515 b 492 542 494 514 492 529 b 563 615 492 568 508 579 z m 79 993 l 79 1000 b 179 1135 79 1069 122 1104 b 79 993 175 1065 147 1018 z m 39 -43 b 21 7 28 -24 21 -8 b 97 83 21 31 40 51 b 110 32 106 60 110 44 b 39 -43 110 8 92 -4 z m 3 522 l 3 550 b 78 649 3 614 14 624 b 82 615 81 636 82 626 b 3 522 82 571 54 542 z m 422 943 b 407 994 413 965 407 982 b 479 1065 407 1018 426 1033 b 500 1011 492 1040 500 1025 b 422 943 500 990 478 978 z m 14 665 b 13 689 13 674 13 681 b 94 806 13 743 36 785 b 100 760 99 788 100 772 b 14 665 100 717 78 696 z m 76 215 b 90 168 86 197 90 182 b 24 81 90 128 57 104 b 0 136 8 103 0 119 b 76 215 0 161 24 182 z m 133 974 l 133 964 b 39 824 133 894 106 846 l 39 838 b 133 974 39 901 65 947 z m -15 358 l -15 385 b 61 507 -15 463 -7 469 b 74 447 68 482 74 464 b -15 358 74 411 49 392 z m -1 213 b -12 283 -8 244 -12 267 b 64 353 -12 318 7 329 b 75 289 71 324 75 304 b -1 213 75 258 57 247 z m 308 1071 b 353 1018 335 1063 343 1040 b 428 738 394 929 410 833 b 463 360 453 613 463 486 b 450 89 463 269 457 179 b 383 -251 440 -26 417 -140 b 368 -279 381 -261 381 -276 l 363 -279 b 335 -262 351 -279 340 -272 b 315 -222 326 -250 321 -236 b 203 433 239 -4 203 214 b 289 1031 203 632 232 831 b 308 1071 293 1044 294 1060 z m 924 404 b 928 513 926 440 928 476 b 829 1132 928 722 888 928 b 739 1285 811 1190 783 1243 b 632 1333 708 1314 675 1333 l 628 1333 b 308 1318 522 1332 415 1332 b 103 1181 215 1307 149 1258 b 22 960 63 1113 35 1039 b -36 538 -1 819 -26 681 b -50 314 -42 464 -50 389 b -46 231 -50 286 -49 258 b 85 -353 -25 31 26 -161 b 286 -524 115 -457 188 -504 b 510 -537 360 -537 436 -537 b 718 -436 593 -536 669 -508 b 857 -161 776 -350 831 -264 b 924 404 903 24 922 211 z "},"1":{"ha":817,"x_min":0,"x_max":0,"o":"m 143 904 b 92 858 132 883 118 865 b 143 904 108 889 108 889 z m 342 -467 b 396 -425 357 -446 369 -425 b 413 -428 400 -425 406 -426 b 371 -469 394 -461 390 -469 b 342 -467 363 -469 354 -468 z m 1 -406 b 65 -339 6 -354 8 -350 b 1 -406 51 -369 51 -369 z m 33 872 b 94 956 36 924 68 938 l 96 956 b 103 953 99 956 101 954 b 107 943 106 950 107 947 b 106 938 107 942 107 939 b 33 872 86 915 65 896 z m 106 -471 b 167 -425 125 -447 140 -425 b 192 -431 174 -425 182 -426 b 132 -474 179 -460 161 -474 b 106 -471 124 -474 115 -472 z m 199 861 l 199 864 b 267 960 199 918 232 931 b 199 861 261 908 228 894 z m 656 -426 b 594 -469 642 -457 621 -469 b 569 -467 586 -469 578 -469 b 619 -422 589 -433 596 -422 b 656 -426 628 -422 640 -424 z m 533 -431 b 475 -476 521 -458 503 -476 b 449 -472 467 -476 458 -475 b 511 -426 465 -446 483 -426 b 533 -431 518 -426 525 -428 z m 219 -472 b 288 -424 239 -443 258 -424 b 313 -428 294 -424 303 -425 b 239 -472 301 -467 274 -472 z m 267 867 b 272 844 269 858 272 850 b 213 769 272 807 226 799 b 204 800 207 782 204 792 b 267 867 204 821 221 836 z m 101 -407 b 103 -411 101 -408 103 -410 b 93 -426 103 -418 97 -422 b 58 -462 82 -439 69 -450 b 36 -475 51 -469 44 -475 b 21 -468 31 -475 26 -474 b 14 -456 15 -464 14 -460 b 32 -433 14 -446 26 -440 l 74 -396 b 86 -390 78 -393 82 -390 b 101 -407 93 -390 97 -399 z m 268 190 b 272 167 271 181 272 174 b 211 99 272 131 236 119 b 206 132 208 113 206 124 b 268 190 206 157 221 167 z m 258 -242 b 261 -267 260 -251 261 -260 b 211 -294 260 -294 256 -286 b 201 -296 208 -294 204 -296 b 192 -290 197 -296 194 -294 b 190 -283 190 -287 190 -285 b 203 -268 190 -279 199 -271 b 258 -242 239 -253 247 -244 z m 267 89 b 274 60 271 78 274 68 b 210 -6 274 24 236 14 b 204 29 207 10 204 21 b 267 89 204 50 218 60 z m 208 200 b 203 231 204 211 203 222 b 272 307 203 272 242 285 b 276 279 275 297 276 288 b 208 200 276 239 240 225 z m 194 -118 b 267 -21 194 -58 204 -46 b 272 -50 269 -33 272 -42 b 194 -118 272 -74 256 -87 z m 274 418 b 278 379 276 401 278 389 b 204 314 278 349 263 340 b 200 336 201 322 200 331 b 274 418 200 379 249 390 z m 258 -133 b 263 -158 261 -143 263 -150 b 189 -239 263 -201 221 -217 b 186 -206 188 -225 186 -214 b 258 -133 186 -171 203 -157 z m 274 772 b 279 744 278 761 279 753 b 211 656 279 701 236 685 b 204 697 207 672 204 686 b 274 772 204 724 221 739 z m 276 658 b 282 629 281 647 282 638 b 211 538 282 585 236 568 b 203 578 206 554 203 567 b 276 658 203 606 222 622 z m 204 414 b 200 442 201 424 200 433 b 276 544 200 494 246 514 b 283 510 281 532 283 519 b 204 414 283 464 239 444 z m 158 853 b 160 821 158 835 160 828 b 163 692 163 778 163 735 b 160 440 163 608 160 524 b 163 326 160 403 161 364 b 167 193 165 282 167 238 b 144 -240 167 35 153 -122 b 143 -264 144 -249 143 -256 b 111 -293 142 -283 132 -293 b 33 -307 85 -293 58 -299 b -43 -410 -15 -324 -43 -360 b -40 -439 -43 -419 -42 -429 b 60 -514 -32 -486 3 -514 l 68 -514 b 335 -510 157 -510 246 -510 b 601 -506 424 -510 513 -510 b 733 -407 668 -501 708 -465 b 744 -358 742 -389 744 -372 b 656 -289 744 -315 713 -290 b 619 -250 619 -287 619 -287 b 621 -217 619 -239 619 -228 b 650 486 650 3 640 244 b 651 558 651 510 651 535 b 632 1071 651 729 632 900 b 636 1193 632 1111 633 1153 l 636 1200 b 635 1232 636 1211 635 1221 l 635 1246 b 540 1331 635 1294 589 1331 b 490 1317 524 1331 506 1326 b 304 1190 426 1278 363 1238 b 36 958 213 1117 131 1031 b 11 931 26 951 18 940 b -3 881 3 918 -3 899 b 11 835 -3 864 3 846 b 61 813 24 819 40 813 b 93 818 71 813 82 814 b 158 853 115 824 133 838 z "},"2":{"ha":985,"x_min":0,"x_max":0,"o":"m 128 1210 b 169 1244 138 1228 153 1236 b 128 1210 163 1215 163 1215 z m 282 1146 b 353 1201 294 1176 311 1201 l 363 1201 b 282 1146 339 1169 310 1158 z m 447 -451 b 381 -493 429 -483 407 -493 b 346 -489 369 -493 358 -492 b 418 -449 365 -460 390 -449 b 447 -451 428 -449 438 -450 z m 267 82 l 267 75 b 206 0 267 31 243 10 l 206 14 b 267 82 206 53 213 58 z m 197 -499 b 290 -447 231 -475 254 -447 b 315 -451 297 -447 306 -449 b 229 -503 293 -483 267 -503 b 197 -499 219 -503 208 -501 z m 39 -353 b 132 -265 44 -293 83 -279 b 39 -353 115 -312 88 -340 z m 92 -231 b 176 -156 113 -178 113 -178 b 178 -172 178 -161 178 -167 b 92 -231 178 -208 151 -226 z m 231 99 l 231 108 b 308 194 231 156 261 179 b 231 99 296 147 293 101 z m 481 -486 b 574 -433 507 -451 536 -433 b 604 -437 583 -433 593 -435 b 519 -493 581 -471 556 -493 b 481 -486 507 -493 494 -492 z m 460 644 b 383 554 460 593 457 583 l 383 574 b 460 644 383 611 394 619 z m 26 1036 b 115 1146 32 1096 68 1124 l 115 1139 b 26 1036 115 1081 78 1056 z m 19 -468 b 3 -440 11 -467 3 -453 b 7 -425 3 -435 4 -429 b 76 -382 24 -403 50 -389 l 81 -382 b 96 -408 93 -382 94 -397 b 19 -468 96 -421 32 -468 z m 356 1082 l 353 1082 b 324 1104 338 1082 332 1094 b 321 1113 321 1107 321 1110 b 331 1126 321 1118 325 1122 b 383 1160 349 1138 365 1149 b 394 1163 388 1163 390 1163 b 415 1147 403 1163 410 1156 b 419 1135 418 1143 419 1139 b 410 1118 419 1128 417 1122 b 356 1082 392 1106 372 1093 z m 144 -122 b 235 -28 154 -67 182 -36 b 144 -122 228 -96 226 -99 z m 442 1094 b 461 1060 451 1079 457 1069 b 465 1046 464 1056 465 1050 b 451 1028 465 1039 461 1032 b 411 1008 438 1022 425 1015 b 392 1000 404 1004 397 1000 b 379 1010 388 1000 383 1001 b 371 1035 375 1018 371 1026 b 382 1054 371 1042 374 1049 b 442 1094 400 1067 419 1079 z m 186 -451 b 104 -511 146 -496 125 -511 b 56 -496 89 -511 75 -506 b 149 -442 86 -472 113 -442 b 186 -451 160 -442 172 -444 z m 81 1015 b 85 989 83 1006 85 996 b 8 907 85 943 44 926 b 3 947 6 924 3 938 b 81 1015 3 979 21 989 z m 607 -492 b 708 -426 643 -462 669 -426 b 744 -435 719 -426 732 -429 b 650 -494 701 -482 688 -494 b 607 -492 639 -494 625 -493 z m 499 890 b 503 865 501 881 503 872 b 424 789 503 817 454 811 b 415 829 418 806 415 818 b 499 890 415 857 438 868 z m 406 668 b 404 688 404 675 404 681 b 482 775 404 738 435 763 b 485 739 483 761 485 749 b 406 668 485 701 469 692 z m -4 785 b -6 821 -6 800 -6 811 b 71 896 -6 857 7 864 b 78 858 75 879 78 868 b -4 785 78 833 60 822 z m 78 675 b 104 636 86 660 104 650 b 101 625 104 632 104 629 b 40 569 86 603 67 581 b 35 568 39 568 36 568 b 8 586 25 568 15 576 b 3 601 4 592 3 596 b 13 621 3 608 6 614 b 78 675 32 638 53 654 z m -3 661 b -10 696 -7 674 -10 686 b 67 783 -10 742 31 763 b 79 742 75 765 79 753 b -3 661 79 719 58 703 z m 414 892 b 406 924 410 907 410 917 b 401 942 403 931 401 936 b 431 976 401 958 414 968 b 454 989 439 981 446 986 b 479 1000 463 992 471 1000 b 492 989 483 1000 488 997 b 500 958 496 979 500 968 b 488 933 500 949 497 940 b 414 892 465 919 443 908 z m 511 -308 b 558 -200 531 -264 543 -231 b 606 -79 576 -161 593 -121 b 707 247 639 29 675 138 b 843 653 754 406 810 560 b 876 886 858 731 876 807 l 876 903 b 724 1269 874 1044 806 1160 b 594 1329 692 1311 644 1324 b 353 1336 514 1336 433 1335 b 151 1278 281 1336 213 1321 b -31 974 43 1206 -8 1097 b -46 771 -42 906 -46 839 b -43 638 -46 726 -44 682 b 54 528 -42 569 -1 528 b 113 542 72 528 92 532 b 207 694 178 571 206 625 b 208 769 208 719 208 744 l 208 897 b 235 1068 208 956 217 1013 b 260 1106 243 1093 250 1106 b 293 1081 268 1106 278 1097 b 375 882 346 1025 367 956 b 378 818 376 861 378 839 b 332 532 378 721 358 625 b 201 138 290 446 244 292 b 136 -42 185 75 163 17 b -21 -396 83 -160 21 -274 b -29 -443 -26 -412 -29 -429 b 53 -537 -29 -489 -1 -522 b 135 -547 79 -544 107 -547 b 193 -544 154 -547 174 -546 b 465 -526 283 -536 375 -526 b 579 -532 504 -526 542 -528 b 626 -535 594 -533 611 -535 b 747 -521 667 -535 707 -529 b 876 -414 807 -507 851 -468 b 890 -364 886 -396 890 -378 b 800 -297 890 -322 856 -297 b 511 -308 708 -299 617 -296 z m 429 539 b 343 446 429 488 425 471 l 347 467 b 429 539 360 504 364 514 z m 392 429 b 306 336 392 378 388 361 l 310 357 b 392 429 322 394 326 404 z m 347 310 b 261 217 347 258 343 242 l 265 238 b 347 310 278 275 282 285 z "},"3":{"ha":1040,"x_min":0,"x_max":0,"o":"m 507 -269 b 542 -251 517 -258 526 -251 b 543 -257 543 -254 543 -256 b 531 -269 543 -264 535 -267 b 519 -274 528 -272 524 -274 b 507 -269 515 -274 513 -272 z m 113 578 b 161 622 132 601 142 618 b 113 578 153 599 153 597 z m 325 157 b 382 213 338 179 357 193 b 325 157 378 169 346 169 z m 99 264 b 39 201 92 228 61 219 b 99 264 40 242 47 249 z m 361 1133 b 456 1188 393 1161 418 1181 b 381 1132 429 1144 415 1132 b 361 1133 375 1132 368 1133 z m 176 1110 b 94 1039 168 1063 133 1056 b 176 1110 110 1082 133 1103 z m 469 351 b 532 444 474 396 479 433 b 469 351 521 389 513 374 z m 754 -414 b 653 -479 739 -465 700 -467 b 739 -412 682 -447 697 -412 b 754 -414 743 -412 749 -412 z m 522 814 b 519 844 521 826 519 836 b 579 907 519 878 531 883 b 586 867 583 892 586 882 b 522 814 586 847 571 840 z m 521 708 b 519 735 519 719 519 728 b 579 801 519 774 529 778 b 585 758 583 788 585 778 b 521 708 585 739 571 731 z m 518 -218 b 517 -200 517 -211 517 -206 b 590 -115 517 -149 560 -137 b 593 -136 592 -122 593 -129 b 518 -218 593 -181 553 -193 z m 539 1156 b 528 1133 539 1143 533 1138 b 481 1096 511 1121 496 1108 b 465 1089 475 1092 471 1089 b 453 1096 461 1089 457 1092 b 444 1111 447 1101 444 1106 b 453 1124 444 1115 447 1119 b 510 1168 472 1139 490 1154 b 521 1174 513 1171 517 1174 b 529 1169 524 1174 526 1172 b 539 1156 535 1165 538 1158 z m 74 68 b 79 42 78 58 79 50 b 18 -19 79 7 38 3 b 6 17 10 -4 6 8 b 74 68 6 35 24 44 z m 446 149 b 333 86 407 125 381 86 b 314 88 326 86 321 86 b 419 153 350 131 385 153 b 446 149 429 153 438 151 z m 513 913 b 499 944 503 924 499 935 b 518 976 499 960 504 969 b 547 994 528 982 538 989 b 568 1006 554 999 561 1006 b 579 997 571 1006 575 1004 b 585 975 582 992 585 986 b 571 953 585 967 581 958 b 513 913 553 940 533 928 z m 129 1004 l 129 997 b 47 919 129 944 86 935 b 129 1004 49 974 60 986 z m 571 579 b 500 479 571 524 553 490 b 497 499 499 486 497 493 b 571 579 497 540 532 558 z m 510 588 l 510 600 b 581 694 510 660 519 667 b 585 671 583 686 585 678 b 510 588 585 619 543 610 z m 258 -397 b 192 -454 258 -411 206 -454 l 190 -454 b 165 -435 179 -451 169 -444 b 164 -429 164 -433 164 -431 b 176 -411 164 -421 171 -415 b 218 -376 190 -399 203 -386 b 229 -374 221 -374 225 -374 b 258 -396 242 -374 258 -385 z m 83 181 l 83 157 b 15 88 83 117 74 110 b 13 117 14 100 13 110 b 83 181 13 144 26 153 z m 515 -18 b 506 14 508 -6 506 6 b 551 68 506 42 533 53 b 572 85 557 74 565 85 b 582 79 576 85 579 83 b 592 56 588 72 592 64 b 581 33 592 47 589 40 b 515 -18 560 17 540 1 z m 24 -124 b 14 -81 18 -104 14 -92 b 76 -29 14 -60 29 -50 b 89 -64 83 -44 89 -56 b 24 -124 89 -82 71 -96 z m 554 1099 b 568 1065 564 1085 568 1074 b 494 1008 568 1044 543 1033 b 485 1040 489 1021 485 1032 b 554 1099 485 1061 504 1074 z m 367 -433 b 293 -481 326 -468 313 -481 b 250 -469 282 -481 269 -476 b 308 -419 276 -433 288 -419 b 367 -433 322 -419 339 -425 z m 100 899 l 100 893 b 18 801 100 835 51 826 b 15 832 17 814 15 824 b 100 899 15 865 32 872 z m 632 -433 b 532 -494 608 -479 572 -494 b 510 -493 525 -494 517 -494 b 615 -433 536 -450 565 -433 z m 494 -436 b 404 -496 454 -485 442 -496 b 371 -494 396 -496 385 -496 b 468 -435 394 -453 425 -435 b 494 -436 476 -435 485 -435 z m 519 -111 b 515 -87 517 -103 515 -94 b 586 -8 515 -46 563 -35 b 599 -50 593 -26 599 -39 b 519 -111 599 -72 578 -83 z m 107 -357 b 168 -296 107 -344 156 -296 b 194 -324 183 -299 186 -314 b 200 -335 197 -328 200 -332 b 193 -347 200 -339 197 -343 l 156 -381 b 139 -393 150 -385 146 -393 b 133 -392 138 -393 135 -393 b 107 -357 121 -383 113 -371 z m 96 -126 b 111 -165 106 -146 111 -157 b 83 -197 111 -176 103 -183 b 43 -225 71 -208 60 -221 b 31 -182 35 -206 31 -193 b 96 -126 31 -161 49 -150 z m 83 -318 b 57 -278 74 -303 57 -292 b 60 -268 57 -275 57 -271 b 124 -217 74 -244 100 -231 b 129 -215 125 -215 128 -215 b 140 -225 135 -215 138 -221 b 149 -249 144 -233 149 -242 b 140 -265 149 -254 146 -260 b 83 -318 122 -282 106 -299 z m 485 63 b 453 101 472 78 463 90 b 463 115 457 107 458 113 b 513 151 479 128 496 140 b 538 164 521 157 529 164 b 556 153 543 164 550 161 b 564 135 561 146 564 140 b 542 108 564 124 553 117 b 485 63 524 94 507 81 z m 99 692 b 117 650 111 669 117 658 b 96 618 117 640 110 633 b 74 593 89 610 82 601 b 51 578 67 586 60 578 b 38 586 47 578 43 581 b 22 617 31 594 22 606 b 32 635 22 622 25 629 b 99 692 51 654 74 671 z m 17 676 b 3 726 8 700 3 715 b 79 793 3 749 22 761 b 94 753 89 776 94 764 b 17 676 94 731 72 713 z m 943 990 b 900 1182 939 1056 922 1119 b 707 1331 868 1272 810 1331 l 674 1331 b 568 1332 638 1331 603 1332 b 521 1331 551 1332 536 1332 b 239 1246 421 1324 324 1303 b -31 713 49 1115 -31 932 b -29 674 -31 700 -29 686 b -6 588 -29 643 -18 614 b 81 531 13 547 40 531 l 94 531 b 235 693 171 538 235 617 b 231 726 235 704 233 715 b 224 788 226 747 224 767 l 224 800 b 300 1056 226 892 258 975 b 369 1090 315 1085 342 1090 l 383 1090 b 440 1039 414 1089 433 1069 b 485 796 461 958 482 879 b 486 742 485 778 486 760 b 460 492 483 704 472 597 b 310 200 446 376 407 274 b 269 142 290 186 275 167 b 268 121 268 135 268 128 b 290 63 268 99 274 79 b 333 47 304 51 318 47 b 369 53 344 47 357 49 b 385 60 375 56 379 58 b 421 71 401 67 413 71 b 454 36 433 71 440 61 b 472 -17 464 19 471 3 b 481 -131 478 -54 481 -93 b 474 -224 481 -161 479 -192 b 414 -301 464 -279 450 -301 b 364 -293 400 -301 383 -299 b 299 -244 335 -286 313 -268 b 213 -8 256 -171 218 -96 b 211 39 211 7 211 24 b 224 221 211 100 218 160 b 225 235 224 226 225 231 b 154 313 225 281 200 306 b 133 314 147 314 140 314 b 0 232 78 314 25 282 b -24 146 -12 206 -18 176 b -33 36 -31 110 -33 72 b 1 -237 -33 -56 -15 -147 b 29 -306 6 -262 15 -285 b 103 -418 54 -343 81 -379 b 243 -511 135 -472 185 -496 b 439 -532 308 -528 374 -532 b 601 -525 493 -532 547 -529 b 913 -294 754 -512 853 -429 b 961 -58 946 -218 961 -140 b 956 31 961 -29 960 0 b 858 269 944 119 926 204 b 846 294 850 278 846 286 b 854 318 846 301 849 310 b 933 557 899 390 915 474 b 947 822 944 611 947 724 b 943 990 947 894 946 960 z "},"4":{"ha":1058,"x_min":0,"x_max":0,"o":"m 599 1039 b 603 1007 601 1026 603 1017 b 560 954 603 981 590 964 b 599 1039 563 986 579 1007 z m 461 1133 b 517 1200 472 1163 482 1190 b 461 1133 507 1144 506 1143 z m 397 1015 b 465 1083 404 1056 424 1076 b 397 1015 460 1043 438 1024 z m 732 -465 b 786 -424 746 -439 763 -424 b 804 -426 792 -424 797 -425 b 765 -468 789 -460 785 -468 b 732 -465 757 -468 746 -467 z m 222 649 b 292 735 240 689 246 726 b 222 649 288 694 272 664 z m 343 907 b 407 972 349 949 375 963 b 343 907 403 922 403 922 z m 290 786 b 360 861 299 829 315 856 b 290 786 354 819 332 799 z m 161 522 b 226 601 178 561 189 593 b 161 522 226 556 225 554 z m 118 375 b 28 285 106 324 82 292 b 118 375 40 332 68 360 z m 607 -471 b 671 -424 622 -440 643 -424 b 696 -428 679 -424 688 -425 b 651 -476 685 -464 678 -476 b 607 -471 640 -476 626 -474 z m 594 922 b 599 897 597 913 599 906 b 538 832 599 861 561 851 b 531 867 533 847 531 858 b 594 922 531 886 546 894 z m 188 492 b 106 408 178 447 153 417 b 188 492 117 464 138 486 z m 324 132 b 400 185 344 161 367 185 b 428 179 408 185 418 183 b 371 126 407 139 399 126 b 324 132 360 126 344 128 z m 524 319 b 586 381 544 342 567 361 b 592 350 589 369 592 358 b 556 313 592 326 578 313 b 524 319 546 313 536 315 z m 589 593 b 593 569 592 585 593 576 b 526 482 593 528 547 514 b 519 518 522 497 519 508 b 589 593 519 546 538 561 z m 497 -462 b 560 -382 514 -429 539 -410 b 592 -418 572 -393 592 -401 b 589 -428 592 -421 590 -424 b 525 -465 578 -453 556 -465 b 497 -462 517 -465 507 -464 z m 592 707 b 596 683 594 699 596 690 b 526 594 596 640 553 625 b 524 624 525 606 524 615 b 592 707 524 664 542 682 z m 594 818 b 597 796 597 810 597 803 b 529 715 597 754 557 740 b 524 753 526 731 524 743 b 594 818 524 782 540 793 z m 174 178 b 83 126 149 142 119 126 b 42 132 71 126 57 128 b 136 183 67 165 97 183 b 174 178 147 183 160 181 z m 192 132 b 289 190 239 183 244 190 l 311 190 b 231 129 289 144 274 129 b 192 132 219 129 207 131 z m 586 483 b 589 461 588 475 589 468 b 515 363 589 413 542 396 b 510 400 511 378 510 389 b 586 483 510 429 528 444 z m 6 160 l 0 160 b -14 171 -8 160 -12 165 b -18 192 -17 178 -18 185 b -1 219 -18 203 -14 213 b 47 247 15 229 31 239 b 65 254 53 250 60 254 b 76 246 69 254 74 251 b 82 226 79 240 82 233 b 78 214 82 222 81 217 b 6 160 57 190 28 176 z m 553 -282 b 557 -311 556 -293 557 -303 b 485 -419 557 -362 507 -382 b 468 -371 474 -396 468 -382 b 494 -332 468 -358 476 -350 b 553 -282 513 -315 531 -300 z m 482 -168 b 481 -150 481 -162 481 -156 b 569 -24 481 -90 526 -61 b 574 -57 572 -36 574 -47 b 546 -114 574 -79 567 -99 b 482 -168 524 -131 510 -156 z m 494 -37 b 488 0 490 -24 488 -11 b 574 104 488 54 536 74 b 578 75 576 93 578 83 b 494 -37 578 19 532 -4 z m 469 -301 b 468 -285 468 -296 468 -290 b 557 -156 468 -222 517 -194 b 567 -199 563 -174 567 -186 b 469 -301 567 -228 544 -249 z m 496 92 b 449 133 483 111 464 119 b 521 185 482 172 493 185 b 582 176 535 185 554 182 b 496 92 563 138 529 117 z m 483 782 b 485 647 483 736 485 692 b 483 581 485 625 485 603 b 469 365 479 499 472 417 b 413 314 465 314 465 314 b 300 322 375 315 338 322 b 256 318 285 322 271 321 b 483 782 256 332 419 692 z m 238 92 l 238 89 l 429 89 b 454 64 451 89 454 86 l 454 46 b 436 -240 453 -50 447 -146 b 432 -317 433 -269 432 -299 b 443 -442 432 -358 435 -400 b 507 -504 453 -487 461 -497 b 628 -512 547 -511 588 -512 b 692 -511 649 -512 671 -512 b 771 -508 718 -510 744 -508 l 775 -508 b 928 -344 858 -508 925 -437 b 931 -176 929 -296 928 -236 b 950 188 936 -56 946 67 b 963 713 953 342 957 528 b 974 1229 967 885 974 1057 b 886 1328 972 1285 951 1319 b 754 1336 842 1333 799 1336 b 574 1317 693 1336 633 1331 b 492 1261 539 1310 513 1293 b 301 913 421 1150 356 1035 b 138 563 250 794 194 678 b -33 260 82 450 21 340 b -54 185 -47 232 -54 207 b 64 92 -54 131 -12 94 z "},"5":{"ha":1049,"x_min":0,"x_max":0,"o":"m 275 1185 b 253 1165 271 1175 264 1167 l 251 1165 b 247 1176 247 1165 247 1172 b 264 1196 247 1189 251 1196 l 267 1196 b 275 1189 271 1194 275 1193 z m 289 256 b 331 282 299 274 311 282 l 335 282 b 289 256 325 261 313 256 z m 526 -218 b 469 -278 514 -244 494 -262 b 526 -218 472 -247 472 -247 z m 707 -456 b 778 -392 718 -414 747 -403 b 707 -456 760 -429 758 -432 z m 76 -122 b 35 -165 58 -142 47 -154 b 14 -186 29 -172 22 -178 b 76 -122 18 -142 18 -140 z m 122 1268 b 39 1194 94 1244 68 1219 b 122 1268 40 1243 58 1261 z m 396 1190 b 343 1149 371 1157 364 1149 b 310 1151 335 1149 324 1150 b 354 1197 328 1185 335 1197 b 396 1190 364 1197 378 1194 z m 439 -435 b 389 -489 414 -478 408 -489 b 364 -486 382 -489 375 -487 b 411 -432 386 -443 392 -432 b 439 -435 418 -432 428 -433 z m 876 606 b 804 551 853 582 838 551 b 782 556 797 551 790 553 b 844 608 803 596 815 608 b 876 606 853 608 864 607 z m 460 -489 b 514 -435 481 -446 489 -435 b 544 -437 521 -435 532 -436 b 496 -493 528 -481 522 -493 b 460 -489 488 -493 475 -492 z m 769 610 b 689 551 743 582 724 551 b 658 558 681 551 669 553 b 738 615 678 589 700 615 b 769 610 747 615 757 614 z m 529 1196 b 450 1138 500 1169 482 1138 b 422 1144 442 1138 433 1139 b 494 1197 438 1185 450 1197 b 529 1196 504 1197 515 1197 z m 22 481 b 18 507 19 490 18 499 b 89 594 18 550 64 563 b 94 561 93 582 94 571 b 22 481 94 532 75 514 z m 81 -176 b 93 -206 89 -189 93 -197 b 29 -281 93 -219 76 -236 b 15 -249 21 -268 15 -258 b 81 -176 15 -232 33 -217 z m 569 -489 b 636 -428 594 -437 597 -428 b 663 -429 643 -428 653 -429 b 593 -489 650 -479 643 -489 z m 569 1171 b 571 1146 571 1161 571 1153 b 501 1061 571 1117 560 1108 b 493 1094 496 1074 493 1085 b 569 1171 493 1119 514 1136 z m 250 -485 b 307 -421 278 -437 288 -421 b 344 -431 315 -421 328 -425 b 286 -492 325 -475 311 -492 b 250 -485 276 -492 265 -489 z m 114 258 b 129 215 124 238 129 225 b 96 171 129 201 119 192 b 75 154 90 165 83 154 b 65 160 72 154 69 156 b 51 186 57 168 51 176 b 58 206 51 192 54 199 b 76 226 63 213 69 219 b 114 258 88 238 96 254 z m 115 -250 b 133 -283 126 -261 133 -272 b 118 -310 133 -292 129 -300 b 83 -346 106 -321 94 -333 b 67 -358 78 -350 72 -358 b 57 -353 64 -358 60 -357 b 46 -331 51 -346 46 -339 b 50 -318 46 -326 47 -322 b 115 -250 68 -294 88 -271 z m 499 826 b 496 850 497 835 496 843 b 576 957 496 904 547 919 b 578 925 578 944 578 933 b 499 826 578 892 565 881 z m 258 -406 b 224 -451 246 -422 232 -436 b 190 -476 214 -468 203 -476 b 158 -462 181 -476 171 -471 b 197 -404 164 -439 185 -424 b 224 -383 206 -390 215 -383 b 258 -406 235 -383 246 -392 z m 646 611 b 581 553 614 567 603 553 b 539 560 571 553 558 556 b 594 622 553 585 575 603 b 610 629 600 628 604 629 b 646 611 621 629 632 617 z m 489 314 b 458 275 485 296 469 286 b 417 243 439 251 431 243 b 376 254 408 243 396 247 b 450 325 407 304 425 325 b 489 314 461 325 474 321 z m 472 165 b 451 200 458 178 451 189 b 464 225 451 208 456 217 b 504 269 478 240 490 256 b 524 283 511 276 517 283 b 536 275 528 283 532 281 b 547 253 542 268 547 261 b 539 236 547 247 544 242 b 472 165 518 214 497 190 z m 24 354 b 21 381 22 364 21 374 b 103 494 21 440 68 460 b 108 461 107 482 108 471 b 24 354 108 410 57 393 z m 122 -440 b 90 -400 101 -419 90 -410 b 110 -371 90 -392 97 -385 b 144 -335 121 -358 132 -347 b 160 -326 149 -329 154 -326 b 172 -333 164 -326 168 -328 b 186 -354 178 -340 186 -346 b 181 -367 186 -358 185 -362 b 122 -440 163 -390 143 -412 z m 500 708 b 497 733 499 717 497 725 b 572 843 497 786 544 807 b 581 800 576 825 581 811 b 500 708 581 772 561 754 z m 496 938 b 493 963 493 947 493 954 b 571 1071 493 1015 539 1038 b 582 1032 578 1056 582 1043 b 496 938 582 1008 561 988 z m 14 840 b 10 869 11 851 10 861 b 92 968 10 922 60 939 b 97 929 96 953 97 940 b 14 840 97 897 78 879 z m 26 1074 b 25 1093 25 1081 25 1086 b 111 1222 25 1160 79 1181 b 117 1189 115 1210 117 1199 b 26 1074 117 1133 63 1114 z m 93 711 b 99 667 97 692 99 678 b 24 590 99 638 82 628 b 17 629 19 606 17 618 b 93 711 17 660 36 676 z m 506 -51 b 503 -26 504 -43 503 -35 b 582 92 503 31 549 56 b 594 50 589 74 594 61 b 506 -51 594 26 572 6 z m 582 731 b 589 688 586 713 589 699 b 515 599 589 661 572 647 b 503 635 507 611 503 624 b 522 672 503 647 508 660 b 582 731 540 689 558 707 z m 36 243 b 28 290 31 263 28 278 b 108 375 28 319 47 336 b 119 342 115 364 119 353 b 101 306 119 329 114 317 b 36 243 81 285 63 260 z m 106 1094 b 108 1067 108 1085 108 1075 b 15 956 108 1008 53 990 b 14 975 14 963 14 969 b 106 1094 14 1038 64 1060 z m 21 714 b 13 751 15 728 13 740 b 89 847 13 796 54 819 b 100 803 96 831 100 815 b 21 714 100 772 78 750 z m 503 65 b 494 104 497 81 494 93 b 564 210 494 154 540 176 b 583 163 576 186 583 172 b 561 125 583 150 576 142 b 503 65 544 107 525 89 z m 589 -36 b 500 -179 579 -143 593 -119 b 497 -150 497 -168 497 -158 b 589 -36 497 -107 522 -75 z m 247 401 b 229 715 232 507 229 611 l 229 800 b 242 1079 231 897 232 994 b 271 1115 244 1106 253 1115 b 283 1114 275 1115 279 1114 b 407 1106 324 1110 365 1108 b 454 1056 451 1103 451 1103 b 457 989 457 1033 457 1011 b 460 707 458 894 460 801 b 474 585 460 665 467 625 b 547 517 483 533 497 518 b 682 515 593 517 638 515 b 817 519 728 515 772 517 b 975 688 921 526 975 589 b 974 719 975 697 975 708 b 967 806 969 749 967 778 l 967 857 b 961 1146 967 953 961 1050 b 964 1253 961 1182 961 1217 l 964 1264 b 888 1331 964 1310 940 1331 l 865 1331 b 728 1332 819 1332 774 1332 b 300 1328 585 1332 442 1328 l 258 1328 b 186 1329 233 1328 210 1329 l 168 1329 b -8 1169 65 1325 3 1271 b -25 914 -17 1093 -24 1003 l -25 851 b -22 588 -25 764 -24 675 b -14 318 -19 499 -17 408 b 15 176 -11 269 -1 222 b 82 113 31 135 54 113 b 143 144 100 113 121 122 b 324 221 193 197 256 217 l 343 221 b 410 192 369 221 396 217 b 460 74 432 156 454 118 b 465 -12 464 44 465 17 b 453 -178 465 -68 460 -122 b 424 -262 450 -207 439 -236 b 376 -297 411 -287 397 -297 b 354 -294 369 -297 363 -296 b 250 -217 307 -286 272 -258 b 207 -119 233 -185 221 -153 b 157 -69 197 -96 183 -78 b 115 -64 143 -65 129 -64 b -32 -208 38 -64 -32 -129 b -29 -235 -32 -217 -31 -226 b 28 -381 -21 -287 7 -333 b 267 -525 75 -483 160 -522 b 492 -532 342 -526 417 -526 b 526 -533 504 -533 515 -533 b 669 -512 575 -533 622 -525 b 813 -421 726 -499 775 -468 b 943 -143 878 -339 918 -244 b 960 15 956 -90 960 -37 b 949 181 960 71 956 125 b 876 354 942 246 914 303 b 692 460 831 417 771 457 b 560 463 647 461 604 463 b 258 400 457 463 354 453 l 257 400 b 247 401 256 400 253 400 z "},"6":{"ha":961,"x_min":0,"x_max":0,"o":"m 174 1233 b 226 1275 193 1256 206 1271 b 174 1233 215 1250 215 1250 z m 325 244 b 265 190 306 219 289 204 b 325 244 276 231 276 231 z m 408 1219 b 365 1169 396 1196 379 1183 b 351 1164 361 1165 356 1164 b 336 1171 346 1164 340 1167 b 332 1178 333 1174 332 1176 b 342 1194 332 1185 338 1190 b 394 1221 356 1210 371 1221 b 408 1219 399 1221 403 1221 z m 703 -421 b 592 -485 664 -461 647 -471 b 703 -421 618 -433 621 -431 z m 785 600 b 699 542 765 557 736 542 b 678 543 692 542 685 542 b 747 604 701 589 714 604 b 785 600 757 604 769 603 z m 563 -444 b 479 -497 542 -479 514 -497 b 461 -496 474 -497 467 -497 b 514 -439 476 -453 483 -439 b 563 -444 526 -439 542 -440 z m 85 1076 b 169 1188 85 1138 122 1165 l 169 1181 b 85 1076 169 1122 132 1097 z m 439 -442 b 382 -496 414 -485 407 -496 b 340 -492 372 -496 358 -494 b 393 -433 354 -450 365 -433 b 439 -442 406 -433 419 -436 z m 510 -7 b 515 -43 514 -21 515 -32 b 440 -125 515 -89 479 -106 b 436 -100 438 -115 436 -108 b 510 -7 436 -56 479 -39 z m 456 242 b 407 193 444 218 424 208 b 375 172 392 179 385 172 b 331 194 365 172 354 181 b 422 250 360 217 385 250 b 456 242 432 250 443 247 z m 553 547 b 624 608 585 593 597 608 b 660 603 633 608 644 606 b 597 539 633 556 622 539 b 553 547 586 539 572 542 z m 329 -421 b 276 -486 306 -467 294 -486 b 228 -462 265 -486 250 -476 b 281 -407 253 -422 263 -407 b 329 -421 292 -407 306 -412 z m 519 110 b 524 71 522 93 524 81 b 453 0 524 39 508 29 b 447 36 450 14 447 26 b 519 110 447 67 465 81 z m 413 1092 b 392 1131 397 1107 392 1119 b 408 1161 392 1142 397 1151 b 443 1196 421 1172 432 1185 b 467 1211 450 1203 458 1211 b 481 1204 471 1211 475 1210 b 489 1186 486 1197 489 1192 b 475 1161 489 1176 483 1168 b 413 1092 454 1139 435 1117 z m 510 1013 b 519 968 515 993 519 979 b 439 889 519 943 501 928 b 431 931 435 907 431 919 b 510 1013 431 956 449 968 z m 553 601 l 499 556 b 475 544 492 549 483 544 b 453 551 468 544 460 547 b 438 568 443 556 438 561 b 446 585 438 574 440 579 b 478 615 456 594 467 606 b 511 638 493 629 503 638 b 553 601 521 638 531 626 z m 51 946 b 49 971 50 956 49 964 b 135 1071 49 1024 81 1050 b 136 1056 135 1065 136 1060 b 51 946 136 1000 94 972 z m 511 890 b 515 863 514 881 515 871 b 432 760 515 810 465 792 b 429 786 431 769 429 778 b 511 890 429 839 469 863 z m 499 1126 b 511 1088 507 1111 511 1099 b 478 1038 511 1067 499 1051 b 429 1000 461 1026 449 1007 b 417 1033 421 1013 417 1024 b 443 1078 417 1050 426 1064 b 499 1126 461 1092 475 1114 z m 443 101 b 415 143 425 124 415 133 b 446 179 415 151 425 160 b 468 197 454 185 461 192 b 490 210 475 201 483 210 b 504 200 496 210 500 207 b 515 172 510 190 515 181 b 503 150 515 164 513 157 b 493 143 499 149 497 146 b 443 101 478 131 461 118 z m 18 808 b 113 949 24 890 33 903 b 115 925 114 940 115 932 b 18 808 115 867 64 843 z m 492 -143 b 396 -269 479 -225 493 -236 b 492 -143 396 -206 432 -168 z m 125 -415 b 163 -368 133 -393 149 -381 b 193 -349 175 -356 185 -349 b 226 -375 204 -349 214 -358 b 231 -387 229 -379 231 -383 b 226 -399 231 -392 229 -394 b 210 -421 221 -406 214 -412 b 178 -444 200 -436 189 -444 b 150 -432 169 -444 160 -440 b 125 -415 143 -426 135 -422 z m 83 685 b 88 653 86 672 88 663 b 6 554 88 601 46 579 b -7 600 -1 574 -7 588 b 83 685 -7 626 14 644 z m 1 421 b -4 458 -3 435 -4 446 b 71 547 -4 500 22 529 b 78 497 75 526 78 511 b 1 421 78 465 61 449 z m 74 272 b 79 217 76 249 79 232 b 10 138 79 178 63 167 b 0 185 3 157 0 172 b 74 272 0 222 26 243 z m 71 410 b 81 367 78 393 81 379 b 8 274 81 324 46 299 b -6 326 0 294 -6 311 b 71 410 -6 360 18 381 z m 139 -258 b 161 -306 154 -282 161 -294 b 135 -343 161 -317 153 -325 b 99 -383 122 -357 110 -371 b 69 -356 81 -379 76 -365 b 60 -332 64 -347 60 -339 b 79 -304 60 -322 67 -312 b 139 -258 99 -290 113 -269 z m 4 676 b -1 718 1 693 -1 706 b 90 818 -1 756 18 779 b 96 785 93 806 96 794 b 4 676 96 731 49 706 z m 508 765 b 513 735 511 754 513 744 b 421 615 513 678 460 653 b 418 651 418 628 418 640 b 508 765 418 701 443 731 z m 6 -19 b -1 43 1 7 -1 28 b 74 129 -1 85 18 93 b 89 75 83 104 89 89 b 53 19 89 56 78 42 b 6 -19 38 7 22 -6 z m 90 -1 b 99 -49 96 -19 99 -35 b 60 -115 99 -76 88 -99 b 17 -153 44 -125 32 -140 b 0 -100 6 -131 0 -114 b 90 -1 0 -69 26 -49 z m 44 -281 b 19 -218 31 -251 19 -233 b 94 -137 19 -197 39 -178 b 121 -207 111 -174 121 -192 b 44 -281 121 -228 99 -239 z m 407 -15 b 358 -253 407 -97 386 -176 b 332 -283 350 -274 342 -283 b 301 -265 324 -283 314 -278 b 233 -115 261 -225 242 -171 b 215 103 225 -43 221 31 l 215 108 b 265 156 215 139 235 156 b 315 150 282 156 299 153 b 407 50 376 140 403 113 z m 214 346 b 204 474 208 393 204 433 b 207 522 204 490 206 506 b 247 933 214 601 232 857 b 289 1103 258 990 275 1047 b 318 1132 293 1118 300 1131 b 357 1106 338 1132 351 1125 b 379 1036 367 1083 375 1061 b 396 865 390 979 396 922 b 386 707 396 813 392 760 b 379 626 383 679 379 654 l 379 617 b 478 510 379 554 415 518 b 608 501 522 503 565 501 b 681 503 632 501 657 503 b 864 682 790 506 858 572 b 874 889 868 750 872 819 l 874 936 b 843 1207 874 1028 867 1118 b 714 1342 825 1276 783 1324 b 619 1354 683 1350 651 1353 b 394 1358 544 1357 469 1358 b 61 1131 236 1358 117 1279 b -37 676 8 985 -22 832 b -39 646 -37 669 -39 658 b -36 506 -39 606 -36 543 b -37 460 -36 490 -36 475 b -39 369 -39 429 -39 400 b -35 85 -39 275 -35 179 b -36 -6 -35 54 -35 25 l -36 -37 b 11 -315 -36 -133 -19 -225 b 151 -475 38 -387 83 -439 b 411 -535 236 -521 324 -535 b 614 -519 479 -535 546 -526 b 639 -510 622 -518 631 -512 b 806 -336 721 -478 772 -415 b 860 -136 835 -272 844 -204 b 882 65 874 -69 882 -3 b 876 160 882 97 881 128 b 674 378 863 276 781 368 b 497 388 615 383 556 388 b 433 386 476 388 454 388 b 214 346 361 382 286 388 z "},"7":{"ha":1053,"x_min":0,"x_max":0,"o":"m 211 1149 b 208 1172 208 1157 208 1165 b 253 1211 208 1206 228 1211 l 279 1211 b 211 1149 265 1174 242 1160 z m 7 1196 b 88 1286 29 1260 39 1269 b 7 1196 76 1239 75 1236 z m 107 -472 b 185 -421 133 -444 154 -421 b 207 -425 192 -421 199 -422 b 146 -475 188 -464 178 -475 b 107 -472 136 -475 124 -474 z m 410 804 b 478 890 413 853 442 874 b 410 804 476 832 475 831 z m 226 -476 b 313 -424 250 -443 276 -424 b 338 -426 319 -424 329 -425 b 258 -482 315 -457 294 -482 b 226 -476 249 -482 239 -481 z m 143 -154 l 143 -157 b 63 -247 143 -211 94 -219 b 143 -154 65 -189 75 -179 z m 418 1147 b 501 1206 439 1172 471 1206 b 544 1200 524 1206 533 1204 b 478 1149 514 1164 497 1149 b 418 1147 467 1149 447 1147 z m 411 1203 b 336 1142 375 1156 367 1144 b 282 1143 310 1142 297 1142 b 371 1206 310 1169 331 1203 l 378 1206 b 411 1203 385 1206 393 1204 z m 18 -442 b 25 -429 19 -439 22 -433 b 74 -392 40 -417 57 -404 b 85 -387 78 -389 81 -387 b 106 -403 93 -387 100 -396 b 110 -411 108 -406 110 -408 b 100 -426 110 -417 106 -422 b 58 -461 86 -437 74 -451 b 47 -464 56 -464 51 -464 b 18 -442 33 -464 19 -454 z m 364 669 b 447 774 369 728 396 760 l 447 764 b 364 669 447 710 407 692 z m 106 -118 b 183 -22 113 -68 133 -33 b 106 -118 178 -90 174 -96 z m 488 1047 b 557 1150 493 1096 508 1133 b 558 1126 558 1142 558 1133 b 488 1047 558 1088 542 1071 z m 150 8 b 226 114 153 65 182 94 b 228 93 226 106 228 99 b 150 8 228 50 213 38 z m 528 1039 b 453 926 522 986 513 942 l 453 938 b 528 1039 453 988 479 1017 z m 240 281 b 239 297 239 286 239 292 b 319 385 239 347 281 364 b 321 363 321 376 321 369 b 240 281 321 324 304 310 z m 199 147 b 275 250 200 204 225 238 b 276 229 275 242 276 236 b 199 147 276 188 261 175 z m 3 1096 b 1 1115 1 1103 1 1110 b 76 1207 1 1165 46 1181 b 82 1169 79 1190 82 1179 b 3 1096 82 1144 65 1135 z m 411 650 l 411 643 b 324 543 411 583 374 560 l 324 549 b 411 650 324 604 363 629 z m 82 978 b 86 950 85 967 86 957 b 14 875 86 922 68 910 b 7 908 10 889 7 899 b 82 978 7 936 28 951 z m 369 519 l 369 511 b 279 407 369 450 325 431 b 369 519 279 471 317 499 z m 11 -387 b 10 -365 10 -379 10 -372 b 94 -271 10 -311 50 -290 b 11 -387 94 -329 63 -362 z m 18 758 b 11 800 14 776 11 789 b 86 875 11 829 29 842 b 96 839 93 861 96 850 b 64 790 96 819 86 804 b 18 758 47 781 38 764 z m 83 1106 b 90 1071 88 1093 90 1082 b 17 986 90 1028 53 1007 b 8 1031 11 1004 8 1019 b 83 1106 8 1061 28 1076 z m 92 758 b 100 725 96 744 100 733 b 18 633 100 703 82 685 b 14 671 15 649 14 661 b 92 758 14 707 33 725 z m 92 646 b 100 635 97 640 100 638 b 118 597 103 621 118 610 b 115 589 118 594 117 592 b 67 538 103 569 86 551 b 53 532 63 533 57 532 b 28 546 43 532 35 538 b 19 567 22 553 19 560 b 29 585 19 572 22 579 b 92 646 49 604 68 624 z m 464 1113 b 410 935 451 1067 432 1000 b 186 247 336 706 254 478 b -4 -281 132 68 72 -110 b -32 -394 -21 -317 -32 -354 b -31 -417 -32 -401 -32 -408 b 44 -501 -26 -465 -3 -493 b 251 -519 113 -515 183 -519 l 279 -519 b 407 -442 335 -519 379 -494 b 481 -285 433 -390 461 -339 b 689 326 550 -81 617 124 b 925 1092 779 589 844 858 b 967 1232 940 1138 956 1185 b 971 1260 969 1242 971 1251 b 896 1329 971 1300 943 1325 l 868 1329 b 357 1343 697 1333 526 1339 l 265 1343 b 138 1340 222 1343 181 1342 b -32 1185 43 1335 -21 1278 l -32 1161 b -33 1026 -32 1126 -33 1076 b -28 803 -33 951 -29 878 b -24 693 -26 765 -24 729 b -26 629 -24 672 -25 650 b -28 607 -28 622 -28 614 b 0 524 -28 576 -19 550 b 46 497 11 507 26 499 l 54 497 b 225 642 124 497 224 557 b 228 765 226 683 228 724 b 219 900 228 810 226 856 b 215 976 215 925 215 951 l 215 1024 b 239 1113 215 1049 218 1111 b 379 1115 315 1114 347 1115 b 464 1113 407 1115 435 1114 z "},"8":{"ha":1026,"x_min":0,"x_max":0,"o":"m 300 244 b 294 251 299 247 294 250 b 311 271 297 261 301 269 l 313 271 b 321 263 317 271 321 267 l 321 261 b 300 244 318 251 310 247 z m 217 1219 b 158 1154 215 1182 192 1168 b 217 1219 174 1185 190 1201 z m 688 -419 b 617 -468 663 -446 642 -461 b 688 -419 629 -444 643 -419 z m 324 1124 b 418 1183 339 1167 365 1183 b 329 1124 385 1158 371 1124 z m 190 340 b 163 288 181 322 172 304 b 140 267 153 274 147 267 b 104 285 133 267 124 272 b 181 347 131 307 156 326 b 190 340 185 344 188 342 z m 28 67 b 85 167 38 111 39 151 b 90 126 89 149 90 136 b 28 67 90 96 74 90 z m 453 -436 b 393 -485 425 -471 414 -485 b 338 -471 381 -485 364 -479 b 401 -425 353 -437 375 -425 b 453 -436 417 -425 435 -429 z m 306 153 b 282 171 299 157 286 161 b 281 175 281 172 281 174 b 294 192 281 182 289 188 b 344 228 311 204 328 215 b 360 233 350 232 356 233 b 385 222 369 233 376 228 b 390 210 388 219 390 215 l 390 207 b 306 153 386 197 321 153 z m 349 129 b 419 179 374 147 396 163 b 439 188 426 185 432 188 b 454 182 443 188 449 186 b 468 165 461 176 468 171 b 458 151 468 161 465 157 b 404 113 440 139 421 128 b 382 103 396 106 389 103 b 349 129 371 103 360 113 z m 556 39 b 561 17 560 31 561 24 b 550 -4 561 8 558 1 b 496 -42 533 -18 515 -36 l 493 -42 b 460 -11 481 -42 475 -18 b 556 39 483 21 515 36 z m 325 -417 b 272 -465 300 -451 289 -465 b 218 -446 260 -465 244 -458 b 269 -394 240 -410 251 -394 b 325 -417 282 -394 299 -403 z m 75 1004 b 179 1140 89 1075 119 1117 b 75 1004 179 1071 126 1046 z m 474 -174 b 556 -56 478 -97 479 -93 b 474 -174 551 -111 532 -151 z m 467 -483 b 550 -429 488 -451 514 -429 b 578 -433 558 -429 568 -431 b 515 -499 567 -476 546 -499 b 467 -483 501 -499 485 -493 z m 574 978 b 578 936 576 960 578 947 b 507 843 578 885 564 876 b 503 903 504 858 503 871 b 574 978 503 935 519 947 z m 122 -403 b 158 -362 129 -385 146 -374 b 194 -339 176 -347 186 -339 b 229 -369 203 -339 211 -349 b 167 -424 196 -408 182 -424 b 122 -403 156 -424 143 -415 z m 71 -76 b 76 -118 75 -93 76 -107 b 3 -192 76 -146 60 -158 b -3 -151 -1 -175 -3 -161 b 71 -76 -3 -121 15 -107 z m 136 543 b 146 504 142 525 146 514 b 86 440 146 485 131 474 b 68 486 74 460 68 474 b 136 543 68 508 89 524 z m 121 646 b 129 611 125 631 129 619 b 61 544 129 590 113 579 b 46 582 51 560 46 571 b 121 646 46 603 68 618 z m 164 449 b 185 407 178 428 185 417 b 157 375 185 397 176 390 b 121 347 144 365 133 357 b 96 386 104 368 96 378 b 121 417 96 394 104 403 b 164 449 133 429 144 446 z m 444 99 b 463 54 456 75 463 63 b 436 22 463 43 454 36 b 414 7 429 17 422 11 b 388 -10 404 3 396 -10 b 376 -3 383 -10 381 -7 b 367 22 371 4 367 14 b 379 49 367 32 371 40 b 444 99 399 65 421 81 z m 83 -182 b 103 -222 96 -203 103 -214 b 81 -251 103 -232 96 -237 b 24 -296 63 -267 47 -286 b 6 -257 11 -276 6 -265 b 28 -226 6 -247 13 -240 b 83 -182 46 -210 63 -193 z m 110 760 b 119 714 115 738 119 724 b 90 676 119 700 111 693 b 40 643 74 664 60 649 b 32 682 36 660 32 672 b 110 760 32 708 51 724 z m 417 1128 b 478 1183 436 1153 457 1167 b 507 1193 486 1190 497 1193 b 521 1192 511 1193 517 1193 b 540 1172 533 1189 540 1181 b 535 1158 540 1168 539 1163 b 478 1104 518 1139 497 1122 b 471 1101 475 1103 474 1101 b 458 1107 467 1101 463 1104 b 417 1128 444 1114 432 1119 z m -6 -75 b 81 49 -3 3 -3 3 b 86 19 83 38 86 28 b -6 -75 86 -18 56 -40 z m 503 981 b 492 1033 496 1004 492 1021 b 556 1118 492 1075 508 1088 b 574 1056 567 1100 574 1086 b 503 981 574 1032 554 1010 z m 131 1007 b 133 985 132 999 133 992 b 50 871 133 931 93 899 b 43 913 46 888 43 900 b 131 1007 43 949 68 969 z m 507 553 b 500 600 503 571 500 586 b 576 685 500 635 517 658 b 583 636 581 664 583 649 b 507 553 583 600 564 585 z m 506 407 b 501 440 503 419 501 431 b 574 549 501 490 531 524 b 578 506 576 532 578 518 b 506 407 578 458 557 432 z m 508 693 b 503 740 506 706 503 717 b 574 833 503 785 533 811 b 585 765 581 796 585 779 b 508 693 585 739 567 726 z m 165 -307 b 101 -365 142 -328 121 -346 b 83 -375 94 -372 89 -375 b 65 -364 76 -375 71 -371 b 49 -339 58 -356 49 -347 b 57 -322 49 -333 51 -328 b 89 -292 67 -312 78 -301 b 126 -265 108 -275 117 -265 b 165 -307 136 -265 144 -278 z m 110 868 b 117 831 114 846 117 832 b 35 753 117 806 100 793 b 29 793 32 768 29 782 b 110 868 31 817 51 838 z m 244 140 b 296 114 269 133 281 121 b 340 60 322 100 340 88 b 335 32 340 51 339 43 b 332 11 332 25 332 18 b 404 -67 332 -26 363 -57 b 444 -72 417 -71 429 -71 b 396 -243 443 -135 432 -193 b 351 -278 379 -267 367 -278 b 306 -256 339 -278 325 -271 b 208 -75 242 -208 208 -150 b 210 -42 208 -64 208 -53 b 244 140 217 19 226 79 z m 457 403 b 260 626 350 432 269 521 b 238 804 260 626 240 706 l 238 821 b 279 1036 238 893 254 965 b 339 1085 289 1067 307 1083 l 372 1089 l 379 1089 b 460 1013 435 1089 454 1071 b 469 771 465 932 468 851 l 469 479 b 457 403 469 454 469 431 z m 944 728 b 933 1061 942 863 942 961 b 881 1243 928 1125 908 1185 b 786 1315 861 1282 831 1306 b 653 1329 742 1326 697 1328 b 554 1332 619 1331 588 1332 b 296 1301 467 1332 381 1325 b 175 1235 250 1289 208 1268 b 1 914 86 1144 22 1039 b -14 728 -10 851 -14 790 b 69 351 -14 644 17 496 b 75 326 74 342 75 333 b 67 293 75 315 71 306 b -46 -132 13 156 -46 19 b -44 -171 -46 -144 -46 -158 b 97 -435 -36 -283 -3 -378 b 324 -512 167 -474 242 -506 b 463 -531 371 -517 417 -522 b 514 -535 481 -533 497 -535 b 714 -449 590 -535 657 -506 b 740 -419 724 -439 732 -429 b 896 -161 811 -344 858 -254 b 926 -8 915 -111 926 -60 b 894 135 926 40 917 88 b 876 206 882 160 876 183 b 886 257 876 222 879 239 b 894 290 890 268 892 279 b 944 571 915 383 944 475 z "},"9":{"ha":1003,"x_min":0,"x_max":0,"o":"m 296 1153 b 351 1196 304 1178 325 1186 b 296 1153 339 1168 317 1161 z m 185 1249 b 121 1193 175 1217 147 1206 b 185 1249 132 1222 158 1236 z m 89 -169 b 22 -236 71 -197 46 -211 b 89 -169 28 -182 35 -175 z m 299 99 b 375 150 319 132 343 150 b 399 147 382 150 390 149 b 342 94 378 107 371 94 b 299 99 331 94 317 96 z m 540 1058 b 542 1032 540 1047 542 1039 b 486 971 542 999 533 994 b 478 1006 482 986 478 997 b 540 1058 478 1025 493 1033 z m 394 357 l 394 361 b 471 463 394 411 421 442 b 394 357 458 414 447 372 z m 482 857 b 479 890 481 871 479 881 b 535 949 479 917 490 924 b 542 911 539 932 542 919 b 482 857 542 890 528 883 z m 456 615 b 454 633 454 622 454 628 b 517 717 454 674 475 701 b 518 683 518 704 518 693 b 456 615 518 644 507 638 z m 500 589 b 501 575 500 583 501 579 b 435 490 501 529 475 504 b 433 517 435 501 433 510 b 500 589 433 554 443 558 z m 536 839 b 539 815 538 831 539 822 b 478 743 539 778 514 757 b 472 782 475 760 472 772 b 536 839 472 806 488 814 z m 361 1144 b 453 1197 392 1163 415 1197 b 478 1193 460 1197 468 1196 b 404 1132 453 1151 431 1132 b 361 1144 392 1132 378 1136 z m 161 107 b 229 163 192 147 210 163 b 278 144 243 163 258 156 b 208 100 261 111 238 100 b 161 107 194 100 178 103 z m 656 -424 b 558 -493 628 -458 601 -493 b 526 -487 549 -493 538 -492 b 635 -422 556 -453 585 -422 b 656 -424 642 -422 649 -422 z m 469 1064 b 450 1101 457 1083 450 1093 b 474 1129 450 1110 458 1117 b 532 1169 492 1144 508 1163 b 543 1133 539 1154 543 1143 b 469 1064 543 1113 525 1097 z m 381 -494 b 481 -432 414 -469 439 -432 b 514 -439 490 -432 501 -433 b 421 -501 490 -478 463 -501 b 381 -494 408 -501 396 -499 z m 528 60 b 532 10 531 39 532 22 b 460 -76 532 -31 517 -42 b 457 -51 458 -68 457 -60 b 528 60 457 -6 490 24 z m 179 186 b 140 147 171 168 153 161 b 115 131 132 138 124 131 b 92 146 108 131 100 135 b 81 171 85 156 81 164 b 99 196 81 181 86 188 b 103 199 100 197 101 197 b 142 224 122 215 132 224 b 179 186 151 224 161 213 z m 463 49 b 421 96 449 67 442 89 b 461 142 428 118 447 128 b 489 156 469 150 478 156 b 496 154 492 156 493 154 b 529 139 508 151 524 154 b 532 129 531 136 532 132 b 519 104 532 119 526 111 b 463 49 501 88 483 69 z m 93 331 b 107 301 100 315 104 308 b 119 271 110 290 119 281 b 117 261 119 268 119 264 b 61 215 103 242 83 226 b 56 214 60 214 57 214 b 40 229 49 214 43 222 b 25 260 36 239 25 249 b 32 274 25 264 28 268 b 93 331 49 292 69 308 z m 63 -385 b 106 -342 74 -367 90 -356 b 140 -319 122 -326 132 -319 b 178 -353 150 -319 160 -329 b 135 -394 164 -367 149 -381 b 99 -421 117 -411 107 -421 b 63 -385 89 -421 81 -408 z m 390 -432 b 286 -497 357 -465 326 -497 b 246 -487 274 -497 261 -494 b 336 -426 268 -443 290 -426 b 390 -432 351 -426 369 -428 z m 6 307 b -7 363 -3 332 -7 349 b 67 429 -7 389 13 400 b 79 383 75 408 79 394 b 6 307 79 361 61 346 z m 86 -232 b 111 -278 103 -256 111 -268 b 81 -315 111 -289 101 -297 b 38 -347 68 -326 57 -343 b 15 -304 22 -325 15 -314 b 40 -268 15 -293 24 -285 b 72 -239 50 -258 61 -249 b 86 -232 76 -236 82 -233 z m 265 -408 b 203 -462 244 -426 222 -443 b 178 -475 194 -472 186 -475 b 158 -471 171 -475 165 -474 b 135 -453 143 -464 135 -460 b 147 -432 135 -447 139 -440 b 171 -408 156 -424 164 -417 b 214 -381 192 -389 203 -381 b 265 -408 226 -381 239 -389 z m 128 1139 b 38 997 126 1072 106 1019 l 38 1017 b 128 1139 38 1088 68 1113 z m 75 556 b 76 519 76 542 76 529 b -10 432 76 476 63 468 b -22 481 -18 454 -22 468 b 18 526 -22 497 -11 508 b 75 556 35 536 50 553 z m 97 981 b 99 954 99 971 99 963 b 6 839 99 896 65 860 b 0 875 3 851 0 864 b 97 981 0 924 32 957 z m 418 -254 b 517 -89 432 -185 446 -119 b 519 -128 518 -103 519 -115 b 418 -254 519 -185 494 -212 z m -10 692 b -14 747 -12 717 -14 735 b 74 829 -14 785 3 792 b 81 775 78 806 81 789 b -10 692 81 740 60 735 z m -11 554 b -18 613 -14 581 -18 599 b 71 693 -18 644 -1 657 b 78 638 75 668 78 651 b -11 554 78 601 57 594 z m 204 635 b 247 1058 213 781 217 921 b 283 1106 256 1096 257 1106 b 307 1104 290 1106 297 1106 b 440 976 421 1097 438 1082 b 442 913 442 956 442 933 b 351 364 442 725 414 542 b 319 304 344 342 335 322 b 286 283 307 290 296 283 b 251 308 274 283 264 292 b 206 440 224 347 206 392 l 206 450 b 208 544 207 482 208 514 b 204 635 208 575 207 606 z m 500 1339 l 500 1333 b 388 1335 463 1333 425 1335 b 332 1333 369 1335 350 1335 b 10 1081 176 1328 57 1231 b -53 650 -33 940 -53 796 l -53 585 b -54 519 -53 563 -53 542 b -56 475 -56 504 -56 489 b 43 153 -56 358 -26 251 b 179 65 78 103 118 72 b 317 58 225 61 271 58 b 381 60 339 58 360 58 b 422 26 410 60 422 50 l 422 22 b 369 -262 422 -76 414 -172 b 340 -285 361 -278 351 -285 b 319 -281 333 -285 328 -283 b 215 -183 271 -262 238 -229 b 158 -133 203 -158 186 -139 b 108 -128 142 -129 125 -128 b 47 -137 88 -128 67 -131 b -10 -187 21 -144 1 -162 b -29 -268 -21 -214 -29 -240 b -22 -308 -29 -282 -28 -294 b 199 -518 17 -414 82 -493 b 386 -536 261 -532 324 -536 b 546 -529 439 -536 493 -533 b 833 -328 683 -521 774 -449 b 907 26 888 -214 907 -94 b 906 78 907 43 906 61 b 903 239 903 132 903 185 b 913 696 903 390 910 544 b 922 1036 915 808 922 924 b 919 1139 922 1071 921 1104 b 821 1297 915 1213 883 1264 b 708 1329 785 1315 747 1328 b 500 1339 639 1333 569 1336 z "},"\u0000":{"ha":0,"x_min":0,"x_max":0,"o":""}," ":{"ha":694,"x_min":0,"x_max":0,"o":""},"!":{"ha":586,"x_min":0,"x_max":0,"o":"m 408 153 b 353 97 403 126 385 113 b 408 153 367 129 386 143 z m -31 324 b -25 175 -31 275 -29 225 b 69 60 -21 114 10 74 b 119 54 86 57 103 54 b 293 50 178 51 236 50 b 482 239 403 50 482 133 l 482 253 b 481 307 481 271 481 289 b 482 417 481 344 482 381 b 497 861 483 565 497 713 b 496 950 497 890 497 921 b 503 1253 496 1050 497 1151 l 503 1263 b 425 1342 503 1314 481 1336 b 374 1344 408 1343 392 1344 b 313 1342 354 1344 333 1343 b 100 1326 242 1338 171 1343 b -11 1197 35 1311 -7 1264 b -12 1101 -12 1165 -12 1133 l -12 1036 b -11 808 -12 960 -11 883 b -21 563 -11 726 -14 644 b -31 340 -26 489 -31 414 z m 39 1207 l 39 1218 b 101 1290 39 1257 65 1275 l 101 1285 b 39 1207 101 1239 57 1233 z m 233 93 b 304 149 254 118 268 149 b 325 146 310 149 317 149 b 271 88 304 101 296 88 b 233 93 261 88 250 90 z m 121 160 b 78 110 111 139 92 126 b 61 100 72 103 67 100 b 40 113 54 100 47 106 b 33 126 35 118 33 122 b 46 146 33 133 40 140 b 65 165 51 153 58 158 b 92 182 75 178 83 182 b 121 160 101 182 111 174 z m 115 93 b 196 154 142 124 161 154 b 218 150 203 154 210 153 b 150 90 201 106 189 90 b 115 93 140 90 129 92 z m 78 547 b 83 511 82 533 83 522 b 15 429 83 469 53 449 b 10 461 11 442 10 451 b 78 547 10 501 40 524 z m 17 171 b 10 210 13 185 10 197 b 74 296 10 250 38 274 b 81 261 79 283 81 272 b 17 171 81 222 49 199 z m 74 417 b 82 383 79 404 82 393 b 14 299 82 344 44 324 b 7 340 10 315 7 329 b 74 417 7 372 25 390 z m 28 1083 b 25 1107 25 1092 25 1100 b 92 1199 25 1151 61 1172 b 100 1156 97 1181 100 1168 b 28 1083 100 1125 79 1111 z m 88 689 b 90 640 89 669 90 654 b 22 564 90 597 76 588 b 17 594 18 575 17 586 b 88 689 17 636 49 663 z m 28 958 b 24 997 25 974 24 988 b 93 1071 24 1032 40 1044 b 97 1032 96 1054 97 1042 b 28 958 97 1000 81 988 z m 29 700 b 24 732 25 711 24 722 b 89 821 24 772 51 799 b 99 778 94 804 99 790 b 29 700 99 747 78 724 z m 93 949 b 100 914 97 936 100 925 b 35 831 100 875 69 851 b 25 874 29 847 25 861 b 93 949 25 903 44 922 z m 88 -74 b 28 -140 79 -108 50 -118 b 26 -122 28 -133 26 -128 b 88 -74 26 -93 39 -86 z m 329 -439 b 257 -499 307 -467 294 -499 b 246 -497 254 -499 250 -497 b 231 -487 239 -496 231 -493 b 235 -481 231 -486 232 -483 b 303 -435 253 -460 269 -435 b 329 -439 311 -435 319 -436 z m 436 -435 b 344 -493 411 -482 396 -492 b 410 -432 368 -446 379 -432 b 436 -435 418 -432 426 -433 z m 218 -435 b 136 -497 196 -472 171 -497 b 108 -493 128 -497 118 -496 b 192 -433 129 -449 147 -433 b 218 -435 200 -433 208 -433 z m 85 -265 b 89 -292 88 -275 89 -283 b 14 -387 89 -340 44 -357 b 10 -358 11 -376 10 -367 b 85 -265 10 -310 50 -292 z m 14 -265 b 11 -243 13 -257 11 -250 b 78 -149 11 -197 47 -175 b 89 -192 85 -167 89 -181 b 14 -265 89 -218 67 -232 z m 90 -372 b 113 -412 99 -387 113 -400 b 110 -424 113 -417 113 -419 b 44 -482 94 -447 72 -469 l 42 -482 b 24 -467 35 -482 28 -474 b 18 -450 21 -461 18 -456 b 25 -436 18 -446 21 -440 b 90 -372 44 -414 63 -392 z m 221 -532 l 221 -531 b 299 -529 247 -531 272 -529 b 350 -532 315 -529 333 -529 l 360 -532 b 506 -361 433 -532 506 -435 b 503 -339 506 -353 504 -346 b 490 -217 493 -297 492 -258 b 486 -93 489 -176 490 -135 b 415 -24 482 -46 461 -26 b 301 -19 378 -21 339 -19 b 107 -26 236 -19 171 -22 b -21 -149 32 -31 -19 -69 b -26 -337 -22 -211 -26 -275 b -24 -424 -26 -367 -26 -394 b 97 -532 -17 -503 18 -532 z "},"\"":{"ha":740,"x_min":0,"x_max":0,"o":"m 386 675 b 325 618 383 633 382 633 b 386 675 343 654 344 656 z m 13 1201 b 90 1274 18 1256 32 1269 b 13 1201 69 1243 42 1224 z m 463 738 b 461 765 461 750 461 758 b 508 813 461 792 469 796 b 513 792 511 804 513 797 b 463 738 513 765 493 750 z m 521 1035 b 524 1001 522 1021 524 1010 b 476 954 524 976 514 972 b 471 988 474 969 471 979 b 521 1035 471 1006 482 1013 z m 481 1063 b 475 1092 476 1074 475 1083 b 517 1151 475 1119 493 1136 b 529 1110 525 1133 529 1121 b 481 1063 529 1092 515 1082 z m 468 843 b 465 874 467 856 465 865 b 513 925 465 907 481 915 b 519 888 517 908 519 897 b 468 843 519 871 507 864 z m 517 1260 b 522 1224 519 1243 522 1232 b 481 1178 522 1204 513 1197 b 472 1214 475 1193 472 1204 b 517 1260 472 1233 485 1244 z m 197 614 b 282 672 222 644 244 672 b 308 668 290 672 299 671 b 225 610 283 642 264 610 b 197 614 217 610 207 611 z m 76 615 b 160 672 103 642 122 672 b 182 668 167 672 174 671 b 119 610 165 625 151 610 b 76 615 108 610 94 611 z m 536 696 b 529 682 535 692 533 686 b 481 636 514 667 497 651 b 464 626 475 629 469 626 b 443 639 457 626 450 632 b 435 654 438 643 435 649 b 446 671 435 660 439 667 b 504 715 465 686 483 701 b 511 717 506 717 508 717 b 536 696 521 717 536 706 z m 22 624 b 3 650 10 629 3 639 b 4 658 3 653 3 656 b 67 719 15 688 42 703 b 72 721 68 721 71 721 b 83 711 76 721 82 717 b 93 690 86 704 93 697 b 89 681 93 688 92 683 b 28 625 69 661 49 643 b 22 624 26 624 25 624 z m -3 714 b -6 736 -4 722 -6 729 b 79 844 -6 792 42 813 b 82 818 82 835 82 826 b -3 714 82 764 32 747 z m 88 961 b 90 938 90 953 90 944 b 10 839 90 886 44 869 b 8 857 8 846 8 851 b 88 961 8 913 53 931 z m 89 1201 b 94 1172 93 1190 94 1181 b 18 1083 94 1129 44 1115 b 13 1114 15 1094 13 1104 b 89 1201 13 1154 40 1185 z m 90 1090 b 96 1056 94 1078 96 1067 b 22 958 96 1008 57 985 b 14 1003 17 976 14 990 b 90 1090 14 1035 35 1054 z m 467 1281 b 401 1331 449 1307 433 1331 l 399 1331 b 92 1318 296 1328 193 1329 b -29 1192 7 1308 -29 1264 l -29 1183 b -28 1153 -28 1174 -28 1163 l -28 1122 b -25 988 -26 1078 -25 1032 b -43 729 -25 901 -29 815 b -44 706 -44 721 -44 714 b -40 663 -44 692 -43 676 b 57 574 -28 603 -4 578 b 168 569 94 571 131 569 b 331 579 222 569 276 572 b 383 599 350 582 368 588 b 410 610 392 606 400 610 b 433 600 417 610 425 607 b 475 588 446 592 460 588 b 508 594 486 588 497 590 b 640 757 581 625 632 679 b 658 1089 651 867 658 978 l 658 1139 b 649 1272 657 1183 656 1228 b 588 1333 642 1314 619 1333 b 554 1328 578 1333 567 1332 b 467 1281 525 1317 499 1299 z "},"#":{"ha":1561,"x_min":0,"x_max":0,"o":"m 496 1253 b 528 1292 497 1279 511 1286 b 496 1253 526 1271 526 1271 z m 922 146 b 907 147 918 146 913 146 b 951 190 914 171 932 176 l 951 182 b 922 146 951 156 942 146 z m 219 815 b 215 832 217 822 215 828 b 219 847 215 838 217 843 b 253 867 226 860 239 865 b 258 860 254 867 258 863 l 260 853 b 240 829 260 842 249 835 b 219 815 235 824 228 821 z m 1196 1221 b 1236 1289 1196 1251 1213 1271 l 1238 1274 b 1196 1221 1238 1247 1225 1231 z m 221 156 l 189 158 b 246 193 208 179 224 192 b 221 156 243 164 242 156 z m 1033 613 b 1082 701 1044 654 1049 685 l 1083 681 b 1033 613 1083 651 1075 642 z m 961 357 l 961 365 b 1008 431 961 397 975 417 b 961 357 1006 396 999 369 z m 1 44 l 1 53 b 43 106 1 83 22 94 b 51 108 46 107 49 108 b 63 101 56 108 60 107 l 65 94 b 60 82 65 90 63 85 b 1 44 44 65 25 56 z m 793 729 l 790 758 b 813 786 790 778 796 786 b 856 779 824 786 836 783 z m 996 483 b 1039 561 1000 517 1004 547 l 1040 536 b 996 483 1040 511 1031 501 z m 1240 731 b 1281 789 1243 779 1243 789 l 1310 788 b 1240 731 1292 761 1267 747 z m 597 -37 l 596 -11 b 619 21 596 13 601 21 b 665 14 631 21 644 18 b 597 -37 638 -7 618 -21 z m 457 1142 l 457 1149 b 510 1211 457 1182 478 1200 l 511 1189 b 457 1142 511 1158 501 1154 z m 240 340 l 239 356 b 293 415 239 389 264 401 l 294 400 b 240 340 294 365 272 351 z m 1156 1096 l 1156 1100 b 1213 1176 1156 1139 1172 1164 b 1156 1096 1211 1135 1200 1106 z m 263 444 b 324 524 265 492 282 517 l 326 507 b 263 444 326 474 296 461 z m 424 921 b 390 925 415 921 406 922 b 454 990 390 964 424 968 b 424 921 449 935 446 921 z m 204 225 l 204 229 b 267 306 204 272 229 292 l 267 286 b 204 225 267 247 260 244 z m 1057 -37 b 1049 -35 1054 -37 1051 -36 b 1043 -24 1044 -32 1043 -28 l 1044 -10 b 1092 25 1050 18 1053 25 l 1128 24 l 1072 -29 b 1057 -37 1068 -33 1063 -37 z m 1115 964 b 1175 1054 1129 1031 1129 1031 b 1115 964 1175 1000 1174 999 z m 917 217 b 975 311 925 282 925 282 l 976 297 b 917 217 976 257 954 235 z m 296 561 l 294 572 b 363 649 294 611 331 625 l 363 644 b 296 561 363 592 339 569 z m 419 1019 b 486 1101 426 1060 435 1096 b 419 1019 486 1053 464 1028 z m 825 -157 b 885 -74 828 -117 844 -87 l 885 -90 b 825 -157 885 -136 872 -149 z m 115 -181 l 113 -154 b 176 -93 113 -126 126 -117 l 176 -112 b 115 -181 176 -150 169 -154 z m 1135 -37 l 1122 -37 b 1242 39 1156 -1 1183 32 b 1135 -37 1215 -11 1186 -37 z m 253 740 b 229 750 244 740 236 744 b 224 761 226 753 224 756 b 226 769 224 764 224 767 b 282 800 239 789 258 800 b 322 790 294 800 307 797 b 269 746 307 768 286 760 b 253 740 264 742 258 740 z m 115 -499 b 86 -494 108 -499 99 -497 b 146 -436 103 -456 119 -436 b 185 -447 157 -436 169 -440 b 115 -499 147 -487 136 -499 z m 65 -446 b 57 -408 60 -429 57 -418 b 121 -342 57 -385 74 -372 b 125 -368 124 -351 125 -360 b 65 -446 125 -406 90 -421 z m 1319 735 b 1418 800 1350 761 1372 800 l 1428 800 b 1319 735 1414 749 1401 740 z m 1010 715 b 972 722 999 715 986 718 b 1085 778 1013 746 1039 778 b 1104 776 1090 778 1097 778 b 1010 715 1075 746 1051 715 z m 33 -26 b -1 -10 24 -26 14 -19 b 75 42 39 26 58 42 b 110 26 86 42 96 36 b 33 -26 67 -11 50 -26 z m 757 -451 b 754 -428 754 -443 754 -435 b 829 -335 754 -381 799 -364 l 832 -356 b 757 -451 832 -406 793 -425 z m 878 715 b 847 721 868 715 858 717 b 951 783 881 750 907 783 b 985 778 963 783 972 782 b 878 715 947 754 924 715 z m 219 -512 b 186 -504 210 -512 199 -510 b 286 -442 214 -474 239 -442 b 315 -446 294 -442 304 -443 b 219 -512 281 -472 261 -512 z m 799 -512 b 764 -506 788 -512 776 -511 b 822 -449 781 -479 803 -465 b 840 -439 831 -442 835 -439 b 876 -456 847 -439 856 -444 b 799 -512 853 -481 835 -512 z m 669 -61 l 650 -58 b 776 14 675 -12 718 14 l 789 14 b 669 -61 742 -14 717 -61 z m 79 -319 b 163 -206 85 -244 90 -236 l 165 -225 b 79 -319 165 -276 118 -292 z m 789 -310 l 789 -304 b 863 -193 789 -250 811 -214 b 869 -233 867 -211 869 -222 b 789 -310 869 -256 854 -271 z m 139 -65 b 90 -36 121 -64 117 -43 b 183 19 128 -14 154 4 b 196 24 189 22 193 24 b 208 8 204 24 208 18 l 207 0 b 139 -65 203 -22 160 -65 z m 329 675 b 318 733 325 694 319 714 b 403 788 318 742 372 775 b 329 675 403 733 388 692 z m 811 -58 b 771 -49 799 -58 786 -56 b 883 14 806 -21 833 14 b 919 8 894 14 907 13 b 811 -58 882 -22 854 -58 z m 358 -511 l 315 -508 b 408 -444 340 -464 365 -444 b 447 -449 419 -444 432 -446 b 358 -511 414 -497 401 -511 z m 826 146 l 822 146 b 660 153 768 150 714 151 b 635 171 642 153 635 158 l 636 183 b 681 381 649 250 661 315 b 758 643 707 468 733 556 b 800 681 765 667 774 681 l 1014 681 b 907 329 976 557 943 443 b 865 179 892 279 876 229 b 826 146 860 156 849 146 z m 808 -553 b 874 -535 831 -551 853 -547 b 978 -375 932 -497 967 -444 b 1011 -150 989 -300 999 -225 b 1050 -72 1021 -86 1026 -72 b 1101 -78 1061 -72 1078 -76 l 1121 -79 b 1283 46 1201 -79 1258 -32 b 1289 78 1288 57 1289 67 b 1208 167 1289 125 1256 167 l 1194 165 b 1092 158 1160 158 1124 160 b 1086 174 1088 164 1086 168 b 1089 189 1086 179 1088 183 b 1217 665 1115 351 1172 507 b 1249 690 1222 685 1232 690 l 1254 690 b 1354 697 1288 690 1321 690 b 1485 843 1432 713 1479 765 l 1485 851 b 1415 928 1485 893 1457 925 l 1393 929 b 1342 926 1376 929 1358 928 l 1308 924 b 1289 938 1294 924 1289 928 b 1297 979 1289 947 1292 960 l 1306 1011 b 1365 1246 1326 1089 1347 1167 b 1368 1271 1368 1254 1368 1263 b 1318 1340 1368 1304 1350 1331 b 1289 1344 1308 1343 1300 1344 b 1188 1296 1251 1344 1211 1325 b 1138 1183 1163 1263 1149 1224 b 1069 946 1114 1104 1092 1025 b 1036 911 1064 928 1060 911 l 1033 911 b 838 918 968 914 903 917 l 838 928 b 850 993 838 953 844 974 b 917 1254 872 1081 896 1167 b 919 1278 918 1263 919 1269 b 857 1343 919 1314 896 1340 b 689 1350 801 1347 744 1350 b 560 1344 646 1350 603 1349 b 454 1271 511 1342 476 1314 b 428 1190 442 1246 433 1218 b 360 960 411 1113 382 1036 b 313 921 351 936 340 922 b 221 896 281 919 250 910 b 174 790 176 874 174 832 b 229 708 174 750 192 724 b 288 685 249 701 269 700 l 154 197 b 108 160 149 172 138 163 b -47 21 4 151 -35 122 l -49 3 b -1 -57 -49 -28 -35 -44 b 54 -65 17 -64 36 -62 b 86 -87 78 -69 86 -74 l 83 -110 l 49 -264 b 18 -424 38 -317 22 -368 l 18 -439 b 107 -536 18 -496 46 -526 b 288 -550 165 -546 226 -550 l 342 -549 b 475 -481 400 -547 442 -524 b 521 -376 500 -450 521 -417 l 519 -358 b 525 -336 519 -351 522 -343 b 551 -199 542 -292 549 -246 b 564 -121 554 -172 560 -147 b 590 -97 567 -107 575 -97 l 604 -97 b 743 -93 650 -97 696 -93 l 801 -96 b 740 -328 781 -176 761 -253 b 713 -454 729 -369 717 -411 l 713 -468 b 797 -553 713 -524 742 -553 z "},"$":{"ha":1001,"x_min":0,"x_max":0,"o":"m 317 1061 b 260 1013 314 1024 288 1026 b 317 1061 274 1042 290 1051 z m 313 1279 l 313 1260 b 263 1194 313 1225 307 1221 b 261 1207 261 1199 261 1203 b 313 1279 261 1240 285 1257 z m 760 660 b 833 722 796 713 804 722 b 861 721 840 722 850 722 b 760 660 842 678 807 667 z m 531 875 b 639 924 578 913 594 921 b 579 868 611 881 603 868 b 531 875 567 868 553 871 z m 442 -490 b 492 -444 465 -456 472 -444 b 526 -450 500 -444 511 -447 b 479 -496 506 -485 500 -496 b 442 -490 471 -496 458 -493 z m 56 772 b 124 869 71 808 79 849 l 124 858 b 56 772 124 811 90 792 z m 13 103 b 69 196 13 147 28 179 b 74 169 72 185 74 176 b 13 103 74 149 60 138 z m 415 -450 b 350 -503 399 -479 381 -503 b 319 -496 340 -503 331 -500 b 369 -437 336 -454 347 -437 b 415 -450 381 -437 396 -442 z m 551 -494 b 625 -437 571 -460 592 -437 b 647 -440 632 -437 639 -437 b 590 -497 636 -483 628 -497 b 551 -494 581 -497 567 -496 z m 310 1171 b 318 1136 315 1157 318 1146 b 254 1074 318 1114 303 1099 b 249 1113 251 1090 249 1103 b 310 1171 249 1139 264 1147 z m 440 351 b 390 293 422 329 406 311 b 375 283 385 286 379 283 b 353 294 368 283 360 289 b 344 306 347 297 344 301 b 353 322 344 311 350 317 b 399 364 371 351 381 364 b 440 351 408 364 421 360 z m 253 343 b 304 399 278 383 288 399 b 344 385 314 399 325 393 b 300 325 328 343 318 325 b 253 343 289 325 275 332 z m 249 411 b 211 358 242 386 225 374 b 188 351 206 353 197 351 b 151 364 174 351 158 356 b 147 372 149 367 147 369 b 153 383 147 376 150 381 b 185 422 163 397 172 411 b 204 431 192 428 199 431 b 249 411 221 431 232 415 z m 328 -199 b 336 -235 333 -212 336 -225 b 268 -333 336 -278 299 -303 b 263 -299 264 -321 263 -310 b 328 -199 263 -254 296 -228 z m 447 213 b 414 257 424 233 414 246 b 451 307 414 271 429 282 b 478 325 463 319 471 325 b 504 306 486 325 494 318 b 511 290 508 300 511 294 b 501 272 511 283 507 278 b 447 213 483 253 467 233 z m 218 -179 b 271 -118 232 -153 254 -137 b 293 -107 278 -110 286 -107 b 311 -111 299 -107 304 -108 b 329 -131 322 -117 329 -122 b 321 -146 329 -135 326 -140 b 292 -178 313 -157 301 -167 b 258 -206 275 -196 268 -206 b 218 -179 249 -206 239 -196 z m 108 390 b 69 428 81 407 69 417 b 90 464 69 438 78 447 b 132 508 103 481 113 499 b 164 464 153 485 164 475 b 108 390 164 450 146 435 z m 333 -328 b 342 -368 339 -343 342 -356 b 278 -468 342 -411 310 -440 b 263 -419 268 -449 263 -433 b 333 -328 263 -392 283 -369 z m 96 743 b 101 713 99 732 101 721 b 22 606 101 661 56 639 b 17 646 18 621 17 635 b 96 743 17 693 47 713 z m 126 -144 b 157 -100 129 -125 144 -114 b 196 -68 175 -78 185 -68 b 242 -90 206 -68 218 -75 b 194 -144 231 -112 211 -128 b 165 -165 181 -158 174 -165 b 126 -144 157 -165 147 -158 z m 24 -35 b 13 8 15 -18 13 -4 b 72 101 13 47 46 72 b 94 51 86 79 94 65 b 24 -35 94 31 75 11 z m 706 924 b 742 879 731 901 742 890 b 717 842 742 869 733 860 b 678 804 704 828 696 811 b 633 849 649 831 633 839 b 669 894 633 857 646 868 b 706 924 679 906 689 918 z m 89 -122 b 57 -99 72 -119 65 -108 b 46 -78 50 -92 46 -85 b 56 -61 46 -72 49 -67 l 89 -24 b 118 -3 103 -10 110 -3 b 144 -24 125 -3 132 -10 b 154 -42 150 -31 154 -36 b 146 -57 154 -46 151 -51 b 89 -122 126 -79 107 -101 z m 99 619 b 113 571 108 603 113 586 b 89 519 113 553 106 536 b 47 475 74 506 67 485 b 22 536 31 503 22 521 b 99 619 22 563 46 581 z m 479 96 b 467 167 472 129 467 150 b 531 240 467 196 483 208 b 553 188 546 219 553 203 b 479 96 553 157 525 132 z m 763 833 b 781 776 775 813 781 793 b 715 675 781 735 749 704 b 690 733 700 699 690 717 b 763 833 690 761 713 786 z m 468 -537 l 468 -533 b 554 -535 497 -533 525 -535 b 597 -533 568 -535 583 -535 b 722 -406 661 -529 722 -468 b 721 -386 722 -399 722 -393 b 706 -169 706 -314 711 -242 b 704 -157 706 -165 704 -161 b 751 -92 704 -126 718 -107 b 899 39 811 -62 868 -28 b 924 163 917 76 924 119 b 788 447 924 272 872 386 b 554 538 717 496 635 518 b 485 601 515 547 496 567 b 471 696 475 632 471 664 b 479 774 471 722 474 747 b 546 832 489 813 510 832 b 565 831 551 832 558 832 b 651 751 610 822 640 797 b 667 681 657 728 660 704 b 725 619 675 651 689 625 b 749 618 733 618 740 618 b 917 783 842 618 917 694 b 908 835 917 800 914 818 b 849 961 893 879 874 922 b 726 1056 818 1007 779 1043 b 688 1104 697 1064 688 1078 l 688 1110 b 689 1192 689 1138 689 1164 b 688 1274 689 1218 689 1246 b 632 1344 686 1317 668 1340 b 493 1354 586 1349 539 1354 b 385 1343 457 1354 421 1351 b 213 1143 278 1317 213 1276 l 213 1019 b 174 961 213 992 204 972 b 76 888 136 944 101 921 b -22 615 14 806 -22 715 b -19 567 -22 600 -21 583 b 221 306 -6 450 32 339 b 285 286 242 301 264 296 b 439 69 394 242 439 178 l 439 60 b 400 0 438 18 426 0 b 365 7 390 0 379 3 b 267 47 332 18 299 32 b 213 121 236 61 215 85 b 206 193 210 144 208 169 b 160 250 203 222 189 243 b 135 253 151 253 143 253 b -17 151 74 253 -3 206 b -29 56 -25 119 -29 88 b -14 -49 -29 21 -24 -14 b 169 -206 14 -140 86 -181 b 225 -279 222 -222 225 -224 b 226 -346 226 -301 226 -324 l 226 -414 b 350 -537 228 -503 261 -535 z "},"%":{"ha":1517,"x_min":0,"x_max":0,"o":"m 1003 64 b 1046 124 1004 96 1024 111 b 1003 64 1039 101 1033 76 z m 825 1226 b 883 1294 825 1271 856 1282 b 825 1226 882 1258 853 1249 z m 1163 -487 b 1253 -432 1188 -450 1211 -432 b 1163 -487 1231 -464 1204 -476 z m 33 1144 b 111 1239 47 1190 75 1211 b 33 1144 108 1183 74 1168 z m 1211 -296 l 1210 -274 b 1274 -214 1210 -244 1221 -237 b 1211 -296 1253 -275 1251 -278 z m 951 -89 b 1003 11 956 -50 953 -11 b 951 -89 1003 -37 1000 -72 z m 758 961 l 756 979 b 819 1056 756 1019 793 1031 l 821 1032 b 758 961 821 992 811 985 z m 724 826 b 788 925 726 872 736 911 l 788 906 b 724 826 788 861 776 850 z m 425 646 b 544 699 449 693 458 697 b 425 646 515 646 469 651 z m 1174 -8 b 1154 1 1167 -8 1160 -3 b 1146 15 1149 6 1146 10 l 1149 26 b 1193 60 1156 49 1171 60 b 1236 50 1206 60 1219 56 b 1183 -4 1225 26 1201 13 b 1174 -8 1181 -7 1176 -8 z m 601 383 b 678 500 606 435 615 479 b 601 383 661 451 664 400 z m 681 683 l 681 688 b 756 789 681 739 707 769 l 756 782 b 681 683 756 728 726 699 z m -1 1011 l -3 1032 b 76 1119 -3 1074 15 1090 b 78 1101 78 1113 78 1107 b -1 1011 78 1053 32 1038 z m 792 1088 l 792 1110 b 865 1204 792 1150 801 1160 b 792 1088 861 1151 854 1107 z m 488 -68 b 558 39 501 11 501 11 l 561 8 b 488 -68 561 -28 544 -42 z m 1231 -185 l 1231 -167 b 1301 -82 1231 -121 1243 -110 l 1303 -110 b 1231 -185 1303 -151 1292 -157 z m 183 647 b 128 660 171 647 154 651 b 183 714 156 699 167 714 b 239 690 196 714 211 706 b 183 647 214 658 204 647 z m 569 229 l 568 257 b 632 346 568 304 583 325 b 569 229 625 297 629 247 z m 560 915 l 556 957 b 625 1025 556 989 571 997 l 625 1019 b 560 915 625 971 608 933 z m 646 536 l 644 553 b 719 656 644 601 668 636 b 646 536 714 603 704 557 z m 554 1026 b 536 1063 543 1040 536 1051 b 557 1094 536 1074 543 1085 b 579 1113 565 1100 571 1107 b 607 1131 588 1118 596 1131 b 617 1126 610 1131 613 1129 b 625 1106 622 1122 625 1115 b 611 1072 625 1093 619 1079 b 554 1026 593 1056 574 1042 z m 926 -235 l 926 -215 b 986 -122 926 -154 935 -147 b 993 -169 990 -143 993 -158 b 926 -235 993 -197 978 -206 z m 524 72 b 594 193 546 181 550 174 l 596 160 b 524 72 596 113 581 96 z m 514 1114 b 479 1131 504 1114 494 1121 b 540 1193 507 1174 522 1193 b 585 1169 553 1193 565 1185 b 514 1114 544 1129 529 1114 z m 539 -508 b 486 -497 525 -508 508 -504 b 585 -447 515 -468 544 -447 b 619 -451 596 -447 607 -449 b 539 -508 585 -489 569 -508 z m 422 -361 l 422 -351 b 508 -243 422 -293 457 -264 l 508 -250 b 422 -361 508 -308 471 -339 z m 304 636 b 257 642 290 636 274 639 b 343 694 281 681 310 694 b 388 688 357 694 372 692 b 304 636 367 649 339 636 z m 1226 -85 b 1206 -46 1218 -69 1206 -58 b 1208 -36 1206 -43 1207 -39 b 1265 17 1221 -14 1243 3 l 1271 18 b 1286 4 1278 18 1283 11 b 1296 -19 1292 -4 1296 -11 b 1289 -36 1296 -25 1294 -31 b 1226 -85 1271 -51 1250 -65 z m 669 -511 b 638 -506 660 -511 649 -510 b 722 -449 660 -465 683 -449 b 763 -453 733 -449 747 -450 b 669 -511 736 -486 708 -511 z m 1088 -493 b 1033 -474 1075 -493 1058 -486 b 1106 -418 1072 -433 1089 -418 b 1147 -436 1117 -418 1128 -425 b 1088 -493 1118 -476 1106 -493 z m 950 -350 b 928 -300 936 -328 928 -312 b 997 -240 928 -281 949 -267 b 1008 -292 1004 -264 1008 -279 b 950 -350 1008 -314 993 -324 z m 425 -485 b 408 -475 419 -485 414 -482 b 399 -449 401 -467 399 -458 b 408 -424 399 -440 401 -432 b 469 -379 424 -406 444 -393 l 497 -435 b 450 -471 486 -451 467 -460 b 425 -485 442 -476 435 -485 z m -1 889 b -8 935 -6 908 -8 922 b 65 1003 -8 967 11 981 b 71 957 68 982 71 968 b -1 889 71 926 56 918 z m 999 -449 b 964 -401 976 -426 964 -414 b 1029 -344 964 -386 983 -372 b 1068 -390 1046 -354 1054 -369 z m 457 -224 b 454 -187 456 -210 454 -199 b 531 -99 454 -142 474 -121 b 457 -224 531 -156 524 -207 z m 17 771 b -4 818 6 790 -4 806 b 74 883 -4 838 15 854 b 89 840 83 863 89 850 b 60 804 89 828 79 821 b 17 771 46 792 35 776 z m 78 682 b 46 710 68 682 58 692 b 39 726 42 717 39 722 b 49 743 39 733 42 738 l 81 774 b 103 789 88 781 94 789 b 108 788 104 789 107 789 b 143 747 122 776 132 760 b 113 706 139 728 124 718 b 78 682 97 690 88 682 z m 1163 -287 b 1128 -218 1136 -267 1132 -242 b 1122 -136 1124 -190 1122 -162 b 1126 -68 1122 -112 1124 -90 b 1139 -40 1128 -57 1125 -43 l 1143 -40 b 1165 -57 1153 -40 1160 -50 b 1193 -129 1183 -78 1193 -104 l 1193 -135 b 1163 -287 1190 -185 1182 -233 z m 493 846 l 492 846 b 464 878 475 846 469 864 b 446 996 447 915 450 954 b 451 1060 447 1015 449 1038 b 465 1086 453 1071 450 1085 l 469 1086 b 492 1069 479 1086 486 1078 b 521 949 513 1031 521 990 b 518 907 521 935 519 921 b 511 879 517 897 514 889 b 493 846 507 867 511 846 z m 686 -544 b 864 -387 776 -544 851 -478 b 889 -317 868 -364 872 -342 l 928 -415 b 1110 -531 964 -501 1036 -531 l 1139 -529 b 1338 -397 1228 -519 1292 -469 b 1432 -124 1390 -314 1417 -221 b 1435 -79 1433 -108 1435 -94 b 1419 26 1435 -44 1429 -8 b 1208 196 1397 101 1292 196 l 1207 196 b 986 128 1125 194 1049 190 b 981 146 982 135 981 140 l 983 158 b 1033 378 999 232 1010 306 b 1233 1108 1108 619 1168 864 b 1268 1250 1246 1156 1258 1203 l 1271 1272 b 1213 1336 1271 1308 1250 1332 b 1035 1346 1153 1343 1093 1346 b 910 1342 993 1346 951 1344 b 782 1244 847 1338 806 1301 b 750 1150 771 1215 763 1186 b 735 1186 743 1165 740 1176 b 519 1332 688 1271 624 1328 l 483 1332 b 267 1325 411 1332 339 1326 b -29 1101 132 1324 6 1233 b -50 940 -43 1047 -50 994 b -29 774 -50 885 -43 828 b 132 618 -10 693 44 633 b 271 603 178 610 224 604 l 328 603 b 618 668 428 603 528 610 l 629 665 b 625 643 628 658 628 650 b 489 94 581 460 538 276 b 367 -419 443 -76 406 -247 b 364 -450 364 -431 364 -440 b 438 -532 364 -492 388 -518 b 515 -543 463 -539 489 -543 z "},"&":{"ha":1067,"x_min":0,"x_max":0,"o":"m 703 157 b 669 119 696 139 690 126 b 703 157 672 143 679 156 z m 781 274 b 743 224 776 254 765 239 b 781 274 749 251 763 264 z m 561 -335 b 511 -400 544 -356 528 -378 b 507 -401 511 -400 508 -401 b 501 -400 504 -401 503 -400 b 493 -389 497 -397 493 -392 l 493 -387 b 540 -319 503 -360 521 -339 b 544 -318 542 -318 543 -318 b 550 -319 547 -318 549 -318 b 561 -335 554 -324 557 -328 z m 104 97 b 190 200 138 138 164 169 b 207 210 193 204 199 210 b 213 208 208 210 210 208 b 104 97 186 165 171 119 z m 244 -10 b 293 88 254 26 271 58 b 301 93 296 92 299 93 b 314 82 307 93 311 89 b 317 68 315 78 317 72 b 310 50 317 63 315 56 b 254 -15 292 28 272 7 b 244 -10 251 -14 247 -11 z m 210 1217 b 129 1114 193 1151 193 1151 b 210 1217 138 1151 154 1175 z m 672 678 b 590 560 654 633 625 596 b 672 678 593 608 621 649 z m 675 738 b 754 846 676 794 717 814 b 675 738 747 790 726 757 z m 664 1185 b 601 1138 640 1167 621 1151 b 586 1132 596 1135 590 1132 b 567 1142 578 1132 571 1136 b 564 1149 564 1144 564 1147 b 576 1169 564 1156 571 1164 b 622 1194 594 1188 606 1194 b 664 1185 633 1194 646 1192 z m 632 -469 b 686 -411 656 -426 667 -411 b 721 -418 696 -411 706 -414 b 667 -474 696 -461 689 -474 b 632 -469 658 -474 647 -472 z m 851 -419 b 775 -476 833 -460 808 -476 b 744 -472 765 -476 756 -475 b 808 -417 764 -429 772 -417 b 851 -419 819 -417 833 -418 z m 757 1088 b 769 1046 765 1068 769 1057 b 710 988 769 1029 754 1018 b 693 1032 699 1007 693 1021 b 757 1088 693 1051 711 1064 z m 346 -487 b 228 -542 313 -522 275 -542 l 222 -542 b 282 -475 244 -493 254 -475 b 346 -487 296 -475 317 -479 z m 719 872 b 715 913 717 889 715 901 b 778 985 715 944 729 956 b 788 939 783 965 788 950 b 719 872 788 914 769 901 z m 667 1069 b 632 1106 653 1083 643 1094 b 640 1119 635 1110 636 1117 b 675 1147 651 1129 663 1138 b 706 1165 690 1158 699 1165 b 738 1128 715 1165 722 1154 b 667 1069 715 1108 692 1090 z m 576 -461 b 546 -437 563 -457 553 -449 b 544 -433 546 -436 544 -436 b 588 -364 544 -418 572 -371 b 596 -362 590 -362 593 -362 b 629 -385 610 -362 618 -376 b 633 -394 632 -387 633 -390 b 632 -400 633 -396 633 -399 b 586 -457 617 -419 601 -437 b 576 -461 583 -460 579 -460 z m 338 -212 b 314 -172 322 -199 314 -186 b 328 -143 314 -162 318 -153 b 378 -85 344 -124 356 -101 b 400 -126 393 -106 400 -117 b 383 -156 400 -135 394 -142 b 338 -212 369 -175 354 -193 z m 113 -511 b 153 -462 129 -492 140 -476 b 186 -435 168 -444 176 -435 b 222 -460 194 -435 204 -443 b 200 -497 221 -476 208 -486 b 163 -532 183 -521 176 -532 b 113 -511 153 -532 139 -525 z m 206 344 b 226 293 219 319 226 306 b 189 249 226 279 215 271 b 158 225 179 240 169 232 b 153 224 157 224 154 224 b 136 269 143 246 136 258 b 168 311 136 282 146 290 z m 119 46 b 22 -96 101 -46 101 -46 b 119 46 22 -26 57 15 z m 60 946 l 60 957 b 160 1083 60 1026 113 1051 b 161 1056 160 1072 161 1063 b 60 946 161 1011 146 1010 z m 119 325 b 106 378 111 349 106 364 b 176 451 106 404 125 419 b 193 400 188 429 193 414 b 119 325 193 376 172 361 z m -3 -256 b -8 -219 -6 -243 -8 -231 b 85 -108 -8 -175 21 -140 b 88 -132 86 -117 88 -125 b -3 -256 88 -190 36 -218 z m 294 -119 b 267 -71 276 -94 267 -82 b 292 -29 267 -60 275 -49 b 336 18 304 -12 317 7 b 360 -33 351 -8 360 -21 b 335 -75 360 -44 351 -54 b 294 -119 322 -90 313 -108 z m 92 440 b 78 494 83 463 78 481 b 158 568 78 524 100 540 b 172 521 165 547 172 533 b 92 440 172 500 154 483 z m 72 561 b 64 613 67 583 64 599 b 140 692 64 642 82 654 b 154 639 149 668 154 651 b 72 561 154 614 133 600 z m 49 811 b 44 840 46 822 44 832 b 136 954 44 900 96 922 b 144 910 140 935 144 922 b 49 811 144 882 124 867 z m 78 -240 b 93 -296 88 -265 93 -282 b 19 -381 93 -322 74 -339 b -3 -326 6 -353 -3 -339 b 32 -276 -3 -311 8 -300 b 68 -242 43 -265 56 -253 b 78 -240 69 -240 75 -240 z m 58 682 b 53 729 56 701 53 717 b 132 824 53 767 71 782 b 143 774 139 801 143 786 b 58 682 143 744 121 729 z m 338 -343 b 431 -167 372 -286 358 -204 b 454 -206 446 -187 454 -196 b 438 -235 454 -212 449 -221 b 338 -343 407 -274 382 -317 z m 114 -349 b 146 -403 135 -376 146 -390 b 113 -453 146 -417 135 -428 l 83 -486 b 68 -479 76 -483 71 -482 b 38 -436 47 -457 38 -446 b 65 -393 38 -425 47 -414 b 114 -349 79 -378 90 -361 z m 231 -87 b 263 -154 242 -111 253 -132 b 318 -256 279 -189 292 -225 b 326 -275 324 -262 326 -269 b 321 -292 326 -281 325 -286 b 276 -331 308 -308 299 -331 l 275 -331 b 238 -294 257 -331 249 -310 b 211 -186 222 -272 211 -231 b 231 -87 211 -151 218 -117 z m 533 564 b 511 679 514 606 515 643 b 501 840 506 733 501 786 b 526 1053 501 911 508 982 b 558 1101 535 1086 544 1101 b 601 1079 569 1101 582 1094 b 678 919 656 1038 678 981 b 674 872 678 904 676 889 b 533 564 653 761 596 664 z m 649 174 b 594 300 628 222 614 263 b 583 340 588 315 583 328 b 615 397 583 360 594 378 b 879 785 733 506 814 639 b 915 954 904 842 915 897 b 875 1150 915 1019 900 1085 b 683 1322 842 1238 781 1299 b 507 1342 625 1336 565 1342 b 332 1322 449 1342 390 1336 b 200 1263 285 1313 239 1292 b 33 1008 117 1196 61 1111 b 10 815 15 944 10 881 b 15 690 10 774 13 732 b 114 208 29 526 58 364 b 118 185 117 200 118 192 b 101 150 118 172 113 161 b 17 18 61 114 36 67 b -43 -253 -17 -72 -43 -161 b -15 -412 -43 -306 -35 -358 b 221 -578 17 -508 117 -578 b 369 -519 272 -578 325 -561 b 464 -422 403 -489 432 -457 b 521 -468 485 -437 506 -451 b 644 -512 556 -504 599 -512 b 818 -508 703 -512 761 -508 b 965 -412 889 -508 933 -469 b 983 -354 978 -392 983 -372 b 935 -276 983 -325 967 -300 b 756 -64 856 -221 803 -144 b 744 -32 749 -53 744 -42 b 761 7 744 -19 751 -7 b 854 142 793 51 824 96 b 919 239 876 174 900 206 b 935 288 931 256 935 272 b 869 351 935 318 913 342 b 843 354 860 354 851 354 b 747 300 803 354 774 331 b 649 174 714 263 685 221 z "},"'":{"ha":558,"x_min":0,"x_max":0,"o":"m 40 1189 b 38 1210 39 1197 38 1204 b 88 1268 38 1243 58 1257 b 90 1251 89 1261 90 1256 b 40 1189 90 1222 60 1211 z m 226 668 b 117 618 204 617 163 624 b 197 672 140 653 164 672 b 226 668 207 672 217 671 z m 42 1089 b 36 1115 38 1099 36 1107 b 86 1176 36 1144 60 1161 b 97 1138 93 1160 97 1147 b 42 1089 97 1119 82 1111 z m 24 733 b 22 753 22 740 22 747 b 78 828 22 789 39 815 b 83 792 81 813 83 800 b 24 733 83 767 69 757 z m 39 857 b 35 882 36 867 35 874 b 85 957 35 917 58 936 b 94 911 90 936 94 922 b 39 857 94 890 79 881 z m 44 974 b 40 1013 42 990 40 1003 b 96 1068 40 1038 53 1046 b 100 1046 99 1060 100 1053 b 44 974 100 1011 71 994 z m 256 629 b 351 683 283 665 313 683 b 376 681 360 683 368 682 b 283 626 354 643 324 626 b 256 629 275 626 265 628 z m 78 717 b 115 675 93 707 104 693 b 64 632 97 661 81 647 b 44 622 57 626 50 622 b 25 632 38 622 32 626 b 15 654 19 640 15 647 b 26 676 15 663 19 669 b 78 717 42 692 57 708 z m 476 1110 b 468 1260 476 1165 475 1214 b 388 1332 460 1315 442 1331 l 351 1332 b 158 1324 286 1332 222 1328 b 61 1299 124 1322 92 1311 b -1 1218 26 1283 4 1257 b -4 1158 -3 1199 -4 1179 b -3 1122 -4 1147 -4 1135 b 3 1001 1 1082 3 1042 b -14 764 3 922 -4 843 b -21 683 -18 736 -21 710 b -19 653 -21 672 -21 663 b 38 586 -17 613 0 594 b 71 582 49 583 60 582 l 82 582 b 300 593 154 585 228 588 b 463 756 371 597 463 686 b 476 1024 464 850 476 944 z "},"(":{"ha":717,"x_min":0,"x_max":0,"o":"m 190 1211 b 250 1278 201 1244 214 1265 b 190 1211 238 1246 226 1222 z m 181 1156 b 117 1067 171 1094 171 1094 b 181 1156 124 1108 138 1139 z m 64 932 b 136 1026 72 975 83 1015 b 64 932 136 963 121 936 z m 519 -458 b 431 -514 500 -507 467 -514 b 389 -512 417 -514 403 -512 b 464 -451 411 -468 426 -451 b 519 -458 478 -451 496 -454 z m 26 765 b 101 892 26 853 33 865 b 104 856 103 878 104 867 b 26 765 104 811 88 799 z m 238 -499 b 326 -440 260 -457 290 -440 b 374 -447 342 -440 357 -443 b 288 -512 349 -494 318 -512 b 238 -499 271 -512 254 -508 z m 189 -242 b 213 -301 204 -271 213 -287 b 151 -361 213 -322 194 -333 b 125 -306 135 -336 125 -319 b 189 -242 125 -285 144 -271 z m 7 618 b 4 656 4 632 4 644 b 81 743 4 700 24 724 b 83 699 82 725 83 710 b 7 618 83 656 69 646 z m 232 -356 b 261 -406 247 -381 261 -393 b 193 -478 261 -421 243 -439 b 168 -422 176 -456 168 -437 b 232 -356 168 -397 189 -379 z m 69 458 b 81 393 76 429 81 408 b 7 313 81 363 63 350 b -4 364 0 332 -4 349 b 69 458 -4 399 18 424 z m 7 467 b -4 524 0 489 -4 507 b 72 603 -4 557 15 581 b 79 550 76 581 79 564 b 7 467 79 508 58 499 z m 7 156 b -6 225 0 185 -6 207 b 76 308 -6 256 13 275 b 88 264 83 292 88 276 b 7 156 88 218 50 186 z m 144 -112 b 172 -186 163 -149 172 -169 b 108 -253 172 -208 153 -221 b 75 -179 86 -217 75 -196 b 144 -112 75 -157 97 -143 z m 111 25 b 129 -50 122 -10 129 -33 b 63 -121 129 -78 111 -90 b 35 -54 44 -90 35 -71 b 111 25 35 -29 57 -11 z m 26 11 b 11 81 17 42 11 63 b 85 168 11 114 32 132 b 104 89 96 128 104 106 b 26 11 104 64 85 54 z m -36 415 b -40 328 -37 379 -39 354 l -40 290 b 3 -79 -40 165 -28 42 b 146 -474 39 -215 103 -340 b 236 -543 160 -518 189 -542 b 400 -549 290 -546 346 -549 b 507 -546 436 -549 471 -547 b 568 -521 529 -544 550 -535 b 631 -401 610 -490 631 -449 b 614 -328 631 -378 625 -353 b 497 11 564 -218 524 -106 b 453 456 464 158 453 307 b 458 649 453 521 456 585 b 578 1142 465 819 500 986 b 625 1225 592 1169 611 1196 b 635 1263 632 1238 635 1250 b 572 1322 635 1293 613 1317 b 400 1333 515 1331 458 1333 b 303 1331 368 1333 335 1332 b 156 1235 238 1326 185 1299 b 128 1181 147 1217 138 1199 b -6 818 64 1067 22 944 b -40 515 -28 718 -40 615 b -36 415 -40 482 -39 449 z "},")":{"ha":465,"x_min":0,"x_max":0,"o":"m 138 -67 b 193 17 146 1 146 1 b 194 -7 193 7 194 0 b 138 -67 194 -46 182 -56 z m 226 154 l 226 133 b 168 56 226 72 218 65 b 164 97 165 72 164 86 b 226 154 164 129 178 138 z m 164 -110 b 76 -218 150 -160 142 -207 b 164 -110 90 -171 97 -122 z m 17 1178 b 78 1283 19 1229 38 1261 b 94 1235 88 1261 94 1247 b 17 1178 94 1214 74 1204 z m 239 279 b 242 233 240 260 242 244 b 181 183 242 199 229 196 b 175 228 178 203 175 218 b 239 279 175 257 190 263 z m 58 1088 b 42 1128 53 1101 42 1115 b 46 1140 42 1132 43 1136 b 110 1185 61 1161 86 1174 b 114 1186 111 1185 113 1186 b 128 1168 121 1186 125 1175 b 136 1144 131 1161 136 1153 b 126 1129 136 1139 133 1135 b 58 1088 104 1115 83 1103 z m 178 429 b 168 479 172 453 168 468 b 238 531 168 503 185 510 b 251 490 246 515 251 501 b 178 429 251 467 229 451 z m 203 889 b 218 835 213 863 218 847 b 146 776 218 813 199 804 b 129 821 135 794 129 808 b 203 889 129 844 151 863 z m 114 878 b 100 931 106 903 100 918 b 178 986 100 954 121 963 b 193 944 188 965 193 954 b 158 908 193 932 182 925 b 114 878 144 899 131 890 z m 221 772 b 231 714 226 744 231 726 b 160 663 231 689 214 686 b 147 708 151 682 147 696 b 221 772 147 738 172 750 z m 4 -456 b 96 -411 36 -442 61 -411 b 138 -426 108 -411 122 -415 b 68 -487 114 -467 93 -487 b 4 -456 49 -487 29 -476 z m 233 649 b 243 599 239 626 243 611 b 169 543 243 574 225 567 b 157 592 161 563 157 579 b 233 649 157 621 179 635 z m 178 303 b 175 349 176 322 175 338 b 244 415 175 388 188 393 b 251 363 249 393 251 375 b 178 303 251 329 233 321 z m 146 1096 b 163 1061 157 1086 158 1072 b 167 1042 165 1054 167 1047 b 143 1013 167 1029 158 1019 b 118 1000 135 1010 126 1003 b 93 986 110 997 101 986 b 81 993 89 986 85 989 b 71 1026 74 1001 71 1014 b 81 1054 71 1039 74 1050 b 146 1096 100 1071 121 1086 z m 110 -251 b 76 -362 100 -293 86 -328 b 3 -404 69 -392 32 -396 b 110 -251 26 -347 31 -278 z m 378 396 b 379 450 378 414 379 432 b 357 763 379 563 368 663 b 219 1288 338 946 290 1119 b 178 1331 211 1307 197 1322 b 140 1336 167 1335 154 1336 b 22 1288 99 1336 49 1318 b -18 1197 -1 1260 -18 1231 b -4 1144 -18 1181 -14 1163 b 17 1092 6 1128 11 1110 b 81 853 39 1013 61 933 b 113 694 94 801 108 749 b 139 364 119 585 132 475 b 142 278 140 335 142 306 b 49 -183 142 118 117 -36 b -29 -376 19 -246 -4 -311 b -42 -432 -36 -394 -42 -414 b -25 -483 -42 -450 -37 -467 b 61 -524 -6 -510 28 -524 b 135 -494 89 -524 115 -514 b 218 -353 175 -454 213 -414 b 236 -300 219 -335 229 -317 b 379 333 318 -90 379 122 b 378 396 379 354 379 375 z "},"*":{"ha":689,"x_min":0,"x_max":0,"o":"m 236 1244 b 231 1263 232 1253 231 1258 b 235 1276 231 1268 232 1272 b 251 1286 240 1281 246 1286 b 258 1283 254 1286 256 1285 b 264 1275 263 1281 264 1278 b 256 1261 264 1269 260 1265 b 236 1244 250 1256 244 1251 z m 400 740 b 406 810 401 765 404 786 b 435 779 425 794 435 788 b 400 740 435 769 424 760 z m 19 1144 b 3 1167 11 1150 3 1157 b 6 1176 3 1169 4 1174 b 64 1236 21 1200 42 1218 b 71 1239 65 1238 68 1239 b 78 1235 74 1239 76 1238 b 90 1211 83 1228 90 1219 b 89 1206 90 1210 90 1207 b 25 1144 72 1181 49 1163 z m 267 829 b 268 815 268 824 268 819 b 192 699 268 760 217 739 b 267 829 193 756 239 788 z m 21 658 b 71 724 35 686 54 703 b 85 732 75 729 81 732 b 103 721 90 732 97 726 b 111 708 108 717 111 713 b 101 693 111 703 107 697 b 46 653 85 678 72 653 b 21 658 39 653 31 654 z m 279 736 b 282 707 281 725 282 715 b 233 635 282 665 264 639 b 213 640 226 635 219 636 b 211 649 211 642 211 644 b 213 654 211 650 211 653 b 279 736 231 683 250 711 z m 128 993 b 104 1031 111 1013 104 1022 b 122 1057 104 1038 110 1044 b 150 1085 131 1067 140 1076 b 167 1094 156 1090 161 1094 b 178 1088 169 1094 174 1093 b 190 1065 183 1081 190 1074 b 185 1054 190 1063 189 1058 b 128 993 167 1035 149 1015 z m 446 650 b 413 668 432 653 419 657 b 411 676 411 671 411 674 b 418 693 411 683 415 688 b 450 732 429 707 439 719 b 469 746 456 740 461 746 b 486 736 474 746 479 743 b 500 714 494 729 500 721 b 490 696 500 708 497 703 b 446 650 475 681 469 657 z m 46 1100 b 56 1119 46 1108 50 1114 b 96 1157 68 1132 82 1144 b 115 1171 103 1163 108 1171 b 128 1164 119 1171 124 1169 b 143 1136 136 1154 143 1146 b 132 1117 143 1131 140 1124 b 96 1082 118 1106 108 1093 b 76 1067 89 1076 85 1067 b 68 1069 74 1067 71 1068 b 46 1100 57 1076 51 1089 z m -1 704 b -3 717 -3 708 -3 713 b 13 757 -3 732 6 743 b 65 836 29 783 47 810 b 161 972 96 882 136 921 b 206 1022 171 992 190 1006 b 214 1025 208 1025 211 1025 b 221 1024 217 1025 219 1025 b 226 1015 225 1022 226 1018 b 225 1010 226 1014 225 1011 b 222 1004 225 1007 224 1006 b 14 714 151 908 93 803 b -1 704 10 710 4 707 z m 324 692 b 371 653 343 676 358 665 b 458 611 397 626 426 611 b 556 665 490 611 524 626 b 579 697 564 675 572 686 b 606 765 597 724 606 744 b 569 838 606 788 594 810 b 432 986 524 888 479 938 b 417 1015 422 996 417 1006 b 431 1042 417 1024 421 1032 b 544 1167 469 1082 507 1125 b 589 1217 560 1183 575 1199 b 606 1261 600 1232 606 1247 b 575 1315 606 1281 594 1299 b 528 1333 561 1328 544 1333 b 468 1308 508 1333 488 1325 b 401 1243 446 1289 425 1267 b 325 1338 389 1311 371 1338 b 281 1332 313 1338 297 1336 b 214 1307 257 1328 233 1322 b 199 1300 208 1303 204 1300 b 183 1304 193 1300 189 1301 b 115 1319 160 1314 138 1319 b 0 1267 75 1319 36 1301 b -39 1190 -26 1240 -39 1217 b -17 1126 -39 1171 -32 1150 b 78 993 14 1081 46 1038 b 103 950 96 969 103 958 b 78 914 103 940 93 933 b -18 775 44 868 10 825 b -40 704 -31 753 -40 731 l -40 696 b 18 619 -36 658 -15 635 b 46 613 28 615 38 613 b 99 639 65 613 82 624 b 150 683 115 651 125 674 b 219 599 157 640 169 603 l 228 599 b 324 692 283 599 306 639 z "},"+":{"ha":999,"x_min":0,"x_max":0,"o":"m 606 -10 b 650 31 613 7 625 18 b 606 -10 640 3 625 -6 z m 699 356 b 696 374 697 363 696 369 b 714 392 696 385 700 390 b 724 389 718 392 724 390 b 725 382 724 386 725 385 b 699 356 725 369 713 363 z m 319 856 b 246 778 308 803 275 793 b 319 856 251 815 278 835 z m 74 485 b 75 467 75 478 75 472 b 8 397 75 425 35 421 b 74 485 8 458 13 463 z m 750 346 b 829 403 772 379 796 403 b 853 399 836 403 844 401 b 790 342 828 354 819 342 b 750 346 779 342 767 343 z m 569 24 b 490 -33 546 -8 522 -33 b 461 -28 481 -33 471 -32 b 528 26 478 14 489 26 b 569 24 540 26 553 25 z m 442 26 b 376 -33 404 -22 397 -33 b 338 -29 367 -33 356 -32 b 408 32 361 15 381 32 b 442 26 418 32 429 31 z m 29 354 b 107 413 65 396 83 413 b 151 399 119 413 133 407 b 67 344 126 374 103 344 b 29 354 56 344 43 347 z m 271 -24 b 244 -10 258 -21 250 -17 b 240 0 242 -6 240 -3 b 249 15 240 6 244 11 b 294 65 263 32 279 49 b 313 76 300 71 307 76 b 329 65 318 76 324 74 b 342 43 336 57 342 50 b 329 25 342 38 338 31 b 271 -24 307 10 293 -14 z m 233 658 b 229 689 231 671 229 681 b 308 763 229 717 247 732 b 317 728 313 749 317 738 b 233 658 317 708 300 693 z m 164 347 b 258 406 190 383 219 406 b 299 399 271 406 283 403 b 239 336 289 368 260 354 b 226 332 235 333 231 332 b 176 351 210 332 194 351 b 164 347 172 351 168 350 z m 235 56 b 229 93 231 69 229 82 b 296 199 229 142 265 168 b 308 156 306 182 308 168 b 235 56 308 114 264 92 z m 308 654 b 311 606 310 635 311 618 b 239 540 311 563 297 557 b 231 585 235 560 231 574 b 308 654 231 613 250 625 z m 229 185 b 218 238 222 206 218 224 b 296 329 218 269 238 292 b 303 293 301 315 303 304 b 229 185 303 246 261 219 z m 711 767 b 710 810 711 781 711 796 b 647 885 707 857 692 874 b 494 901 597 897 546 901 b 335 890 442 901 389 897 b 194 753 253 882 211 831 b 189 688 190 731 189 710 b 193 601 189 658 192 631 b 194 574 193 590 194 581 b 136 538 194 539 185 538 b 19 504 93 538 54 525 b -35 406 -14 483 -35 443 b -33 388 -35 400 -35 393 b 63 310 -25 342 10 314 b 140 306 89 307 114 306 b 181 265 178 304 178 304 b 197 13 186 181 193 97 b 257 -58 200 -28 222 -47 b 329 -69 281 -65 304 -69 b 504 -68 388 -68 446 -68 b 582 -61 529 -68 556 -67 b 708 93 663 -42 708 15 b 707 117 708 101 708 108 b 697 213 704 149 700 181 b 693 260 696 233 693 249 b 774 303 693 297 710 299 b 919 436 864 310 908 349 b 921 458 921 444 921 451 b 842 532 921 508 894 532 l 826 532 b 738 525 797 529 767 528 l 731 525 b 704 557 711 525 704 536 b 711 767 706 599 711 738 z "},",":{"ha":594,"x_min":0,"x_max":0,"o":"m 47 -74 b -7 -135 38 -96 21 -112 b 47 -74 1 -94 22 -82 z m 26 -676 l 26 -661 b 90 -583 26 -604 35 -597 b 26 -676 81 -621 53 -640 z m 306 -525 b 365 -458 321 -494 342 -476 b 368 -489 367 -471 368 -481 b 325 -526 368 -517 357 -526 b 306 -525 319 -526 313 -525 z m 411 -656 b 311 -717 382 -697 351 -717 l 300 -717 b 411 -656 317 -662 358 -656 z m 188 -431 b 129 -475 163 -465 156 -475 b 82 -471 117 -475 103 -474 b 135 -422 104 -435 111 -422 b 188 -431 147 -422 164 -426 z m 71 -119 b 75 -146 74 -129 75 -137 b -1 -237 75 -193 19 -204 b -4 -217 -3 -229 -4 -222 b 71 -119 -4 -169 44 -151 z m 49 -715 b 69 -682 51 -701 61 -693 b 104 -651 86 -661 94 -651 b 146 -669 114 -651 125 -657 b 88 -729 119 -712 106 -729 b 49 -715 78 -729 65 -724 z m 161 -724 b 244 -661 183 -685 208 -661 b 276 -667 254 -661 265 -662 b 211 -729 251 -715 243 -729 b 161 -724 199 -729 183 -726 z m 207 -478 b 271 -424 232 -437 243 -424 b 328 -432 285 -424 303 -428 b 263 -483 301 -471 293 -483 b 207 -478 250 -483 232 -481 z m 78 -224 b 79 -250 79 -235 79 -243 b 0 -354 79 -286 65 -300 b -6 -322 -3 -342 -6 -332 b 78 -224 -6 -290 17 -268 z m 78 -336 b 93 -382 83 -353 93 -368 b 89 -396 93 -386 92 -392 b 28 -460 75 -422 51 -442 b 22 -461 26 -461 25 -461 b 8 -453 18 -461 13 -457 b 0 -428 3 -444 0 -436 b 6 -411 0 -422 1 -417 b 21 -394 10 -406 15 -400 b 78 -336 39 -375 53 -353 z m 246 -525 b 174 -535 222 -533 197 -535 l 138 -535 b 40 -560 104 -535 71 -542 b -17 -661 4 -579 -17 -618 b -12 -696 -17 -672 -15 -685 b 83 -765 -4 -736 31 -765 l 150 -765 b 331 -753 210 -765 271 -764 b 422 -703 367 -746 399 -732 b 507 -487 472 -640 506 -569 b 510 -106 510 -361 510 -233 b 419 -14 510 -37 489 -17 b 322 -11 388 -12 354 -11 b 150 -15 264 -11 207 -14 b 33 -33 111 -18 71 -21 b -42 -124 -8 -49 -39 -78 b -46 -253 -44 -167 -46 -210 b -37 -425 -46 -311 -43 -368 b 44 -510 -32 -479 -8 -500 b 83 -514 57 -511 71 -514 b 100 -512 89 -514 94 -514 b 128 -511 110 -511 119 -511 b 246 -525 168 -511 207 -519 z "},"-":{"ha":999,"x_min":0,"x_max":0,"o":"m 558 343 b 535 349 551 343 543 344 b 583 392 554 382 563 392 b 615 388 592 392 601 390 b 558 343 600 365 585 343 z m 761 353 b 831 403 779 381 797 403 b 847 401 835 403 842 403 b 761 353 828 361 817 354 z m 321 342 b 290 347 311 342 301 344 b 371 403 317 371 336 403 b 399 397 379 403 389 401 b 321 342 378 371 358 342 z m 681 339 b 642 344 671 339 658 342 b 704 393 668 385 675 393 l 728 392 b 681 339 713 351 706 339 z m 453 347 b 418 351 444 347 433 349 b 475 399 446 389 454 399 l 504 396 b 453 347 483 358 475 347 z m 92 346 b 42 354 79 346 64 349 b 108 414 76 397 90 414 b 151 400 119 414 132 408 b 92 346 124 360 114 346 z m 207 342 b 165 347 196 342 182 344 b 249 408 188 383 213 408 b 279 403 258 408 268 406 b 207 342 258 360 242 342 z m 8 385 b 3 428 4 403 3 417 b 61 490 3 460 18 471 b 71 454 67 474 71 463 b 8 385 71 435 56 422 z m 661 301 b 775 313 699 301 738 307 b 910 431 846 322 890 364 b 915 465 914 443 915 454 b 838 533 915 507 886 533 l 828 533 b 722 526 793 532 757 526 l 685 526 b 144 543 504 526 324 535 l 135 543 b 7 504 88 543 44 533 b -37 418 -25 482 -37 451 b -35 385 -37 407 -37 396 b 53 313 -24 336 -6 322 b 153 304 86 307 119 304 l 219 303 b 492 307 310 303 401 307 b 636 303 540 307 588 306 z "},".":{"ha":581,"x_min":0,"x_max":0,"o":"m 346 -483 b 406 -418 372 -431 378 -418 l 435 -421 b 346 -483 421 -460 393 -478 z m 168 -486 l 140 -483 b 193 -424 157 -437 167 -424 b 219 -426 200 -424 208 -424 b 168 -486 199 -475 193 -486 z m 17 -153 b 10 -112 13 -137 10 -124 b 82 -51 10 -75 33 -56 b 17 -153 76 -96 39 -118 z m 276 -482 b 242 -479 267 -482 256 -481 b 297 -422 263 -432 268 -422 l 325 -424 b 276 -482 310 -469 304 -482 z m 10 -285 b 6 -258 7 -275 6 -267 b 74 -143 6 -210 44 -182 b 79 -176 78 -156 79 -167 b 10 -285 79 -226 40 -250 z m 71 -481 b 36 -472 63 -481 51 -478 b 92 -383 49 -440 71 -417 b 125 -419 100 -400 125 -403 b 118 -437 125 -424 122 -431 b 71 -481 100 -468 89 -481 z m 18 -432 b 7 -379 11 -411 7 -394 b 78 -275 7 -346 26 -321 b 83 -307 82 -286 83 -297 b 18 -432 83 -358 36 -386 z m 163 -522 b 338 -518 221 -522 279 -519 b 497 -354 425 -517 497 -439 b 493 -318 497 -342 496 -331 b 482 -224 485 -286 482 -256 b 481 -94 482 -181 482 -137 b 400 -10 478 -36 457 -15 l 347 -7 b 243 -10 313 -7 278 -10 l 97 -10 b -31 -126 14 -12 -24 -44 b -36 -276 -35 -176 -36 -226 b -31 -412 -36 -322 -35 -368 b 90 -521 -21 -504 -4 -519 z "},"/":{"ha":947,"x_min":0,"x_max":0,"o":"m 313 -492 b 293 -490 307 -492 300 -492 b 357 -433 326 -447 339 -433 b 390 -442 365 -433 376 -436 b 313 -492 369 -469 349 -492 z m 411 1190 b 486 1301 426 1236 433 1279 b 411 1190 483 1246 471 1207 z m 129 74 l 126 99 b 193 194 126 146 154 172 l 196 172 b 129 74 196 128 165 103 z m 157 219 l 156 239 b 228 342 156 289 172 310 b 157 219 228 286 210 243 z m 367 1038 b 450 1158 371 1097 393 1138 l 451 1144 b 367 1038 451 1090 411 1064 z m 44 -258 b 122 -129 47 -200 64 -156 l 124 -146 b 44 -258 124 -199 93 -232 z m 207 -490 b 156 -485 194 -490 178 -487 b 246 -428 181 -446 210 -428 b 276 -432 256 -428 265 -429 b 207 -490 257 -475 244 -490 z m 82 -99 b 167 47 85 -39 108 8 b 82 -99 156 -17 151 -75 z m 65 -492 b 15 -479 53 -492 38 -486 b 72 -414 28 -451 53 -433 b 88 -407 78 -408 82 -407 b 101 -412 92 -407 97 -408 b 143 -435 114 -421 126 -426 b 65 -492 104 -476 89 -492 z m 272 707 b 367 857 283 776 306 829 b 272 707 365 771 351 760 z m 314 874 b 414 1019 321 939 356 983 b 314 874 399 921 399 921 z m 233 544 l 233 551 b 322 689 233 619 271 660 l 324 669 b 233 544 324 613 300 581 z m 192 374 b 279 518 194 471 210 490 b 192 374 267 457 258 399 z m 1 -422 b 0 -408 1 -418 0 -412 b 107 -267 0 -358 36 -306 b 1 -422 89 -317 76 -387 z m 303 -531 b 435 -439 365 -531 406 -494 b 499 -242 467 -376 492 -311 b 543 -10 501 -181 521 -94 b 631 374 578 117 592 247 b 861 1229 717 656 789 943 b 865 1264 864 1242 865 1254 b 792 1328 865 1304 842 1325 b 539 1339 707 1333 624 1336 l 519 1339 b 390 1242 447 1339 418 1315 b 375 1200 385 1228 379 1214 b 244 753 331 1051 281 904 b 122 269 206 592 154 432 b 4 -250 88 94 49 -79 b -39 -419 -12 -315 -36 -379 l -42 -449 b 46 -525 -42 -499 -14 -522 l 249 -528 b 282 -529 260 -528 271 -528 z "},":":{"ha":581,"x_min":0,"x_max":0,"o":"m 364 -199 l 360 -199 b 449 -135 383 -139 386 -136 b 364 -199 428 -174 406 -199 z m 288 -200 b 251 -196 278 -200 267 -199 b 300 -142 271 -154 276 -142 b 335 -146 308 -142 319 -143 b 288 -200 315 -187 310 -200 z m 18 122 l 15 151 b 56 226 15 186 26 210 b 69 231 60 229 64 231 b 81 225 72 231 76 229 b 83 217 83 222 83 219 b 81 204 83 213 82 208 b 18 122 68 175 46 154 z m 171 -207 l 147 -206 b 201 -143 163 -158 172 -143 b 228 -146 208 -143 218 -144 b 171 -207 204 -197 201 -207 z m 17 1 b 13 25 14 10 13 18 b 72 131 13 69 51 94 b 83 85 79 113 83 97 b 17 1 83 58 65 40 z m 82 -200 b 44 -192 72 -200 61 -197 b 81 -131 51 -168 68 -150 b 100 -114 88 -121 92 -114 b 115 -121 104 -114 110 -117 b 131 -143 125 -129 131 -135 b 122 -162 131 -149 128 -154 b 82 -200 104 -190 97 -200 z m 22 -150 b 13 -107 15 -135 13 -121 b 76 1 13 -62 49 -33 b 85 -36 82 -12 85 -25 b 22 -150 85 -82 44 -111 z m 136 -242 b 296 -237 189 -242 243 -237 l 353 -239 b 500 -74 443 -239 500 -150 b 497 -42 500 -62 500 -51 b 486 58 489 -8 486 25 b 482 193 485 103 486 149 b 400 272 479 249 457 269 l 350 274 l 249 272 l 249 274 l 108 274 b -22 151 24 271 -17 236 b -29 3 -26 101 -29 53 b -22 -124 -29 -39 -26 -82 b 108 -242 -12 -215 -17 -236 z m 406 613 b 433 639 411 632 411 632 b 406 613 424 626 418 619 z m 19 915 b 17 944 18 926 17 936 b 82 1000 17 983 36 997 b 19 915 74 963 40 947 z m 310 589 l 268 593 b 331 644 281 626 301 644 b 353 642 338 644 344 643 b 310 589 343 601 339 589 z m 181 585 b 149 590 171 585 160 588 b 203 643 168 631 175 643 l 243 639 b 181 585 231 600 208 585 z m 68 588 b 31 593 58 588 46 589 b 93 679 47 626 68 651 b 128 643 103 664 128 661 b 124 629 128 639 126 635 b 68 588 108 600 93 588 z m 10 779 l 8 807 b 72 917 8 846 22 865 b 85 879 81 903 85 890 b 10 779 85 854 64 831 z m 13 642 b 6 681 7 657 6 669 b 78 794 6 732 50 756 b 83 758 82 782 83 769 b 13 642 83 707 43 681 z m 271 553 b 371 558 304 554 339 553 b 499 713 446 571 499 640 b 493 753 499 726 497 739 b 486 814 488 774 486 793 b 482 976 485 868 486 922 b 404 1053 479 1029 458 1049 b 304 1056 371 1056 338 1056 b 96 1047 235 1056 165 1051 b -26 921 14 1042 -21 1003 b -33 703 -31 849 -32 775 l -33 693 b -25 625 -33 669 -29 647 b 68 546 -14 571 14 547 z "},";":{"ha":594,"x_min":0,"x_max":0,"o":"m -3 156 b 50 213 -1 185 17 197 b -3 156 33 181 17 167 z m 29 -389 b 25 -357 26 -376 25 -365 b 97 -306 25 -322 46 -308 z m 328 -250 l 304 -249 b 374 -172 315 -211 343 -193 b 328 -250 369 -239 367 -250 z m 293 -440 b 378 -378 311 -399 336 -378 l 404 -381 b 293 -440 376 -424 342 -437 z m 115 -197 l 78 -196 b 133 -143 96 -157 106 -143 b 181 -149 146 -143 161 -144 b 115 -197 171 -190 144 -197 z m 197 -449 b 158 -442 185 -449 172 -446 b 243 -382 181 -408 204 -382 b 276 -387 254 -382 264 -383 b 197 -449 257 -428 232 -449 z m -10 36 l -11 54 b 69 167 -11 113 46 129 b 81 135 76 156 81 144 b 68 108 81 125 78 117 b -10 36 44 85 19 63 z m 83 -449 b 47 -439 75 -449 64 -444 l 47 -435 b 69 -397 47 -418 61 -408 b 103 -367 85 -376 93 -367 b 144 -392 111 -367 122 -375 b 83 -449 113 -433 101 -449 z m 261 -203 b 206 -196 247 -203 229 -200 b 282 -143 222 -153 250 -143 l 324 -147 b 261 -203 306 -187 294 -203 z m -8 -81 b -11 -56 -10 -72 -11 -64 b 74 64 -11 3 40 26 b 81 26 78 49 81 38 b -8 -81 81 0 60 -19 z m 18 -182 b 6 -174 14 -182 8 -178 b -4 -147 0 -165 -4 -156 b 3 -132 -4 -142 -3 -137 b 83 -49 26 -106 47 -75 b 93 -99 85 -68 93 -83 b 86 -118 93 -106 92 -111 b 24 -181 68 -142 46 -161 b 18 -182 22 -182 19 -182 z m 92 -487 b 315 -475 167 -487 242 -482 b 429 -411 361 -471 401 -450 b 506 -208 472 -350 500 -283 b 513 -101 508 -174 511 -137 l 514 85 l 513 179 b 428 265 513 240 489 260 b 340 268 399 268 369 268 b 124 261 268 268 196 263 b 51 251 100 261 75 257 b -46 135 -14 238 -44 201 l -46 61 l -44 -118 b -43 -140 -44 -126 -44 -133 b 53 -232 -35 -200 -7 -226 l 131 -232 b 243 -256 169 -233 208 -231 b 144 -254 210 -256 176 -256 b 56 -269 114 -254 85 -258 b -21 -381 6 -290 -21 -329 b -18 -411 -21 -390 -19 -400 b 92 -487 -10 -457 29 -487 z m 364 579 b 421 644 381 631 389 644 l 449 642 b 364 579 433 603 406 583 z m 186 576 b 151 582 178 576 167 579 b 204 640 175 629 182 640 l 232 638 b 186 576 213 590 207 576 z m 28 907 b 22 949 24 924 22 938 b 88 1013 22 985 42 1001 l 88 1008 b 28 907 88 963 49 943 z m 276 581 l 258 581 b 315 640 269 628 278 640 l 343 639 b 276 581 315 588 311 581 z m 31 783 b 21 819 24 796 21 807 b 85 907 21 847 40 872 b 90 879 89 897 90 888 b 31 783 90 839 54 814 z m 81 582 b 49 586 72 582 63 583 b 86 653 57 615 75 632 b 104 667 92 661 97 667 b 122 658 110 667 115 664 b 136 639 131 651 136 646 b 131 624 136 635 135 629 b 81 582 111 593 101 582 z m 31 636 b 19 685 24 654 19 671 b 85 779 19 715 39 740 b 90 747 89 768 90 757 b 31 636 90 703 53 674 z m 156 539 b 243 544 183 539 213 540 l 300 546 l 347 543 l 363 542 b 504 706 443 542 504 624 b 501 738 504 715 504 726 b 490 849 494 775 492 811 b 488 972 490 890 490 932 b 407 1053 483 1029 464 1051 l 250 1054 b 93 1051 197 1054 146 1054 b -15 951 28 1050 -8 1017 b -24 786 -19 897 -24 842 b -12 621 -24 731 -19 676 b 67 544 -4 564 10 551 b 156 539 96 540 125 539 z "},"<":{"ha":1143,"x_min":0,"x_max":0,"o":"m 806 -46 b 876 26 835 6 854 26 b 913 14 888 26 899 22 b 806 -46 886 -19 856 -43 z m 65 401 b 90 360 76 389 90 375 l 90 354 b 40 296 83 329 60 314 b 31 290 38 292 33 290 b 11 301 24 290 18 297 b -7 326 1 307 -7 315 b -3 339 -7 329 -6 335 b 65 401 11 368 33 390 z m 324 267 b 308 240 322 253 314 247 b 254 193 282 208 271 193 b 190 225 240 193 222 204 b 267 288 229 269 246 288 b 324 267 281 288 297 279 z m 224 304 b 188 276 207 292 197 285 b 133 240 161 251 149 240 b 75 271 119 240 104 250 b 144 332 104 314 119 332 b 224 304 163 332 186 322 z m 310 179 b 374 244 346 226 354 244 b 457 219 389 244 411 235 b 381 153 426 174 407 153 b 310 179 363 153 342 161 z m 701 103 b 681 79 692 93 686 86 b 618 31 650 46 635 31 b 550 68 603 31 585 43 b 586 103 557 85 574 93 b 640 136 613 125 625 136 b 701 103 654 136 669 125 z m 590 163 b 563 132 583 146 572 139 b 500 93 532 106 517 93 b 432 129 483 93 467 106 b 510 196 467 175 485 196 b 590 163 529 196 553 183 z m 825 44 b 804 21 817 35 811 28 b 743 -29 775 -14 761 -29 b 671 6 728 -29 708 -17 l 671 8 b 683 29 671 18 678 24 b 749 85 719 65 731 85 b 825 44 764 85 783 71 z m 444 363 b 581 456 494 397 538 428 b 1011 750 725 553 871 647 b 1058 815 1036 768 1058 786 b 1057 832 1058 821 1058 826 b 979 885 1047 872 1013 879 b 882 893 946 890 914 893 b 728 876 831 893 779 886 b 626 832 690 869 657 854 b 114 486 460 711 286 599 b -15 388 69 457 21 431 b -44 325 -35 364 -44 343 b 3 263 -44 303 -29 283 b 156 192 50 232 103 210 b 592 0 306 139 453 79 b 767 -76 647 -31 706 -57 b 810 -82 781 -81 796 -82 b 890 -57 838 -82 865 -74 b 974 26 922 -35 951 -7 b 996 85 988 47 996 67 b 929 156 996 117 972 142 b 840 186 900 164 869 175 b 614 299 761 218 693 269 b 444 363 561 319 510 346 z "},"=":{"ha":1003,"x_min":0,"x_max":0,"o":"m 558 176 b 626 217 579 201 600 217 b 656 211 635 217 644 215 b 600 171 643 181 624 171 b 558 176 588 171 574 174 z m 417 179 b 494 222 439 206 464 222 b 525 217 504 222 514 219 b 467 171 508 183 494 171 b 417 179 454 171 438 174 z m 63 271 l 13 229 b 1 258 4 240 1 249 b 10 283 1 267 4 275 b 58 318 22 300 38 314 l 63 318 b 74 306 71 318 74 313 l 74 301 b 63 271 74 290 71 279 z m 132 224 b 78 174 104 189 96 174 b 36 188 68 174 56 179 b 90 242 60 225 72 242 b 132 224 101 242 114 235 z m 389 215 b 319 171 371 186 349 171 b 283 178 308 171 296 174 b 343 225 311 213 322 225 b 389 215 354 225 368 221 z m 154 185 b 226 229 175 208 197 229 b 258 222 236 229 247 226 b 196 172 231 186 217 172 b 154 185 185 172 172 176 z m 792 217 b 724 167 765 175 760 167 b 683 168 713 167 700 167 b 765 218 700 207 729 218 b 792 217 774 218 783 218 z m 101 138 l 458 138 b 685 129 535 138 610 132 b 775 131 715 129 744 129 b 907 213 835 132 878 163 b 922 268 917 231 922 250 b 908 321 922 286 917 304 b 846 354 894 347 871 354 b 819 353 838 354 828 354 b 647 343 763 347 704 343 b 568 346 621 343 594 344 b 326 356 488 353 407 353 b 136 364 263 357 200 361 l 122 364 b 53 356 97 364 75 361 b -36 242 -4 339 -36 297 l -36 229 b 63 140 -31 165 -15 151 b 101 138 75 139 89 138 z m 15 546 b 14 572 14 556 14 564 b 76 638 14 607 28 619 b 78 625 76 633 78 629 b 15 546 78 585 38 572 z m 557 539 b 475 489 531 511 508 489 b 447 494 467 489 457 490 b 526 543 469 519 490 543 b 557 539 536 543 546 542 z m 150 549 b 72 500 124 532 106 500 b 46 506 64 500 56 501 b 101 564 63 546 76 564 b 150 549 114 564 129 558 z m 724 496 b 814 549 750 528 778 549 b 840 544 822 549 831 547 b 776 490 822 504 813 490 b 724 496 763 490 746 493 z m 574 494 b 665 542 601 525 629 542 b 700 538 676 542 688 540 b 615 490 679 501 650 490 b 574 494 603 490 589 492 z m 147 494 b 253 554 183 524 211 554 b 282 550 263 554 271 553 b 185 489 258 514 229 489 b 147 494 174 489 161 492 z m 292 494 b 390 551 319 529 350 551 b 426 546 401 551 414 550 b 340 490 400 506 382 490 b 292 494 326 490 311 492 z m 446 453 l 446 454 l 625 454 b 771 456 674 454 722 454 b 924 564 851 457 901 494 b 931 601 928 576 931 589 b 842 681 931 647 896 681 l 839 681 b 767 675 815 679 790 676 b 649 669 726 671 688 669 b 564 672 621 669 592 669 b 133 688 421 685 276 679 l 124 688 b -6 626 72 688 26 668 b -32 557 -22 606 -32 581 b 49 467 -32 515 -6 478 b 182 453 93 457 138 453 z "},">":{"ha":1142,"x_min":0,"x_max":0,"o":"m 819 257 b 883 282 835 275 854 282 b 826 257 865 263 846 257 z m 932 289 b 1001 328 944 325 971 319 b 932 289 981 300 960 293 z m 74 -10 b 68 19 69 0 68 10 b 118 82 68 50 88 75 b 124 83 119 82 122 83 b 132 78 126 83 131 82 b 135 67 135 74 135 69 b 133 57 135 63 135 60 b 124 43 131 51 128 47 b 74 -10 108 25 92 8 z m 106 -39 b 167 18 136 4 147 18 b 200 11 175 18 185 15 b 214 0 207 8 214 7 l 214 -1 b 206 -15 214 -7 210 -14 b 122 -40 179 -25 154 -40 b 106 -39 117 -40 111 -40 z m 7 718 b -3 753 1 731 -3 742 b 67 829 -3 781 19 804 b 71 803 69 819 71 811 b 7 718 71 763 32 744 z m 658 372 b 565 317 639 331 600 325 l 563 317 b 550 328 556 317 550 321 b 554 339 550 331 551 335 b 601 392 568 357 583 378 b 618 399 608 396 614 399 b 658 372 633 399 643 379 z m 346 464 b 311 485 331 468 319 475 b 307 494 308 488 307 492 b 318 514 307 501 314 508 b 356 554 331 528 343 542 b 371 563 361 560 367 563 b 400 546 382 563 390 553 b 408 533 406 542 408 538 b 396 514 408 526 401 519 l 363 476 b 346 464 357 471 351 467 z m 238 650 b 215 619 235 636 224 628 b 175 588 196 597 186 588 b 132 618 165 588 154 597 b 164 654 138 635 151 643 b 199 678 181 669 189 678 b 238 650 208 678 218 668 z m 497 478 b 465 440 485 464 475 451 b 429 410 449 421 439 410 b 386 440 419 410 408 421 b 411 476 388 456 400 465 b 447 510 428 494 435 510 b 497 478 458 510 472 501 z m 468 381 b 500 425 475 399 489 411 b 533 453 517 443 524 453 b 575 428 543 453 554 444 b 544 385 572 408 556 397 b 508 354 526 364 518 354 b 468 381 499 354 489 364 z m 329 585 b 269 519 329 578 278 519 b 219 553 249 524 232 536 b 215 561 217 556 215 558 b 233 585 215 571 228 578 b 253 606 239 592 246 599 b 286 618 263 614 274 618 b 326 594 301 618 318 611 b 329 585 328 592 328 588 z m 167 704 b 124 667 149 689 135 679 b 92 646 113 654 103 646 b 64 661 82 646 74 651 b 38 686 56 669 38 672 b 42 699 38 689 39 693 b 104 744 58 726 83 744 b 119 740 110 744 115 743 b 167 704 133 732 146 721 z m 517 290 b 372 217 464 268 419 239 b 190 147 314 190 258 156 b 64 90 144 142 100 121 b 25 15 39 71 25 44 b 36 -31 25 1 29 -15 b 115 -79 50 -61 78 -79 b 139 -76 122 -79 131 -78 b 176 -65 151 -74 165 -71 b 294 -14 217 -49 257 -35 b 922 243 494 96 703 181 b 1014 283 954 253 985 267 b 1064 383 1046 301 1064 343 b 1017 475 1064 419 1050 456 b 890 560 972 501 932 532 b 514 817 765 644 636 725 b 388 872 476 844 435 863 b 244 883 340 882 293 883 b 101 881 197 883 150 882 b -19 807 50 879 11 847 b -44 744 -36 785 -44 764 b -17 681 -44 724 -35 703 b 21 647 -6 668 8 657 b 375 397 140 564 254 476 b 517 290 422 365 472 335 z "},"?":{"ha":1003,"x_min":0,"x_max":0,"o":"m 347 1172 b 290 1131 324 1153 318 1131 l 283 1131 b 347 1172 296 1156 313 1167 z m 190 719 b 114 686 153 688 153 688 b 151 732 131 719 138 732 b 190 719 161 732 172 726 z m 325 325 b 399 431 340 363 340 410 b 325 325 376 386 372 342 z m 446 565 b 385 478 435 528 428 490 b 446 565 389 536 400 553 z m 272 183 b 338 292 278 232 285 274 b 339 274 339 286 339 279 b 272 183 339 232 315 204 z m 124 1146 b 25 985 104 1089 90 1029 b 124 1146 53 1050 78 1103 z m 456 769 b 454 786 456 775 454 781 b 511 882 454 831 471 863 b 515 844 514 867 515 854 b 456 769 515 814 501 800 z m 426 618 b 490 739 426 669 443 713 b 492 715 490 731 492 722 b 426 618 492 664 476 643 z m 586 81 b 528 28 563 40 556 28 b 472 35 514 28 497 31 b 540 86 503 74 514 86 b 586 81 551 86 567 83 z m 351 1125 b 413 1182 372 1146 392 1164 b 433 1189 419 1188 426 1189 b 450 1188 439 1189 444 1189 b 468 1172 461 1185 468 1179 b 460 1156 468 1167 465 1161 b 426 1125 450 1144 438 1135 b 396 1106 413 1113 404 1106 b 351 1125 386 1106 375 1113 z m 324 38 b 403 96 360 81 378 96 b 456 83 417 96 433 92 b 368 29 432 49 404 29 b 324 38 354 29 340 32 z m 269 54 b 257 94 261 71 257 83 b 318 161 257 117 274 132 b 336 115 329 139 336 126 b 269 54 336 97 318 85 z m 75 965 b 78 913 76 943 78 926 b 22 822 78 874 67 864 b 14 875 17 844 14 861 b 75 965 14 908 29 926 z m 454 1025 b 431 1069 439 1049 431 1060 b 454 1101 431 1079 439 1086 b 482 1128 463 1110 472 1119 b 504 1142 489 1135 496 1142 b 519 1133 510 1142 514 1140 b 532 1107 526 1125 532 1117 b 519 1085 532 1100 528 1092 b 454 1025 499 1067 479 1047 z m 471 907 b 464 956 467 926 464 943 b 538 1042 464 993 483 1011 b 540 1003 539 1026 540 1014 b 471 907 540 956 525 940 z m 89 832 b 114 776 107 811 114 793 b 64 692 114 744 88 718 b 32 747 43 714 32 729 b 89 832 32 768 50 792 z m 456 -11 b 558 -6 499 -8 528 -7 b 682 79 615 -1 657 28 b 711 181 697 110 710 143 b 753 342 714 238 731 290 b 886 751 801 457 861 600 b 922 996 900 833 911 915 b 925 1039 925 1010 925 1024 b 924 1081 925 1053 925 1067 b 707 1321 913 1200 815 1307 b 533 1332 649 1328 590 1332 b 399 1324 488 1332 443 1329 b 19 1061 228 1300 97 1221 b -24 881 -11 1000 -24 940 b 14 692 -24 817 -10 754 b 50 651 19 674 33 660 b 94 643 63 646 78 643 b 218 690 138 643 190 661 b 253 771 240 714 253 742 b 233 839 253 793 246 815 b 207 943 215 874 207 908 b 232 1056 207 981 217 1018 b 267 1089 238 1072 249 1083 b 293 1092 275 1092 285 1092 b 417 1001 349 1092 406 1054 b 431 897 424 968 431 933 b 429 868 431 888 431 878 b 382 608 418 781 407 693 b 268 299 346 494 307 382 b 219 92 239 233 224 163 l 219 81 b 300 -1 219 31 247 4 b 429 -12 344 -6 390 -12 b 456 -11 439 -12 447 -12 z m 563 -433 b 517 -486 544 -475 539 -486 b 481 -482 508 -486 497 -485 b 526 -429 499 -440 506 -429 b 563 -433 536 -429 547 -431 z m 588 -481 b 669 -421 615 -422 615 -422 b 594 -481 656 -467 639 -481 z m 458 -431 b 407 -494 435 -476 431 -494 b 375 -489 399 -494 389 -493 b 433 -429 397 -440 403 -429 b 458 -431 440 -429 449 -429 z m 311 -60 l 311 -62 b 250 -167 311 -107 271 -126 b 246 -126 247 -151 246 -139 b 311 -60 246 -85 267 -65 z m 243 -286 b 240 -265 242 -279 240 -272 b 301 -160 240 -221 274 -192 b 308 -199 306 -175 308 -187 b 243 -286 308 -232 289 -254 z m 269 -478 b 308 -418 285 -456 296 -436 b 329 -401 314 -410 319 -401 b 343 -407 332 -401 338 -403 b 360 -429 354 -415 360 -421 b 350 -450 360 -435 356 -442 b 310 -486 332 -476 325 -486 b 269 -478 301 -486 289 -483 z m 307 -285 b 314 -321 313 -299 314 -310 b 253 -432 314 -367 275 -396 b 240 -385 246 -412 240 -399 b 307 -285 240 -358 258 -336 z m 482 -14 l 336 -14 b 206 -140 250 -15 208 -56 b 204 -269 206 -183 204 -226 b 207 -399 204 -312 206 -356 b 342 -528 211 -512 229 -524 l 372 -528 b 535 -524 426 -528 481 -524 b 578 -525 549 -524 564 -524 l 585 -525 b 729 -362 672 -525 729 -439 b 725 -331 729 -351 728 -340 b 713 -214 717 -292 714 -253 l 713 -108 b 622 -14 711 -40 688 -17 b 575 -12 607 -12 590 -12 b 482 -14 544 -12 514 -14 z "},"@":{"ha":1508,"x_min":0,"x_max":0,"o":"m 435 1183 l 421 1185 b 457 1201 435 1194 444 1201 b 471 1199 461 1201 465 1201 b 435 1183 461 1189 450 1183 z m 1181 -242 b 1200 -215 1186 -228 1192 -215 b 1208 -222 1206 -217 1208 -218 b 1181 -242 1208 -229 1199 -232 z m 1013 386 b 1003 394 1007 388 1003 390 b 1025 417 1007 406 1014 413 b 1031 404 1031 417 1031 410 b 1013 386 1031 393 1024 386 z m 1182 -75 b 1215 -29 1183 -56 1194 -44 b 1182 -75 1206 -54 1201 -68 z m 733 208 b 731 231 733 215 731 224 b 754 246 731 240 736 244 b 764 240 760 246 764 244 b 733 208 763 222 753 211 z m 563 1206 l 536 1208 b 607 1233 554 1231 579 1233 b 563 1206 596 1211 579 1206 z m 661 1221 b 704 1258 671 1247 685 1258 b 728 1254 711 1258 719 1257 b 661 1221 710 1225 710 1225 z m 776 958 b 835 1014 781 999 807 1007 b 776 958 824 990 811 967 z m 1292 -471 b 1351 -414 1294 -429 1307 -418 b 1292 -471 1338 -442 1317 -457 z m 1107 -471 l 1085 -469 b 1151 -419 1099 -440 1115 -419 l 1156 -419 b 1107 -471 1138 -462 1135 -471 z m 793 181 l 775 183 b 839 236 796 204 804 236 l 857 233 b 793 181 838 211 826 181 z m 981 -493 l 975 -493 b 1028 -443 986 -464 1000 -443 l 1044 -446 b 981 -493 1036 -481 1017 -493 z m 524 -272 l 500 -271 b 560 -226 513 -240 531 -226 b 585 -229 567 -226 575 -226 b 524 -272 572 -264 550 -272 z m 889 -504 l 869 -504 b 919 -454 892 -462 896 -454 l 944 -456 b 889 -504 926 -499 924 -504 z m 682 -519 l 644 -517 b 699 -474 654 -479 675 -474 l 726 -475 b 682 -519 713 -510 710 -519 z m 785 -514 l 764 -511 b 807 -460 782 -472 788 -460 b 842 -465 815 -460 826 -462 b 785 -514 832 -494 815 -514 z m 1214 -468 b 1182 -465 1206 -468 1196 -467 b 1229 -415 1203 -425 1208 -415 l 1256 -418 b 1214 -468 1243 -457 1239 -468 z m 815 1228 b 772 1232 806 1228 792 1229 b 858 1269 789 1275 825 1263 b 815 1228 843 1238 839 1228 z m 869 956 l 853 958 b 936 1025 876 982 888 1025 l 953 1024 b 869 956 919 997 908 956 z m 907 192 l 883 193 b 965 243 913 236 919 243 l 983 243 b 907 192 947 200 940 192 z m 515 -539 b 608 -487 526 -482 567 -493 b 515 -539 592 -544 551 -533 z m 426 -276 b 386 -271 417 -276 404 -275 b 438 -228 411 -236 418 -228 b 468 -231 446 -228 456 -229 b 426 -276 451 -265 446 -276 z m 1057 -303 l 1043 -301 b 1104 -233 1065 -247 1072 -233 l 1135 -236 b 1057 -303 1104 -262 1096 -303 z m 300 56 b 294 93 297 72 294 83 b 354 157 294 115 308 125 l 356 129 b 300 56 356 101 346 94 z m 319 -269 b 297 -251 307 -268 297 -261 b 336 -197 297 -235 322 -214 b 351 -186 340 -192 344 -186 b 375 -214 365 -192 374 -199 b 319 -269 375 -232 336 -269 z m 969 547 l 967 578 b 1026 658 967 610 979 622 b 1036 626 1033 646 1036 635 b 969 547 1036 604 1015 586 z m 318 -549 b 279 -536 310 -549 297 -543 b 328 -474 301 -492 313 -474 b 365 -490 338 -474 349 -481 b 318 -549 343 -533 335 -549 z m 422 -550 l 388 -549 b 429 -494 396 -507 400 -494 b 479 -500 440 -494 457 -497 b 422 -550 464 -542 461 -550 z m 286 533 b 281 563 282 544 281 554 b 342 643 281 601 314 621 b 351 607 347 628 351 617 b 286 533 351 586 335 572 z m 46 940 b 119 1057 56 988 60 1035 b 46 940 117 1001 100 961 z m 150 -464 l 149 -464 b 114 -433 139 -464 114 -443 b 165 -378 114 -425 156 -378 b 196 -406 176 -383 194 -390 b 150 -464 196 -418 160 -464 z m 1063 1182 b 1007 1207 1050 1182 1035 1192 b 1063 1247 1035 1236 1046 1247 b 1113 1232 1075 1247 1089 1242 b 1063 1182 1089 1197 1079 1182 z m 939 1214 b 892 1228 925 1214 910 1218 b 940 1272 910 1260 919 1272 b 993 1258 953 1272 968 1268 b 939 1214 979 1229 963 1214 z m 286 761 l 286 775 b 369 903 286 839 329 867 l 372 881 b 286 761 372 822 321 800 z m 969 419 b 964 461 967 436 964 450 b 1031 540 964 496 982 513 b 1035 515 1033 531 1035 522 b 969 419 1035 474 996 453 z m 85 -403 b 60 -368 68 -387 60 -379 b 106 -296 60 -354 74 -336 b 132 -340 124 -317 132 -329 b 85 -403 132 -356 118 -369 z m 288 -189 b 282 -156 283 -175 282 -164 b 356 -69 282 -128 300 -111 l 357 -94 b 288 -189 357 -131 347 -139 z m 286 -78 l 285 -61 b 354 49 285 -7 321 18 b 358 19 357 38 358 28 b 286 -78 358 -26 318 -44 z m 296 168 b 290 197 293 179 290 188 b 351 282 290 236 324 257 b 358 236 356 263 358 249 b 296 168 358 211 343 199 z m 1222 463 b 1218 489 1219 472 1218 481 b 1286 578 1218 533 1257 551 b 1294 539 1292 561 1294 549 b 1222 463 1294 514 1276 500 z m 285 651 b 281 678 282 661 281 669 b 347 771 281 722 324 740 b 360 729 356 754 360 740 b 285 651 360 704 339 686 z m 297 283 b 289 318 292 297 289 308 b 349 415 289 360 331 378 b 358 375 356 400 358 386 b 297 283 358 333 324 311 z m 1219 815 b 1214 844 1215 826 1214 836 b 1282 928 1214 886 1251 904 b 1296 889 1290 911 1296 900 b 1219 815 1296 869 1275 854 z m 233 -515 b 190 -489 222 -515 211 -506 b 238 -431 213 -447 222 -431 b 283 -453 247 -431 261 -439 b 233 -515 257 -497 247 -515 z m 318 917 b 428 1063 332 978 365 1025 b 318 917 413 988 365 951 z m 294 404 b 283 443 288 419 283 432 b 346 539 283 483 321 506 b 356 499 353 524 356 510 b 294 404 356 457 319 435 z m 15 772 l 15 788 b 86 914 15 843 38 883 b 89 888 89 904 89 896 b 15 772 89 836 53 806 z m 964 778 b 946 819 953 794 946 807 b 1019 903 946 840 965 863 b 1026 871 1025 890 1026 881 b 964 778 1026 828 983 810 z m 954 -36 b 943 -7 949 -24 943 -15 b 1024 99 943 11 961 32 b 1029 64 1026 85 1029 74 b 954 -36 1029 38 1013 19 z m 936 883 b 910 915 926 883 910 901 b 921 938 910 922 913 929 b 982 1001 942 957 960 978 b 1004 954 996 976 1004 964 b 956 899 1004 935 986 928 b 936 883 950 893 943 883 z m 1211 926 b 1201 968 1204 944 1201 957 b 1268 1043 1201 990 1218 1006 b 1285 997 1278 1024 1285 1010 b 1211 926 1285 976 1265 958 z m 1225 700 b 1218 739 1221 715 1218 728 b 1299 821 1218 769 1238 785 b 1303 793 1301 810 1303 801 b 1225 700 1303 743 1253 731 z m 961 654 b 956 686 957 667 956 676 b 1028 792 956 735 999 757 b 1035 756 1033 778 1035 767 b 961 654 1035 708 992 688 z m 1171 -19 b 1167 13 1168 -8 1167 1 b 1258 156 1167 57 1193 96 b 1171 -19 1257 79 1204 39 z m 951 82 b 942 132 946 103 942 118 b 1018 210 942 160 961 175 b 1024 178 1022 197 1024 188 b 951 82 1024 150 1006 131 z m 1185 1025 b 1165 1063 1171 1044 1165 1054 b 1229 1142 1165 1081 1201 1113 b 1258 1100 1249 1121 1258 1110 b 1194 1028 1258 1085 1222 1056 b 1185 1025 1192 1025 1188 1025 z m 1213 168 b 1207 210 1210 183 1207 197 b 1282 315 1207 249 1228 274 b 1286 286 1285 304 1286 296 b 1213 168 1286 236 1244 206 z m 1231 582 b 1219 621 1224 597 1219 610 b 1300 710 1219 647 1242 669 b 1304 682 1303 700 1304 690 b 1231 582 1304 633 1267 610 z m 1147 1107 b 1138 1113 1140 1111 1138 1111 b 1106 1154 1128 1126 1106 1139 b 1156 1213 1111 1181 1132 1193 b 1167 1218 1160 1217 1164 1218 b 1192 1200 1178 1218 1185 1206 b 1204 1178 1199 1193 1204 1186 b 1147 1107 1204 1157 1169 1131 z m 990 -292 b 974 -282 983 -292 978 -286 b 958 -260 967 -276 958 -268 b 963 -249 958 -256 960 -253 b 1036 -157 986 -219 1003 -186 b 1053 -200 1043 -174 1053 -186 b 1049 -214 1053 -204 1051 -210 b 997 -287 1033 -240 1017 -265 b 990 -292 994 -290 993 -292 z m 1219 321 b 1214 372 1217 343 1214 358 b 1286 460 1214 406 1229 418 b 1296 415 1293 442 1296 428 b 1219 321 1296 382 1272 361 z m 33 -325 b 21 -274 25 -307 21 -289 b 85 -149 21 -226 53 -190 b 93 -201 90 -168 93 -185 b 33 -325 93 -250 69 -287 z m 13 461 b 3 507 6 478 3 493 b 68 613 3 551 33 583 b 82 563 78 594 82 578 b 13 461 82 529 60 499 z m 14 308 b 6 351 8 325 6 339 b 81 472 6 403 44 433 b 89 432 86 457 89 444 b 14 308 89 378 42 349 z m 21 -4 b 13 51 15 18 13 36 b 83 156 13 92 32 117 b 92 117 89 142 92 129 b 21 -4 92 67 51 33 z m 7 610 b 0 651 3 625 0 639 b 72 771 0 701 33 736 b 81 725 78 754 81 739 b 7 610 81 678 49 642 z m 15 -164 b 8 -124 11 -150 8 -136 b 81 7 8 -72 43 -33 b 89 -40 86 -10 89 -25 b 15 -164 89 -86 64 -128 z m 956 -193 b 949 -147 951 -176 949 -161 b 1026 -25 949 -103 972 -68 b 1033 -67 1031 -39 1033 -54 b 1003 -136 1033 -92 1025 -115 b 956 -193 985 -153 972 -174 z m 14 149 b 1 197 6 165 1 182 b 85 326 1 235 25 272 b 93 276 90 308 93 292 b 14 149 93 224 63 183 z m 250 -261 b 222 -172 221 -229 224 -200 b 218 54 221 -97 218 -22 l 221 222 b 208 711 221 399 211 525 b 246 1004 208 803 217 913 b 367 1124 267 1063 301 1104 b 842 1190 539 1178 676 1189 b 986 1169 890 1190 939 1181 b 1126 1051 1051 1153 1100 1117 b 1179 813 1158 974 1178 896 b 1182 575 1181 733 1182 654 b 1169 233 1182 461 1179 347 b 1160 200 1169 222 1168 211 b 1167 707 1160 386 1165 513 b 944 1160 1167 897 1149 1133 b 815 1168 901 1165 858 1168 b 478 1122 701 1168 589 1150 b 243 706 301 1081 243 892 b 256 185 244 532 247 358 l 257 132 b 246 -118 257 47 249 -35 b 242 -189 244 -142 242 -164 b 250 -261 242 -211 244 -235 z m 893 369 b 767 375 846 371 811 375 b 731 413 739 376 731 389 l 731 658 b 744 861 731 726 733 794 b 768 918 747 882 743 911 b 808 925 781 922 794 925 b 911 800 867 925 911 863 b 926 497 917 699 926 599 b 924 413 926 469 925 440 b 893 369 922 375 921 369 z m 483 -367 b 329 -325 429 -367 376 -354 b 317 -314 324 -322 321 -318 b 314 -306 315 -312 315 -311 b 431 -314 353 -311 392 -314 b 578 -306 479 -314 529 -310 b 724 -176 658 -297 708 -254 b 731 -99 729 -150 731 -124 b 729 104 731 -31 731 36 b 768 143 729 133 739 143 l 782 143 b 879 150 818 143 844 149 b 903 125 897 150 901 142 b 910 42 906 97 908 69 b 911 -178 911 -31 911 -104 l 911 -190 b 944 -311 911 -233 918 -275 b 935 -318 939 -317 936 -318 b 511 -365 793 -326 653 -353 z m 388 -587 b 824 -549 529 -581 665 -553 b 968 -536 872 -547 922 -547 b 1196 -506 1043 -518 1119 -506 b 1268 -508 1222 -506 1242 -508 b 1422 -343 1349 -508 1422 -403 b 1338 -281 1422 -304 1393 -281 l 1211 -281 b 1242 -243 1218 -261 1232 -253 b 1326 -112 1278 -204 1313 -162 b 1419 310 1365 26 1408 164 b 1431 640 1428 419 1421 531 b 1435 735 1433 672 1435 704 b 1417 988 1435 819 1426 904 b 1160 1361 1400 1144 1317 1325 l 983 1397 b 932 1403 967 1401 950 1403 l 917 1403 b 81 1107 617 1379 288 1360 b 22 999 54 1074 33 1040 b -33 638 -12 881 -33 761 l -31 451 l -32 267 b -24 -39 -32 139 -28 97 l -24 -100 b -21 -208 -24 -136 -24 -172 b 21 -386 -15 -269 -18 -332 b 369 -587 110 -504 217 -587 z "},"A":{"ha":1086,"x_min":0,"x_max":0,"o":"m 443 -418 b 444 -428 443 -421 444 -425 b 415 -462 444 -447 432 -454 l 415 -460 b 443 -418 415 -440 426 -429 z m 493 156 b 488 193 490 172 488 185 b 500 207 488 203 492 207 b 531 201 507 207 517 204 b 493 156 524 183 511 171 z m 961 -428 b 910 -465 958 -460 936 -464 b 933 -424 915 -433 917 -424 b 961 -428 939 -424 949 -425 z m 153 1247 b 74 1144 146 1201 111 1179 b 153 1247 86 1197 113 1228 z m 592 1204 b 535 1154 572 1181 560 1160 b 526 1153 532 1153 529 1153 b 515 1160 522 1153 517 1156 b 514 1165 514 1161 514 1164 b 517 1176 514 1169 515 1174 b 565 1208 526 1199 543 1208 b 592 1204 574 1208 582 1207 z m 378 -432 b 326 -487 365 -460 354 -487 b 310 -485 322 -487 317 -486 b 351 -429 322 -442 328 -429 b 378 -432 358 -429 367 -431 z m 536 142 b 613 206 560 172 574 206 b 633 203 618 206 625 204 b 546 142 611 172 594 142 z m 754 214 b 676 151 718 158 713 151 l 657 151 b 754 214 676 196 703 214 z m 281 -433 b 232 -487 264 -475 258 -487 b 192 -483 222 -487 210 -486 b 240 -429 208 -442 214 -429 b 281 -433 250 -429 263 -431 z m 694 1181 b 663 1144 682 1167 672 1156 b 633 1122 649 1129 640 1122 b 597 1144 625 1122 615 1129 b 651 1201 624 1185 635 1201 b 694 1181 661 1201 674 1194 z m 865 -357 b 885 -399 879 -372 885 -386 b 865 -456 885 -419 872 -437 b 850 -468 861 -464 857 -468 b 839 -465 847 -468 843 -468 b 819 -443 831 -460 819 -454 b 822 -435 819 -440 821 -437 b 865 -357 835 -410 849 -386 z m 774 -43 b 765 -10 768 -31 765 -19 b 818 86 765 29 799 54 b 828 50 825 71 828 60 b 774 -43 828 28 814 7 z m 169 -431 b 115 -483 147 -474 142 -483 b 89 -482 108 -483 100 -483 b 88 -474 88 -479 88 -476 b 103 -443 88 -462 97 -453 b 129 -407 114 -422 118 -407 b 169 -431 138 -407 149 -414 z m 696 1050 b 672 1092 681 1069 672 1082 b 718 1144 672 1106 686 1117 b 743 1108 733 1128 743 1118 b 696 1050 743 1096 729 1082 z m 104 22 b 107 -17 106 7 107 -6 b 44 -132 107 -85 93 -97 b 43 -114 43 -125 43 -119 l 43 -107 b 104 22 43 -22 69 -10 z m 100 1108 b 32 976 100 1050 81 1008 l 32 983 b 100 1108 32 1038 49 1079 z m 833 453 b 838 421 836 442 838 431 b 835 389 838 408 836 399 b 788 353 832 369 807 353 b 776 354 783 353 779 353 b 763 371 767 358 763 364 b 769 386 763 376 765 382 b 833 453 789 407 806 432 z m 753 707 b 749 736 750 718 749 728 b 807 844 749 782 782 811 b 818 804 814 829 818 817 b 753 707 818 781 800 757 z m 796 965 b 807 924 803 947 807 935 b 751 836 807 900 790 883 b 739 871 744 850 739 860 b 796 965 739 893 756 915 z m 771 1067 b 782 1033 779 1054 782 1043 b 733 944 782 997 744 976 b 711 992 719 964 711 978 b 771 1067 711 1011 728 1032 z m 806 -383 b 796 -342 799 -368 796 -354 b 850 -235 797 -307 832 -275 b 858 -265 856 -247 858 -260 l 858 -268 b 806 -383 858 -312 826 -344 z m 43 -300 b 39 -243 40 -289 39 -278 b 100 -136 39 -197 71 -168 b 110 -203 107 -178 110 -190 b 43 -300 110 -231 89 -253 z m 46 192 b 40 231 42 206 40 218 b 93 318 40 267 58 294 b 103 261 99 293 103 275 b 46 192 103 235 88 222 z m 763 567 b 758 600 760 579 758 589 b 819 724 758 653 792 685 b 829 682 826 708 829 694 b 763 567 829 636 792 607 z m 768 85 b 754 128 758 101 754 115 b 815 221 754 165 789 190 b 824 182 821 207 824 193 b 768 85 824 142 792 115 z m 835 -18 b 842 -51 839 -29 842 -40 b 785 -168 842 -96 803 -128 b 776 -132 779 -154 776 -143 b 835 -18 776 -87 815 -57 z m 103 -296 b 108 -325 106 -307 108 -318 l 108 -328 b 60 -437 108 -371 85 -403 b 47 -387 51 -419 47 -403 b 103 -296 49 -358 71 -328 z m 832 583 b 838 550 836 571 838 560 b 768 442 838 501 797 476 b 760 476 763 454 760 465 b 832 583 760 508 782 540 z m 33 489 b 18 547 24 513 18 531 b 82 638 18 574 35 599 b 89 594 86 622 89 608 b 33 489 89 553 68 519 z m 72 950 b 78 904 76 935 78 919 b 8 785 78 858 57 819 b 72 950 15 850 7 911 z m 89 485 b 96 426 93 464 96 444 b 42 332 96 389 83 356 b 32 385 35 350 32 368 b 89 485 32 422 50 454 z m 104 181 b 110 128 107 163 110 144 b 49 31 110 88 96 53 b 43 78 46 47 43 63 b 104 181 43 118 58 153 z m 15 638 b 8 694 11 663 8 681 b 69 785 8 726 24 740 b 85 733 79 765 85 749 b 15 638 85 701 63 676 z m 463 676 b 456 894 461 749 458 822 l 456 910 b 475 1067 456 963 463 1015 b 533 1121 485 1101 506 1121 b 571 1111 546 1121 558 1118 b 669 1003 617 1089 656 1056 b 706 815 686 942 697 879 b 725 396 724 676 711 535 b 728 369 726 385 728 376 b 679 342 728 349 718 347 b 617 338 658 339 638 338 b 517 340 583 338 550 340 b 476 378 488 340 478 349 b 465 642 469 467 467 554 l 465 676 z m 967 518 b 940 922 964 646 957 785 b 817 1242 926 1039 893 1149 b 621 1342 765 1304 703 1342 l 613 1342 b 532 1343 586 1342 560 1343 l 513 1343 b 200 1310 407 1343 303 1339 b 29 1142 110 1283 58 1228 b -25 793 -10 1028 -17 910 b -28 711 -28 765 -28 739 b -17 531 -28 651 -24 590 b 10 76 0 379 10 228 b 1 -219 10 -6 7 -89 b 0 -258 1 -232 0 -246 b 1 -299 0 -272 1 -285 b 19 -446 7 -350 10 -394 b 83 -521 26 -481 40 -518 b 229 -526 132 -524 181 -526 b 374 -518 278 -526 326 -524 b 496 -387 451 -508 496 -461 b 494 -360 496 -379 496 -369 b 489 -240 490 -325 489 -283 l 488 78 b 504 103 488 90 489 101 b 694 115 568 107 632 111 b 725 85 717 115 725 104 b 729 -17 726 50 728 17 b 775 -435 736 -135 747 -328 b 856 -510 785 -474 819 -510 l 864 -510 b 986 -464 908 -510 958 -508 b 1014 -381 1003 -439 1014 -411 b 1006 -336 1014 -367 1011 -351 b 989 -233 994 -308 990 -271 b 964 60 978 -86 974 -14 b 954 204 957 108 954 156 b 960 322 954 243 956 283 b 968 461 965 367 968 411 b 967 518 968 479 968 499 z m 842 -131 b 849 -164 846 -142 849 -153 b 792 -281 849 -208 810 -240 b 783 -244 786 -267 783 -256 b 842 -131 783 -200 822 -169 z "},"B":{"ha":1029,"x_min":0,"x_max":0,"o":"m 722 -372 b 658 -428 707 -421 707 -421 b 722 -372 674 -401 685 -376 z m 18 1139 b 90 1213 19 1185 31 1197 b 18 1139 69 1182 46 1160 z m 515 175 b 474 118 503 150 488 135 b 464 157 468 138 464 149 b 515 175 464 172 478 174 z m 796 -129 b 749 -201 792 -161 778 -185 b 747 -187 747 -196 747 -192 b 796 -129 747 -157 771 -143 z m 628 192 b 550 136 608 161 589 136 b 628 192 571 185 576 189 z m 483 1121 b 475 1157 478 1136 475 1147 b 550 1189 475 1185 503 1182 b 483 1121 535 1157 511 1138 z m 808 75 b 814 47 813 65 814 56 b 761 -17 814 17 786 1 b 760 4 761 -8 760 -1 b 808 75 760 28 768 36 z m 78 365 b 83 338 81 356 83 346 b 43 281 83 313 69 294 b 36 321 39 300 36 313 b 78 365 36 339 47 346 z m 81 506 b 83 458 82 489 83 474 b 40 397 83 431 76 408 b 33 431 35 410 33 421 b 81 506 33 458 50 482 z m 617 -404 b 510 -461 600 -469 556 -458 b 617 -404 528 -399 579 -425 z m 254 -472 b 304 -417 274 -429 279 -417 b 343 -421 314 -417 326 -418 b 292 -478 331 -462 319 -478 b 254 -472 282 -478 269 -475 z m 76 249 b 81 218 79 238 81 228 b 28 140 81 185 63 160 b 26 167 26 150 26 158 b 76 249 26 201 38 231 z m 75 625 b 81 594 79 614 81 604 b 32 519 81 564 58 542 b 24 569 26 542 24 557 b 75 625 24 593 38 603 z m 756 218 b 681 147 731 193 722 147 b 651 153 672 147 663 149 b 736 221 678 182 694 221 b 756 218 742 221 749 219 z m 75 1014 b 81 985 79 1003 81 993 b 21 899 81 944 49 925 b 13 935 15 913 13 924 b 75 1014 13 972 42 992 z m 700 542 b 608 399 686 481 657 440 b 700 542 625 460 636 513 z m 86 1146 b 89 1119 88 1136 89 1128 b 25 1029 89 1074 64 1049 b 21 1054 22 1038 21 1046 b 86 1146 21 1094 53 1118 z m 74 756 b 79 719 78 743 79 731 b 31 650 79 690 65 667 b 21 699 25 672 21 688 b 74 756 21 722 35 732 z m 140 -458 b 203 -400 168 -415 182 -400 b 236 -407 213 -400 222 -403 b 189 -467 219 -451 213 -467 b 140 -458 178 -467 163 -464 z m 475 -422 b 414 -475 471 -462 453 -475 b 374 -472 403 -475 389 -474 b 429 -418 392 -431 399 -418 b 475 -422 442 -418 456 -419 z m 72 899 b 78 857 76 883 78 869 b 25 778 78 819 61 796 b 17 810 19 790 17 800 b 72 899 17 843 47 867 z m 796 192 b 811 157 807 178 811 167 b 754 76 811 136 790 118 b 728 113 736 94 728 104 b 746 142 728 121 735 128 b 796 192 761 158 772 182 z m 74 119 b 79 83 78 107 79 94 b 24 -10 79 44 58 15 b 18 26 21 3 18 15 b 74 119 18 64 36 94 z m 18 -135 b 15 -99 17 -119 15 -108 b 69 -14 15 -69 26 -58 b 79 -58 75 -31 79 -44 b 18 -135 79 -89 60 -110 z m 722 700 b 724 672 724 690 724 681 b 658 569 724 624 706 590 b 654 599 656 579 654 589 b 722 700 654 642 683 671 z m 661 1150 b 607 1089 643 1126 628 1106 b 560 1129 590 1103 575 1115 b 613 1181 586 1164 597 1181 b 661 1150 624 1181 638 1169 z m 650 992 b 629 1039 638 1011 629 1025 b 683 1111 629 1058 646 1078 b 713 1069 703 1090 713 1081 b 692 1035 713 1060 706 1050 b 650 992 678 1019 668 1001 z m 29 -362 b 15 -308 21 -337 15 -321 b 75 -240 15 -285 35 -282 b 83 -274 83 -257 83 -260 b 29 -362 83 -304 65 -331 z m 669 713 b 664 746 665 725 664 736 b 726 857 664 792 696 824 b 739 811 735 840 739 825 b 669 713 739 778 717 749 z m 97 -342 b 160 -376 117 -354 135 -364 b 106 -432 140 -396 122 -414 b 82 -442 99 -439 90 -442 b 60 -436 75 -442 67 -439 b 44 -418 50 -432 44 -426 b 50 -404 44 -414 46 -410 b 97 -342 65 -385 79 -365 z m 665 854 b 654 900 658 871 654 886 b 719 1006 654 942 683 974 b 735 944 729 981 735 961 b 665 854 735 914 715 893 z m 461 32 b 485 72 461 50 467 64 b 635 113 533 93 582 110 l 642 113 b 710 60 681 113 696 100 b 721 -6 718 39 721 17 l 721 -22 b 714 -72 719 -39 717 -57 b 676 -243 707 -108 715 -222 b 556 -283 639 -262 599 -283 b 517 -278 543 -283 531 -282 b 465 -218 476 -267 468 -258 b 464 -103 464 -133 464 -118 z m 467 326 l 467 482 b 461 799 464 588 461 693 b 464 993 461 864 461 928 b 465 1033 464 1007 465 1019 b 501 1086 467 1058 469 1081 b 532 1090 514 1089 524 1090 b 578 1058 551 1090 564 1082 b 619 919 604 1017 614 968 b 629 742 625 860 629 801 b 613 540 629 675 624 607 b 542 364 601 476 574 419 b 467 326 531 343 518 339 z m 760 365 b 853 638 822 444 839 540 b 864 732 857 668 861 700 b 869 857 868 774 869 815 b 846 1079 869 931 863 1006 b 586 1325 814 1214 717 1311 b 403 1338 525 1332 464 1338 b 278 1328 361 1338 319 1335 b 33 1235 189 1311 110 1279 b -22 1149 -1 1214 -22 1186 b -19 1122 -22 1140 -21 1132 b -15 1079 -17 1108 -15 1094 l -15 1065 b -21 881 -19 1004 -21 943 b -4 443 -21 735 -12 589 b 0 333 -3 407 0 369 b -1 285 0 317 0 301 b -21 -278 -15 121 -21 -44 b 0 -411 -21 -324 -12 -367 b 63 -475 10 -444 29 -464 b 299 -514 140 -500 218 -514 b 339 -512 311 -514 325 -514 b 529 -499 403 -510 465 -504 b 735 -447 601 -492 668 -468 b 790 -410 757 -440 774 -424 b 893 -244 844 -367 864 -303 b 947 67 932 -97 947 -17 b 936 193 947 108 943 150 b 799 349 924 272 875 324 b 760 365 786 353 772 353 z m 18 -246 b 15 -210 17 -231 15 -219 b 74 -133 15 -181 31 -178 b 79 -169 79 -150 79 -156 b 18 -246 79 -200 60 -221 z m 810 -24 b 814 -50 814 -33 814 -42 b 761 -114 814 -89 786 -96 b 760 -93 761 -106 760 -99 b 810 -24 760 -60 769 -62 z "},"C":{"ha":1051,"x_min":0,"x_max":0,"o":"m 840 -318 b 781 -390 831 -350 810 -371 l 781 -387 b 840 -318 781 -346 811 -333 z m 754 932 b 790 979 758 954 776 965 b 807 988 796 985 801 988 b 832 971 817 988 825 979 b 836 961 835 968 836 964 b 817 942 836 953 825 946 b 774 929 804 935 789 929 b 754 932 768 929 761 929 z m 658 1189 b 597 1138 639 1169 626 1138 b 572 1144 590 1138 582 1140 b 617 1200 585 1183 596 1200 b 658 1189 628 1200 640 1196 z m 632 -467 b 724 -387 643 -414 681 -397 b 632 -467 713 -456 706 -461 z m 224 1236 b 106 1113 204 1174 154 1144 b 224 1236 118 1160 156 1200 z m 651 1117 b 704 1171 651 1131 692 1171 b 744 1138 718 1171 744 1147 l 744 1136 b 689 1086 743 1125 700 1086 l 688 1086 b 651 1117 672 1092 657 1101 z m 831 203 b 843 158 836 181 843 169 b 776 76 843 140 828 125 b 767 125 771 96 767 111 b 831 203 767 160 789 178 z m 753 -210 l 753 -197 b 838 -60 753 -132 790 -94 b 753 -210 828 -122 801 -168 z m 350 -481 b 415 -421 375 -433 382 -421 b 467 -425 428 -421 444 -422 b 407 -490 443 -474 435 -490 b 350 -481 394 -490 376 -486 z m 482 -486 b 554 -421 513 -435 521 -421 b 603 -425 567 -421 582 -422 b 522 -487 581 -476 574 -487 b 482 -486 511 -487 499 -487 z m 194 -326 b 218 -354 206 -340 211 -349 b 232 -378 228 -361 232 -369 b 219 -401 232 -385 228 -393 b 203 -424 213 -408 208 -417 b 181 -446 196 -431 192 -446 b 169 -440 178 -446 174 -444 b 143 -407 158 -431 143 -422 b 149 -390 143 -401 144 -397 b 164 -367 154 -382 158 -374 b 194 -326 172 -354 182 -343 z m 771 -62 b 768 -19 769 -44 768 -31 b 839 78 768 19 782 33 b 849 33 846 60 849 44 b 771 -62 849 1 826 -17 z m 775 1103 b 788 1050 783 1079 788 1063 b 729 978 788 1024 771 1008 b 718 1026 722 994 718 1011 b 775 1103 718 1057 735 1083 z m 336 -422 b 278 -482 310 -467 300 -482 b 225 -469 265 -482 250 -476 b 274 -406 243 -424 250 -406 b 336 -422 288 -406 307 -412 z m 19 22 b 3 90 8 58 3 76 b 75 160 3 117 26 126 b 90 114 83 143 90 132 l 90 108 b 19 22 90 90 74 71 z m 111 -369 b 90 -314 97 -347 90 -329 b 151 -231 90 -287 110 -264 b 169 -285 163 -256 169 -272 b 111 -369 169 -307 153 -325 z m -6 300 b -12 344 -10 321 -12 333 b 67 450 -12 396 29 421 b 78 397 74 431 78 417 b -6 300 78 369 57 350 z m 125 -101 b 139 -161 133 -128 139 -146 b 71 -250 139 -192 119 -210 b 53 -193 60 -225 53 -208 b 125 -101 53 -168 72 -149 z m 28 928 b 135 1082 32 1007 67 1056 b 28 928 135 1014 108 974 z m 0 161 b -7 200 -4 175 -7 188 b 71 311 -7 250 33 278 b 83 247 79 283 83 264 b 0 161 83 211 60 196 z m 88 913 b 89 885 89 903 89 893 b -1 760 89 825 64 783 l -1 772 b 88 913 -1 838 19 888 z m 99 38 b 113 -15 108 18 113 0 b 42 -121 113 -61 78 -90 b 24 -65 31 -99 24 -81 b 99 38 24 -36 44 -11 z m -15 593 b -18 629 -17 606 -18 618 b 69 753 -18 689 8 728 b 78 693 74 726 78 708 b -15 593 78 656 56 644 z m 69 601 b 78 556 75 585 78 569 b -8 442 78 504 40 471 b -21 503 -15 468 -21 488 b 69 601 -21 539 4 558 z m 446 518 b 444 699 446 578 444 638 b 446 790 444 729 444 760 b 524 1075 449 890 475 986 b 567 1106 536 1097 549 1106 b 588 1103 572 1106 579 1106 b 688 982 643 1088 683 1039 b 692 943 689 968 689 956 b 735 896 694 917 711 901 b 769 893 747 893 758 893 b 858 929 803 893 832 903 b 919 1064 899 972 919 1017 b 894 1160 919 1094 911 1126 b 672 1325 847 1251 769 1313 b 468 1343 604 1333 536 1343 b 264 1301 400 1343 332 1333 b 44 1096 165 1256 92 1192 b -39 771 -7 993 -22 882 b -54 543 -50 694 -54 619 b -50 378 -54 489 -51 433 b 26 -251 -43 174 -19 -28 b 144 -469 43 -336 79 -411 b 246 -514 174 -494 207 -510 b 450 -524 314 -519 382 -524 b 582 -518 494 -524 538 -522 b 921 -260 749 -501 856 -408 b 979 42 964 -161 979 -61 b 957 282 979 121 969 201 b 892 338 951 317 925 338 b 869 335 885 338 878 338 b 733 158 786 311 735 244 b 724 -140 731 58 736 -40 b 679 -253 719 -182 710 -221 b 606 -287 656 -276 631 -287 b 525 -221 572 -287 540 -265 l 517 -187 b 443 415 467 25 443 218 b 446 518 443 449 444 483 z "},"D":{"ha":988,"x_min":0,"x_max":0,"o":"m 692 -356 b 651 -403 678 -371 665 -387 b 618 -424 644 -411 636 -419 b 692 -356 632 -387 657 -368 z m 108 1282 b 18 1183 97 1239 85 1226 b 108 1282 39 1231 57 1267 z m 750 -32 b 679 -165 743 -89 718 -129 b 750 -32 679 -107 693 -61 z m 567 -412 b 471 -475 546 -469 544 -471 b 567 -412 501 -418 503 -418 z m 775 117 b 711 -3 775 58 768 14 b 707 25 708 7 707 17 b 775 117 707 64 735 89 z m 713 117 b 706 171 708 140 706 157 b 772 232 706 203 722 211 b 779 200 776 221 779 210 b 713 117 779 164 746 143 z m 64 660 b 71 631 68 649 71 639 b 6 540 71 590 28 572 b -6 586 -1 560 -6 575 b 64 660 -6 613 13 628 z m 761 642 b 765 596 764 622 765 607 b 703 535 765 564 751 558 b 694 585 697 558 694 574 b 761 642 694 611 710 618 z m 569 1167 b 510 1114 553 1143 532 1128 b 496 1108 504 1110 499 1108 b 481 1129 488 1108 482 1115 b 479 1150 481 1136 479 1143 b 510 1193 479 1179 488 1193 b 550 1183 519 1193 533 1189 b 569 1167 557 1181 565 1178 z m 443 -431 b 333 -492 425 -492 379 -492 b 401 -428 349 -443 360 -428 b 443 -431 413 -428 426 -429 z m 67 788 b 72 757 69 776 72 765 b 4 667 72 713 38 690 b -8 707 -4 683 -8 696 b 67 788 -8 732 14 753 z m 711 250 b 704 293 707 267 704 281 b 767 363 704 322 721 339 b 775 313 772 340 775 325 b 711 250 775 279 756 269 z m 15 4 b 10 51 13 24 10 39 b 88 138 10 90 29 106 b 96 100 93 125 96 113 b 67 49 96 82 88 64 b 15 4 49 36 33 21 z m 74 549 b 78 503 76 529 78 515 b 13 414 78 469 64 458 b 0 460 4 432 0 446 b 74 549 0 489 22 513 z m 75 922 b 79 892 78 911 79 900 b -1 785 79 839 32 818 b -12 832 -8 804 -12 819 b 75 922 -12 860 10 878 z m 182 -419 b 160 -456 181 -435 168 -444 b 111 -478 149 -469 129 -478 b 76 -467 99 -478 86 -474 b 69 -456 72 -462 69 -460 b 72 -447 69 -453 71 -450 b 86 -431 76 -442 82 -436 b 131 -390 107 -403 118 -390 b 182 -419 142 -390 156 -400 z m 18 276 b 7 322 10 294 7 310 b 78 419 7 367 43 390 b 88 378 85 404 88 390 b 18 276 88 333 49 308 z m 315 -428 b 247 -492 294 -469 286 -492 b 194 -483 233 -492 217 -489 b 257 -417 214 -435 226 -417 b 315 -428 271 -417 290 -421 z m 15 140 b 10 175 11 153 10 165 b 81 286 10 224 47 251 b 93 222 88 258 93 238 b 15 140 93 192 74 176 z m 94 1189 b 99 1158 97 1178 99 1168 b 1 1040 99 1099 44 1076 b -3 1076 -1 1053 -3 1065 b 36 1144 -3 1104 7 1128 b 94 1189 57 1156 74 1172 z m -7 913 b -12 947 -10 925 -12 936 b 35 1019 -12 979 4 1001 b 86 1051 53 1029 64 1049 b 90 1021 89 1040 90 1031 b 50 956 90 994 78 972 b -7 913 31 943 18 925 z m 750 781 b 761 717 757 751 761 731 b 693 651 761 689 744 679 b 675 715 682 681 675 700 b 750 781 675 742 696 756 z m 761 517 b 772 453 768 490 772 469 b 704 378 772 418 754 400 b 696 444 699 407 696 429 b 761 517 696 483 713 494 z m 17 -135 b 8 -76 11 -110 8 -92 b 93 17 8 -40 29 -25 b 103 -36 99 -6 103 -22 b 17 -135 103 -71 81 -89 z m 97 -122 b 110 -174 106 -142 110 -158 b 68 -244 110 -201 96 -225 b 18 -287 50 -257 39 -278 b 10 -242 13 -271 10 -256 b 97 -122 10 -187 53 -156 z m 682 1047 b 706 992 697 1019 706 1004 b 674 946 706 978 696 967 b 628 906 658 931 647 913 b 619 913 624 908 621 910 b 597 969 607 946 597 960 b 649 1021 597 982 611 990 b 682 1047 658 1029 668 1038 z m 103 -247 b 121 -311 114 -272 121 -293 b 85 -376 121 -337 108 -357 b 40 -426 68 -390 56 -408 b 19 -368 26 -400 19 -383 b 49 -314 19 -350 29 -335 b 103 -247 65 -296 81 -274 z m 585 1018 b 576 1025 579 1022 578 1024 b 546 1085 557 1054 546 1071 b 594 1138 546 1100 561 1113 b 617 1147 603 1143 610 1147 b 638 1135 625 1147 631 1143 l 663 1097 b 665 1088 665 1094 665 1090 b 658 1074 665 1082 664 1078 b 585 1018 635 1056 611 1038 z m 668 778 b 646 850 654 810 646 832 b 719 931 646 879 668 896 b 749 853 738 893 749 871 b 668 778 749 828 725 814 z m 456 704 b 474 1046 456 818 469 932 l 474 1051 b 481 1065 474 1057 475 1063 b 489 1068 483 1067 486 1068 b 507 1058 496 1068 501 1064 b 549 994 528 1042 539 1018 b 664 442 628 818 664 633 l 664 371 b 674 111 664 285 667 197 b 675 75 675 99 675 88 b 625 -203 675 -19 651 -111 b 521 -289 610 -254 564 -271 b 511 -290 517 -290 514 -290 b 497 -261 499 -290 497 -275 b 486 -87 493 -204 488 -146 b 456 614 476 146 471 381 z m -33 -24 b -21 -331 -19 -121 -29 -226 b -12 -397 -18 -353 -17 -375 b 92 -508 -3 -454 35 -497 b 214 -525 132 -517 172 -524 b 300 -528 242 -526 271 -528 b 471 -517 357 -528 414 -524 b 674 -431 546 -506 621 -489 b 864 -115 758 -339 825 -235 b 910 167 893 -25 910 69 l 910 189 b 899 525 906 300 903 413 b 888 772 896 607 893 690 b 781 1153 876 906 842 1033 b 531 1321 729 1257 638 1307 b 283 1335 449 1331 365 1335 b 154 1332 240 1335 197 1333 b -4 1224 83 1328 28 1292 b -44 1033 -32 1163 -43 1099 b -47 857 -46 975 -47 915 b -36 456 -47 722 -43 589 b -25 214 -32 375 -25 294 l -25 181 b -33 -24 -26 115 -26 49 z "},"E":{"ha":964,"x_min":0,"x_max":0,"o":"m 471 175 b 465 183 467 178 465 181 b 467 189 465 185 467 188 b 481 200 469 196 475 200 l 483 200 b 489 194 488 200 489 197 b 486 188 489 193 488 190 b 471 175 483 182 479 176 z m 644 160 b 672 194 649 179 660 189 b 679 188 678 194 679 190 l 679 183 b 644 160 674 172 665 161 z m 478 1153 b 475 1181 476 1165 475 1174 b 503 1200 475 1197 482 1200 l 521 1200 b 478 1153 514 1178 497 1165 z m 801 1157 b 856 1201 817 1181 829 1201 b 872 1199 861 1201 867 1200 b 815 1156 863 1168 844 1156 b 801 1157 811 1156 807 1157 z m 710 -471 b 765 -417 735 -428 742 -417 b 803 -421 774 -417 786 -418 b 710 -471 783 -458 749 -457 z m 518 160 b 576 204 531 194 551 204 b 611 200 588 204 600 203 b 565 153 594 165 588 153 b 518 160 554 153 539 156 z m 261 -449 b 193 -490 249 -489 222 -490 l 183 -490 b 158 -492 175 -490 167 -490 b 211 -442 176 -454 185 -442 b 261 -449 224 -442 239 -444 z m 676 1160 b 739 1204 692 1190 713 1204 b 771 1199 749 1204 760 1203 b 725 1150 757 1164 747 1150 b 676 1160 713 1150 697 1153 z m 297 -479 b 363 -432 311 -440 335 -432 b 406 -435 376 -432 392 -433 b 346 -483 383 -472 376 -483 b 297 -479 335 -483 319 -482 z m 547 1164 b 599 1213 569 1199 581 1213 b 647 1200 611 1213 625 1208 b 601 1156 631 1167 624 1156 b 547 1164 589 1156 572 1160 z m 682 -426 b 618 -475 674 -469 647 -475 l 582 -475 b 643 -421 590 -437 610 -421 b 682 -426 654 -421 668 -422 z m 439 -475 b 503 -428 460 -436 464 -428 b 547 -429 515 -428 529 -428 b 492 -479 531 -468 524 -479 b 439 -475 479 -479 463 -478 z m 97 1278 b 7 1174 82 1224 38 1206 b 4 1204 6 1185 4 1194 b 97 1278 4 1243 26 1258 z m 0 31 b -4 64 -3 39 -4 47 l -4 83 b 65 183 -4 129 35 153 b 78 122 72 147 78 135 b 0 31 78 97 57 72 z m 14 -494 b 82 -414 35 -460 60 -436 l 85 -414 b 104 -425 97 -414 100 -419 b 129 -450 111 -433 129 -436 b 128 -457 129 -451 129 -454 b 86 -499 119 -475 111 -496 b 53 -503 76 -500 65 -503 b 14 -494 42 -503 29 -500 z m 1 -264 b -6 -214 -1 -249 -6 -237 b -4 -190 -6 -207 -4 -200 b 79 -107 -4 -167 13 -149 b 83 -172 81 -150 83 -161 b 1 -264 83 -201 64 -222 z m 85 1182 b 90 1149 89 1169 90 1158 b 4 1040 90 1097 39 1074 b 0 1079 1 1056 0 1068 b 85 1182 0 1128 24 1151 z m -1 171 b -6 206 -4 183 -6 194 b 67 326 -6 258 31 292 b 79 276 75 307 79 290 b -1 171 79 243 57 217 z m -3 451 b -4 478 -3 461 -4 471 b 83 606 -4 543 13 565 b 89 569 86 593 89 581 b 61 511 89 547 81 528 b -3 451 40 494 24 475 z m 6 -104 b -3 -64 0 -89 -3 -76 b 74 40 -3 -15 39 10 b 85 -21 81 13 85 -7 b 6 -104 85 -56 63 -65 z m 76 475 b 85 433 82 460 85 446 b 1 317 85 378 39 351 b -8 360 -6 332 -8 347 b 76 475 -8 411 40 438 z m 10 910 b -4 964 1 933 -4 950 b 76 1054 -4 993 18 1010 b 93 999 88 1031 93 1014 b 10 910 93 968 67 951 z m 83 763 b 92 717 89 746 92 731 b 0 593 92 657 46 626 b -7 635 -6 608 -7 622 b 83 763 -7 692 40 724 z m 13 -424 b -1 -353 4 -393 -1 -371 b 71 -268 -1 -315 19 -297 b 83 -332 78 -296 83 -315 b 13 -424 83 -364 65 -383 z m 7 743 b 0 792 3 761 0 776 b 85 917 0 849 32 888 b 96 869 92 899 96 883 b 7 743 96 815 49 782 z m -36 399 l -40 399 b -42 253 -40 350 -42 301 b -40 179 -42 228 -42 204 b -37 57 -39 139 -37 97 b -40 -178 -37 -21 -40 -100 b -25 -460 -40 -272 -37 -365 b 43 -539 -18 -524 -8 -539 b 67 -537 50 -539 58 -537 b 218 -525 118 -533 168 -528 b 650 -511 363 -519 507 -514 b 879 -387 749 -508 829 -478 b 892 -343 888 -372 892 -357 b 832 -285 892 -312 871 -289 b 811 -283 825 -283 818 -283 b 782 -285 801 -283 792 -283 b 518 -297 693 -289 606 -293 b 494 -299 508 -297 501 -299 b 463 -243 463 -299 463 -289 b 468 -62 463 -183 468 -124 b 467 -18 468 -49 468 -33 l 468 81 b 515 117 468 111 475 114 b 638 121 556 118 597 119 b 718 186 682 122 708 146 b 729 247 724 206 728 226 l 729 256 b 656 333 729 301 706 328 b 618 336 643 335 631 336 b 565 335 600 336 583 335 b 499 338 543 336 521 338 b 465 371 474 338 465 350 l 465 376 b 468 483 467 413 467 449 b 476 790 472 529 476 660 b 475 1040 476 861 475 931 b 474 1074 475 1054 474 1065 b 540 1122 474 1118 483 1111 b 651 1118 578 1122 615 1122 b 742 1113 682 1114 713 1113 b 786 1114 757 1113 771 1114 b 918 1235 875 1117 908 1149 b 919 1251 919 1240 919 1246 b 840 1329 919 1299 893 1325 b 638 1338 774 1335 706 1338 b 567 1336 614 1338 590 1338 l 549 1336 b 436 1339 511 1336 474 1339 b 281 1338 385 1339 332 1339 b 38 1300 197 1338 117 1332 b -36 1197 -11 1281 -31 1244 b -37 1169 -37 1189 -37 1179 l -37 1140 b -36 819 -36 1047 -36 914 z "},"F":{"ha":992,"x_min":0,"x_max":0,"o":"m 681 194 b 654 164 676 172 669 164 l 647 164 b 681 194 651 179 661 188 z m 508 206 b 475 163 501 183 489 174 b 474 179 474 169 474 175 b 508 206 474 193 481 196 z m 796 1164 l 788 1164 b 840 1199 806 1183 818 1199 b 854 1197 844 1199 849 1199 b 796 1164 843 1172 825 1164 z m 317 -476 l 317 -471 b 360 -437 326 -450 339 -437 b 374 -439 364 -437 368 -437 b 381 -449 379 -442 381 -444 l 381 -453 b 333 -478 376 -469 360 -478 b 317 -476 328 -478 322 -478 z m 475 1149 b 474 1179 474 1161 474 1171 b 494 1204 474 1199 478 1204 b 529 1201 503 1204 514 1203 b 475 1149 513 1185 496 1168 z m 282 -444 b 225 -485 271 -475 250 -485 b 200 -482 217 -485 208 -483 b 246 -442 218 -450 222 -442 b 282 -444 256 -442 267 -443 z m 522 153 b 588 203 543 179 560 203 b 614 197 596 203 604 201 b 547 149 599 169 579 149 b 522 153 540 149 532 150 z m 760 1197 b 697 1153 742 1169 722 1153 b 669 1158 689 1153 679 1154 b 721 1204 690 1192 700 1204 b 760 1197 731 1204 743 1201 z m 553 1146 l 533 1146 b 617 1203 565 1171 583 1203 b 644 1199 624 1203 631 1201 b 553 1146 624 1153 615 1146 z m 15 1179 b 90 1276 15 1258 25 1268 b 15 1179 82 1235 47 1214 z m 50 -482 l 43 -482 b 93 -424 57 -451 72 -428 l 96 -424 b 157 -444 114 -424 132 -444 l 161 -444 b 90 -483 142 -478 117 -483 b 50 -482 76 -483 64 -482 z m 75 83 b 78 25 76 43 78 33 b 3 -76 78 -25 31 -43 b 1 -50 1 -71 1 -65 l 1 -24 b 75 83 1 26 46 49 z m 6 -454 b -7 -412 -3 -439 -7 -425 b 25 -362 -7 -393 3 -376 b 71 -324 42 -351 51 -333 b 81 -360 76 -339 81 -350 b 6 -454 81 -382 63 -399 z m -11 -337 l -11 -315 b 74 -201 -11 -254 -3 -249 b 76 -232 75 -212 76 -224 b -11 -337 76 -272 57 -292 z m 13 221 b 7 257 8 232 7 242 l 7 271 b 75 374 7 310 32 340 b 81 326 78 350 81 338 b 13 221 81 282 47 251 z m 4 72 b -1 108 0 86 -1 97 b 67 218 -1 157 33 188 b 78 169 74 199 78 183 b 4 72 78 136 56 114 z m 83 700 b 92 660 89 686 92 672 b 24 549 92 614 58 581 b 13 594 17 564 13 581 b 83 700 13 633 36 668 z m 21 876 b 14 915 15 890 14 904 b 79 1031 14 964 50 994 b 92 972 88 1006 92 988 b 21 876 92 938 68 918 z m 85 1186 b 90 1154 88 1175 90 1164 b 21 1029 90 1103 51 1068 b 11 1086 15 1051 11 1071 b 85 1186 11 1122 29 1149 z m -6 -206 b -7 -185 -7 -199 -7 -192 b 74 -60 -7 -125 40 -97 b 86 -103 82 -75 86 -89 b -6 -206 86 -135 58 -162 z m 83 553 b 89 507 86 536 89 521 b 21 379 89 454 67 411 b 8 438 14 403 8 421 b 83 553 8 472 29 500 z m 88 878 b 93 825 90 860 93 842 b 26 711 93 778 78 738 b 13 779 18 740 13 761 b 88 878 13 818 36 836 z m 472 714 l 474 1053 b 515 1100 474 1093 474 1093 b 665 1117 556 1108 665 1117 l 713 1117 b 822 1129 750 1117 786 1119 b 914 1232 875 1143 903 1182 b 917 1257 915 1240 917 1249 b 844 1331 917 1299 890 1326 b 632 1340 774 1336 703 1340 b 547 1338 604 1340 575 1339 b 492 1336 529 1336 510 1336 b 306 1340 429 1336 368 1340 b 72 1317 228 1339 149 1340 b -22 1193 -4 1292 -21 1272 l -22 903 b -19 650 -22 818 -19 735 b -21 565 -19 622 -19 593 b -31 201 -25 444 -24 322 b -49 -310 -40 31 -37 -140 b -50 -342 -49 -321 -50 -332 b -36 -449 -50 -378 -46 -414 b 40 -517 -24 -499 -11 -510 b 85 -518 54 -518 69 -518 b 226 -515 132 -518 179 -515 b 297 -518 250 -515 274 -517 b 314 -519 303 -518 308 -519 b 442 -433 376 -519 413 -485 b 461 -347 457 -407 461 -378 b 468 -89 464 -261 468 -175 b 467 -17 468 -65 468 -40 l 472 72 b 506 106 472 96 481 104 b 644 121 551 110 599 114 b 735 244 699 131 735 183 l 735 257 b 632 333 731 310 701 332 l 621 333 b 554 332 599 333 576 332 b 514 335 540 332 528 332 b 467 371 475 343 467 343 b 468 390 467 376 468 383 l 468 400 b 474 638 468 439 474 539 b 472 714 474 664 474 689 z "},"G":{"ha":1085,"x_min":0,"x_max":0,"o":"m 781 922 b 797 949 781 935 789 942 b 824 972 806 956 813 972 b 835 965 826 972 831 971 b 839 956 838 963 839 958 b 817 925 839 944 825 933 b 799 917 811 919 806 917 b 781 922 792 917 786 919 z m 650 -415 b 553 -461 607 -447 601 -450 b 650 -415 569 -424 569 -424 z m 869 -293 b 803 -403 861 -340 825 -367 b 790 -365 794 -387 790 -375 b 869 -293 790 -342 813 -324 z m 528 146 b 513 192 517 161 513 178 b 569 243 513 219 533 242 l 572 243 b 588 228 585 243 588 236 b 586 217 588 225 588 221 b 528 146 583 201 553 168 z m 388 -426 b 325 -478 358 -464 347 -478 b 272 -467 313 -478 297 -474 b 344 -421 289 -432 314 -421 b 388 -426 358 -421 372 -422 z m 693 185 b 575 121 668 129 622 126 b 693 185 588 200 646 175 z m 213 -365 b 265 -403 233 -381 249 -392 b 239 -440 264 -422 249 -429 b 210 -456 231 -451 219 -456 b 179 -447 200 -456 189 -453 b 164 -431 171 -443 164 -437 b 171 -418 164 -428 167 -424 b 213 -365 183 -403 196 -386 z m 871 -371 b 931 -421 889 -396 907 -407 b 831 -460 900 -451 869 -460 l 814 -460 b 871 -371 826 -425 850 -404 z m 724 -231 b 826 -76 735 -156 776 -114 b 724 -231 811 -136 785 -190 z m 513 -426 b 442 -486 493 -476 488 -486 b 401 -485 431 -486 418 -486 b 476 -424 424 -437 439 -424 b 513 -426 486 -424 499 -425 z m 135 -394 b 104 -342 115 -368 104 -354 b 153 -279 104 -325 119 -311 b 185 -333 174 -306 185 -319 b 135 -394 185 -349 169 -364 z m 96 1113 b 221 1244 121 1175 164 1215 b 96 1113 208 1175 176 1142 z m 563 1140 b 621 1200 586 1182 600 1200 b 671 1182 633 1200 649 1193 b 654 1154 671 1169 661 1163 b 611 1119 633 1131 625 1119 b 563 1140 600 1119 588 1126 z m 142 1085 b 42 951 131 1019 100 976 l 42 958 b 142 1085 42 1024 81 1060 z m 90 931 b 92 894 90 925 92 918 b 7 772 92 835 65 794 l 7 778 b 90 931 7 856 29 901 z m 685 1049 b 656 1089 676 1064 656 1075 b 657 1096 656 1092 656 1093 b 707 1156 668 1119 688 1139 b 718 1160 711 1158 715 1160 b 749 1138 731 1160 739 1144 b 757 1124 754 1133 757 1129 b 749 1110 757 1119 754 1114 b 685 1049 729 1090 708 1071 z m 125 -151 b 143 -211 136 -179 143 -197 b 90 -282 143 -233 128 -249 b 65 -212 75 -249 65 -228 b 125 -151 65 -190 83 -176 z m -1 619 b -6 669 -4 639 -6 656 b 69 758 -6 710 11 728 b 76 706 74 736 76 719 b -1 619 76 676 61 660 z m 779 1078 b 789 1029 786 1061 789 1044 b 724 931 789 989 764 957 b 707 989 714 954 707 972 b 779 1078 707 1015 725 1039 z m 764 76 b 746 118 757 93 754 107 b 717 147 740 129 729 136 b 790 201 740 168 751 201 b 831 171 817 200 831 189 b 824 147 831 164 829 156 b 764 76 807 122 786 101 z m 761 -76 b 756 -36 757 -62 756 -49 b 831 93 756 18 792 54 b 840 43 838 75 840 58 b 761 -76 840 -7 806 -43 z m 7 146 b -7 206 -1 171 -7 190 b 69 289 -7 238 15 256 b 83 235 78 267 83 250 b 7 146 83 201 60 181 z m 51 -157 b 26 -76 36 -114 26 -92 b 99 -11 26 -56 47 -49 b 118 -82 113 -46 118 -67 b 51 -157 118 -112 94 -121 z m 69 618 b 75 546 74 586 75 563 b -1 461 75 501 60 493 b -10 508 -7 478 -10 493 b 69 618 -10 554 18 589 z m 68 447 b 76 378 72 415 76 394 b 0 293 76 338 57 329 b -10 369 -6 328 -10 351 b 68 447 -10 407 8 417 z m 19 -17 b 4 57 10 17 4 39 b 78 146 4 96 28 111 b 96 67 90 108 96 85 b 19 -17 96 31 72 19 z m 754 -382 b 758 -419 757 -401 757 -410 b 832 -497 767 -474 789 -497 b 863 -494 842 -497 851 -497 b 1001 -319 950 -478 1001 -411 b 1000 -296 1001 -312 1001 -304 b 972 68 989 -175 972 -54 b 975 147 972 94 974 121 b 978 243 976 179 978 211 b 886 335 978 308 953 333 b 763 332 844 335 804 333 b 521 263 678 326 596 304 b 469 185 488 244 469 215 b 483 139 469 169 474 154 b 571 86 503 108 531 88 l 582 86 b 658 99 608 86 633 93 b 694 103 674 101 686 103 b 722 57 718 103 722 92 l 722 43 b 718 -58 722 10 718 -25 l 718 -89 b 640 -260 718 -157 688 -212 b 583 -289 621 -279 601 -289 b 525 -242 561 -289 540 -272 b 513 -204 518 -229 515 -217 b 454 139 486 -92 465 24 b 442 465 444 247 442 357 b 446 796 442 590 444 693 b 524 1075 447 894 476 988 b 551 1097 532 1090 540 1097 b 572 1092 558 1097 564 1094 b 676 963 632 1068 667 1026 b 679 935 678 954 678 944 b 735 883 686 901 701 886 b 803 882 757 882 781 882 b 847 903 821 883 835 890 b 918 1061 893 949 918 1004 b 864 1203 918 1110 900 1158 b 606 1333 799 1285 711 1328 b 478 1338 564 1335 521 1338 b 393 1333 450 1338 421 1336 b 44 1092 235 1315 104 1251 b -40 699 -4 965 -32 833 b -43 604 -42 667 -43 636 b -42 503 -43 571 -42 536 b -43 424 -42 483 -43 465 b -44 318 -44 389 -44 353 b 60 -328 -44 99 -17 -118 b 103 -419 72 -360 86 -390 b 192 -490 122 -457 151 -479 b 424 -522 267 -511 344 -522 l 447 -522 b 604 -486 503 -519 554 -504 b 754 -382 660 -464 704 -426 z "},"H":{"ha":1061,"x_min":0,"x_max":0,"o":"m 525 197 b 503 164 524 179 511 172 b 483 150 497 157 493 150 l 481 150 b 475 186 478 167 475 178 b 492 200 475 197 479 200 b 525 197 500 200 510 199 z m 779 401 b 783 374 782 389 783 381 b 725 347 783 358 771 356 b 747 375 733 358 740 368 b 779 401 756 385 763 394 z m 722 1182 b 721 1200 721 1189 721 1194 b 782 1278 721 1246 750 1261 b 783 1267 783 1274 783 1269 b 722 1182 783 1226 744 1215 z m 426 -431 b 322 -479 397 -471 363 -479 l 313 -479 b 390 -426 331 -442 356 -426 b 426 -431 401 -426 414 -428 z m 838 -318 b 860 -406 851 -379 860 -394 b 847 -436 860 -415 854 -426 b 819 -449 839 -446 829 -449 l 813 -449 b 789 -400 797 -447 789 -442 b 794 -383 789 -396 790 -390 b 838 -318 807 -362 822 -342 z m 114 -381 b 143 -422 122 -397 143 -407 b 142 -429 143 -424 143 -426 b 99 -481 133 -449 115 -465 b 81 -487 93 -485 88 -487 b 58 -478 72 -487 64 -483 b 54 -468 56 -475 54 -471 b 61 -447 54 -461 58 -454 b 114 -381 74 -424 89 -403 z m 669 204 b 578 142 644 168 618 142 b 550 146 569 142 560 143 b 624 208 574 193 588 208 b 669 204 636 208 650 207 z m 153 -485 b 240 -425 174 -436 206 -425 b 289 -429 256 -425 272 -426 b 193 -486 267 -478 233 -486 b 153 -485 181 -486 167 -486 z m 776 635 b 781 604 779 624 781 614 b 714 506 781 558 746 535 b 706 544 708 521 706 533 b 776 635 706 586 740 608 z m 721 914 b 717 953 718 928 717 942 b 781 1044 717 996 735 1026 b 793 994 789 1022 793 1007 b 721 914 793 968 774 951 z m 788 222 b 792 197 790 213 792 204 b 740 115 792 161 758 142 b 693 160 721 128 725 160 l 688 160 b 781 222 715 199 739 222 z m 35 -247 b 28 -210 31 -233 28 -221 b 96 -103 28 -162 60 -133 b 110 -161 101 -129 110 -146 b 35 -247 110 -183 93 -203 z m 714 631 b 708 679 711 650 708 667 b 782 756 708 718 726 731 b 786 726 785 744 786 735 b 714 631 786 682 751 657 z m 718 768 b 714 804 715 781 714 793 b 783 907 714 851 739 883 b 792 850 789 882 792 865 b 718 768 792 817 774 803 z m 825 -182 b 838 -229 833 -199 838 -215 b 782 -335 838 -271 808 -301 b 761 -275 768 -306 761 -289 b 825 -182 761 -251 781 -233 z m 74 836 b 81 792 78 821 81 806 b 19 697 81 751 61 719 b 6 753 10 721 6 738 b 74 836 6 783 26 803 z m 15 544 b 8 600 11 568 8 586 b 74 686 8 642 28 657 b 79 644 78 671 79 657 b 15 544 79 603 58 569 z m 786 1186 b 793 1138 790 1167 793 1150 b 726 1061 793 1100 772 1088 b 719 1107 722 1081 719 1094 b 786 1186 719 1139 738 1154 z m 797 118 b 808 68 804 104 808 90 l 808 58 b 744 -47 808 17 772 -11 b 736 3 739 -29 736 -12 b 797 118 738 58 758 90 z m 75 365 b 86 310 82 346 86 328 b 22 213 86 271 65 239 b 18 265 21 231 18 249 b 75 365 18 306 29 340 z m 14 1149 b 97 1282 14 1240 35 1265 b 99 1264 99 1275 99 1269 b 14 1140 99 1208 54 1181 z m 85 208 b 92 160 89 192 92 175 b 29 56 92 117 72 82 b 19 108 24 75 19 93 b 85 208 19 143 39 171 z m 83 1144 b 88 1115 86 1133 88 1124 b 8 994 88 1061 44 1031 b 0 1039 3 1010 0 1025 b 83 1144 0 1081 26 1115 z m 40 -406 b 29 -351 33 -386 29 -368 b 103 -246 29 -306 58 -272 b 113 -287 110 -261 113 -275 b 40 -406 113 -336 72 -367 z m 35 -101 b 22 -49 26 -82 22 -65 b 88 53 22 -7 50 25 b 101 -12 96 24 101 4 b 35 -101 101 -44 83 -62 z m 10 840 b 0 888 3 857 0 874 b 71 1000 0 935 33 968 b 83 938 79 974 83 954 b 10 840 83 903 64 882 z m 806 -37 b 821 -93 817 -58 821 -76 b 757 -204 821 -136 789 -169 b 742 -149 746 -183 742 -165 b 806 -37 742 -106 774 -72 z m 14 368 b 4 425 7 389 4 408 b 67 532 4 469 24 504 b 81 471 75 508 81 488 b 14 368 81 435 61 408 z m 922 1249 b 921 1276 922 1258 922 1267 b 851 1338 914 1317 889 1338 l 842 1338 b 753 1306 810 1333 781 1322 b 682 1194 708 1281 685 1247 l 682 1168 b 685 1057 682 1131 685 1094 l 685 1043 b 674 672 679 919 676 796 b 667 376 671 560 675 447 l 667 361 b 650 342 667 351 665 343 b 524 333 607 339 565 333 b 493 335 514 333 503 333 b 465 363 474 336 465 344 b 464 401 465 376 464 389 b 456 583 457 435 456 508 b 463 1108 456 758 461 933 b 476 1236 463 1150 465 1194 b 482 1272 481 1249 482 1261 b 403 1335 482 1311 456 1333 b 219 1336 342 1336 281 1336 l 144 1336 b -22 1186 54 1333 -11 1274 b -37 982 -32 1118 -37 1050 b -36 940 -37 968 -36 954 b -29 688 -32 856 -35 771 b -28 629 -28 668 -28 649 b -32 453 -28 571 -32 513 b -24 333 -32 413 -29 374 b -18 244 -19 304 -18 274 b -7 -335 -14 51 -11 -142 b 8 -457 -6 -375 -6 -417 b 90 -524 25 -510 35 -519 b 154 -526 111 -525 133 -526 b 360 -512 222 -526 292 -518 b 481 -403 422 -507 464 -467 b 492 -324 488 -376 492 -350 b 490 -297 492 -315 490 -306 b 478 58 485 -193 479 -87 l 478 68 b 521 107 478 100 485 107 b 667 119 569 108 618 107 b 675 121 669 119 672 121 b 697 96 688 121 694 111 b 699 68 699 88 699 78 l 699 47 b 740 -392 699 -125 715 -258 b 853 -487 757 -479 764 -487 b 864 -486 856 -487 860 -487 b 951 -428 906 -485 935 -465 b 976 -324 967 -394 976 -361 b 974 -292 976 -312 975 -303 b 919 171 953 -137 938 17 b 926 228 925 190 926 208 b 913 361 926 272 915 317 b 907 501 908 407 907 454 b 922 857 907 607 915 719 z m 776 518 b 781 488 779 507 781 497 b 714 389 781 442 746 418 b 706 428 708 404 706 417 b 776 518 706 469 740 492 z "},"I":{"ha":560,"x_min":0,"x_max":0,"o":"m 31 1179 b 28 1211 29 1192 28 1203 b 86 1267 28 1240 40 1249 b 90 1239 89 1256 90 1247 b 31 1179 90 1218 76 1208 z m 403 -433 b 296 -489 372 -468 343 -489 l 288 -489 b 357 -426 310 -442 326 -426 b 403 -433 369 -426 385 -429 z m 158 -482 b 213 -429 181 -442 188 -429 b 267 -436 225 -429 242 -432 b 211 -490 243 -476 236 -490 b 158 -482 199 -490 183 -487 z m 72 379 b 82 340 79 364 82 351 b 17 238 82 296 43 269 b 4 281 8 253 4 268 b 72 379 4 315 29 344 z m 83 1164 b 92 1122 89 1149 92 1135 b 26 1018 92 1078 58 1049 b 17 1075 21 1042 17 1060 b 83 1164 17 1108 35 1128 z m 21 99 b 11 139 14 114 11 126 b 76 253 11 186 54 214 b 88 206 85 235 88 219 b 21 99 88 161 54 132 z m 4 383 b -1 415 0 394 -1 406 b 65 529 -1 463 36 493 b 79 476 75 510 79 493 b 4 383 79 439 54 408 z m 103 -375 b 114 -381 108 -378 113 -378 b 142 -425 133 -400 142 -412 b 111 -472 142 -439 132 -451 b 86 -485 103 -481 94 -485 b 58 -471 76 -485 68 -479 b 46 -449 49 -464 46 -457 b 58 -424 46 -440 50 -432 b 103 -375 74 -408 89 -392 z m 4 519 b -4 565 -1 536 -4 551 b 72 683 -4 617 29 651 b 81 640 78 668 81 654 b 4 519 81 590 42 556 z m 85 108 b 88 46 86 86 88 65 b 25 -58 88 1 78 -36 b 18 3 21 -32 18 -12 b 85 108 18 40 33 57 z m 86 -69 b 99 -122 93 -92 99 -107 b 18 -222 99 -150 79 -172 b 8 -167 13 -200 8 -183 b 86 -69 8 -133 26 -108 z m 82 853 b 88 808 86 836 88 822 b 3 678 88 750 53 711 b -4 722 -1 693 -4 708 b 82 853 -4 778 32 817 z m 11 846 b 6 885 8 860 6 872 b 86 1025 6 943 46 983 b 100 965 94 1001 100 982 b 11 846 100 926 75 897 z m 97 -206 b 110 -279 106 -237 110 -260 b 33 -387 110 -319 89 -340 b 17 -318 24 -358 17 -336 b 97 -206 17 -282 39 -256 z m 458 1244 b 381 1326 458 1301 436 1322 b 235 1335 332 1329 283 1329 b 211 1336 226 1336 219 1336 b 61 1300 160 1336 111 1321 b -12 1186 10 1278 -11 1240 b -26 922 -15 1099 -19 1010 b -39 567 -35 804 -39 686 b -18 64 -39 400 -31 232 b -14 -15 -15 38 -14 11 b -18 -76 -14 -36 -15 -56 b -26 -190 -24 -114 -26 -153 b -3 -424 -26 -268 -15 -346 b 122 -526 10 -496 50 -526 b 279 -528 175 -528 228 -528 b 474 -356 383 -528 461 -460 b 476 -297 476 -336 476 -317 b 475 -249 476 -281 476 -265 b 457 -25 468 -175 461 -100 b 456 35 457 -6 456 15 b 457 142 456 71 457 106 b 454 239 457 174 456 207 b 446 503 447 326 446 415 b 447 700 446 568 447 633 b 461 985 449 792 461 882 b 458 1064 461 1011 460 1038 z "},"J":{"ha":972,"x_min":0,"x_max":0,"o":"m -6 169 b -7 183 -7 175 -7 179 b 26 251 -7 213 7 233 b 50 268 32 258 40 268 b 64 261 54 268 60 265 b 68 250 67 258 68 254 b 56 226 68 242 63 233 b -6 169 38 207 21 185 z m 719 -421 b 576 -483 671 -460 628 -476 b 719 -421 607 -433 611 -432 z m 504 1264 b 508 1239 507 1254 508 1247 b 439 1149 508 1196 465 1178 b 435 1179 436 1160 435 1171 b 504 1264 435 1213 454 1233 z m 494 -156 b 424 -276 492 -217 483 -264 b 419 -250 421 -267 419 -257 b 494 -156 419 -207 458 -186 z m 413 -482 b 507 -426 439 -449 469 -426 b 547 -433 519 -426 533 -428 b 464 -496 528 -475 499 -496 b 413 -482 447 -496 431 -492 z m 501 1149 b 508 1113 506 1135 508 1122 b 435 1014 508 1065 469 1040 b 425 1056 429 1029 425 1042 b 501 1149 425 1083 444 1110 z m 269 -481 b 343 -415 299 -432 310 -415 b 411 -425 360 -415 381 -419 b 308 -487 381 -460 350 -487 b 269 -481 296 -487 283 -486 z m 432 -8 b 431 31 432 7 431 19 b 504 121 431 88 443 97 b 510 88 508 108 510 99 b 432 -8 510 44 476 18 z m -26 15 b -31 49 -29 26 -31 38 b 54 165 -31 101 10 132 b 56 139 56 156 56 147 b -26 15 56 81 24 44 z m 514 882 b 521 849 518 869 521 858 b 446 747 521 800 476 776 b 432 790 438 764 432 778 b 514 882 432 819 456 842 z m 496 -18 b 503 -69 500 -40 503 -56 b 435 -153 503 -101 486 -114 b 422 -99 426 -131 422 -114 b 496 -18 422 -62 446 -42 z m 510 751 b 519 693 515 725 519 707 b 447 618 519 661 501 649 b 435 665 439 638 435 651 b 510 751 435 693 454 715 z m 433 871 b 425 914 428 888 425 901 b 499 1017 425 961 458 990 b 513 963 508 993 513 976 b 433 871 513 932 489 914 z m 531 469 b 458 321 526 408 536 346 b 444 375 450 342 444 360 b 531 469 444 410 474 433 z m 519 618 b 526 558 524 592 526 574 b 453 474 526 521 510 507 b 443 531 447 499 443 515 b 519 618 443 563 463 579 z m 435 131 b 507 299 447 199 428 269 b 517 242 514 278 517 258 b 435 131 517 197 492 165 z m 136 -435 b 151 -414 143 -425 146 -418 b 211 -364 188 -379 197 -364 b 279 -394 224 -364 239 -375 b 211 -465 251 -443 236 -465 b 136 -435 193 -465 171 -454 z m 58 -144 b 67 -169 61 -156 65 -162 b 79 -228 74 -196 79 -214 b 10 -299 79 -254 61 -267 b -19 -237 -10 -269 -19 -253 b 17 -181 -19 -222 -8 -207 b 58 -144 28 -168 38 -153 z m -26 -167 b -37 -89 -33 -132 -37 -108 b 38 13 -37 -44 -17 -29 b 49 -47 46 -8 49 -29 b -26 -167 49 -94 24 -133 z m 92 -414 b 75 -404 88 -411 81 -408 b 44 -346 54 -387 44 -367 b 97 -279 44 -318 63 -292 b 106 -276 100 -278 103 -276 b 113 -279 108 -276 111 -278 b 128 -296 118 -285 124 -290 b 167 -337 138 -311 167 -321 b 165 -344 167 -339 167 -342 b 100 -411 151 -371 122 -390 b 92 -414 99 -412 96 -412 z m 892 953 b 882 1157 886 1018 882 1088 b 883 1222 882 1178 882 1200 l 883 1229 b 794 1325 883 1293 861 1319 b 614 1332 735 1331 674 1332 l 604 1332 b 515 1315 574 1332 543 1326 b 396 1179 454 1289 404 1250 b 386 1010 389 1122 386 1067 b 388 867 386 963 388 914 l 388 831 b 406 506 394 722 406 614 l 401 153 b 388 -211 385 32 389 -90 b 367 -279 386 -261 385 -279 b 308 -261 354 -279 336 -272 b 199 -158 258 -242 213 -215 b 174 8 185 -103 174 -47 b 178 65 174 28 175 46 b 196 254 188 128 192 192 l 196 263 b 142 326 196 300 178 319 b 118 329 133 328 126 329 b -18 256 67 329 8 299 b -40 210 -26 242 -36 226 b -72 -78 -57 115 -72 19 b -62 -208 -72 -121 -69 -164 b 44 -421 -50 -292 -10 -362 b 267 -518 101 -482 185 -512 b 465 -529 332 -522 399 -529 b 574 -521 501 -529 538 -526 b 836 -326 699 -501 785 -437 b 879 -96 871 -254 878 -175 b 888 375 883 61 888 218 b 893 761 892 413 893 603 b 892 953 893 842 892 913 z "},"K":{"ha":1019,"x_min":0,"x_max":0,"o":"m 493 24 b 483 39 482 25 485 33 b 489 50 483 44 485 50 l 490 50 b 501 35 497 49 501 42 b 493 24 501 31 496 26 z m 792 -449 b 825 -396 797 -424 813 -410 b 839 -389 829 -392 833 -389 b 854 -397 844 -389 850 -393 b 858 -406 857 -400 858 -403 b 847 -419 858 -411 851 -415 b 792 -449 833 -435 819 -449 z m 686 1188 b 750 1265 700 1219 707 1257 b 686 1188 747 1207 736 1193 z m 481 507 b 476 563 481 525 476 544 b 524 635 476 590 485 617 b 481 507 518 586 501 546 z m 75 1290 b 79 1265 78 1281 79 1274 b 13 1175 79 1224 32 1210 b 3 1215 6 1190 3 1203 b 75 1290 3 1250 28 1274 z m 158 -496 b 235 -436 196 -449 206 -436 b 276 -440 246 -436 258 -437 b 204 -497 261 -487 256 -497 b 158 -496 192 -497 176 -497 z m 701 1133 b 617 1010 685 1051 683 1049 l 617 1014 b 701 1133 617 1076 643 1114 z m 300 -496 b 378 -439 329 -450 336 -439 b 428 -442 390 -439 407 -440 b 351 -500 411 -485 399 -500 b 300 -496 338 -500 321 -499 z m 547 850 b 640 972 561 904 581 954 b 547 850 639 911 615 861 z m 494 -137 b 486 -65 493 -111 486 -87 b 524 -6 486 -42 494 -21 b 563 -65 549 -33 563 -50 b 494 -137 563 -83 542 -101 z m 586 814 b 488 663 579 744 543 697 b 486 685 486 669 486 678 b 586 814 486 738 518 778 z m -4 733 b -12 775 -10 749 -12 763 b 68 879 -12 825 26 853 b 81 824 75 854 81 838 b -4 733 81 792 57 779 z m 0 117 b -6 178 -4 143 -6 163 b 74 269 -6 224 13 238 b 81 233 78 256 81 244 b 0 117 81 183 36 154 z m 742 -318 b 797 -367 758 -332 776 -349 b 760 -421 785 -385 771 -403 b 739 -436 753 -432 746 -436 b 714 -426 731 -436 724 -432 b 679 -393 690 -411 679 -403 b 704 -353 679 -383 688 -372 b 742 -318 714 -340 722 -325 z m -4 590 b -12 632 -10 606 -12 619 b 71 742 -12 683 29 711 b 82 679 78 715 82 694 b -4 590 82 640 57 626 z m 72 1185 b 82 1133 79 1165 82 1149 b -6 1014 82 1079 42 1046 b -14 1058 -11 1031 -14 1044 b 72 1185 -14 1113 29 1147 z m 646 -364 b 599 -301 614 -328 599 -314 b 640 -246 599 -289 614 -276 b 656 -224 649 -237 653 -228 b 693 -249 681 -225 685 -240 b 710 -279 704 -258 710 -269 b 693 -310 710 -289 704 -299 b 646 -364 676 -325 663 -344 z m 74 1022 b 81 964 78 996 81 978 b -8 874 81 929 63 921 b -19 919 -15 890 -19 906 b 74 1022 -19 953 7 981 z m 106 -368 b 153 -436 114 -400 129 -422 b 117 -479 144 -456 128 -465 b 83 -497 107 -493 96 -497 b 57 -492 75 -497 65 -494 b 26 -464 38 -486 26 -476 b 38 -439 26 -457 31 -449 b 106 -368 56 -414 76 -390 z m -4 268 b -8 344 -6 303 -8 326 b 67 421 -8 389 6 386 b 79 365 74 399 79 381 b -4 268 79 329 56 308 z m 75 132 b 89 75 85 111 89 92 b 7 -42 89 25 54 -11 b -4 25 0 -12 -4 8 b 75 132 -4 61 15 85 z m 26 -385 b 21 -285 24 -347 22 -317 b 32 -254 21 -274 22 -262 b 96 -201 53 -236 71 -215 b 108 -262 104 -224 108 -244 b 26 -385 108 -312 79 -351 z m 75 593 b 82 519 79 561 82 538 b -4 431 82 474 64 461 b -10 506 -7 465 -10 489 b 75 593 -10 549 8 547 z m 15 -218 b 4 -137 8 -183 4 -158 b 89 -29 4 -89 26 -69 b 96 -129 92 -64 94 -97 l 96 -133 b 79 -164 96 -146 89 -156 b 15 -218 60 -181 40 -197 z m 574 -260 b 558 -244 564 -258 563 -250 b 524 -176 536 -211 524 -192 b 590 -110 524 -156 544 -142 b 642 -183 622 -153 642 -168 b 574 -260 642 -200 621 -215 z m 474 796 l 474 1239 b 369 1350 474 1324 454 1344 b 343 1351 361 1350 351 1351 b 272 1349 319 1351 294 1349 b 246 1350 263 1349 254 1350 b 213 1351 235 1351 224 1351 b 83 1335 169 1351 126 1344 b -35 1211 10 1319 -24 1286 b -54 949 -47 1125 -54 1038 b -51 847 -54 915 -53 881 b -44 583 -46 760 -44 672 l -44 411 b -35 -107 -44 238 -44 65 b -8 -424 -29 -212 -8 -318 b -10 -461 -8 -436 -10 -449 l -10 -465 b 42 -525 -10 -496 8 -515 b 108 -535 63 -532 85 -535 l 226 -535 b 343 -536 265 -535 304 -535 l 347 -536 b 461 -474 400 -536 435 -514 b 504 -340 486 -432 504 -389 l 504 -331 b 501 -292 504 -318 501 -304 b 514 -242 501 -275 504 -258 b 542 -290 525 -262 533 -276 b 717 -469 588 -362 640 -428 b 783 -489 739 -482 761 -489 b 844 -469 804 -489 825 -483 b 922 -375 879 -447 906 -414 b 932 -335 928 -360 932 -347 b 893 -272 932 -311 919 -292 b 831 -217 871 -256 849 -239 b 549 210 726 -81 640 67 b 535 251 539 225 535 238 b 543 288 535 263 538 275 b 625 508 572 361 601 435 b 874 1196 703 740 783 969 b 900 1267 883 1222 894 1247 b 904 1293 903 1276 904 1285 b 832 1357 904 1332 878 1357 b 689 1278 772 1357 717 1342 b 663 1226 683 1265 672 1246 b 506 849 600 1104 554 975 b 474 796 499 832 497 811 z "},"L":{"ha":1008,"x_min":0,"x_max":0,"o":"m 92 1285 b 94 1263 94 1276 94 1269 b 19 1181 94 1218 50 1206 b 17 1208 18 1190 17 1200 b 92 1285 17 1256 40 1278 z m 928 -422 b 800 -486 900 -482 846 -467 b 876 -418 821 -433 832 -418 b 928 -422 890 -418 907 -419 z m 649 -485 b 717 -429 672 -443 683 -429 b 772 -435 731 -429 749 -431 b 701 -487 760 -479 733 -487 b 649 -485 685 -487 667 -485 z m 454 -443 b 378 -497 438 -490 408 -497 b 329 -496 361 -497 346 -496 l 321 -496 b 389 -437 340 -451 349 -437 b 454 -443 404 -437 426 -439 z m 478 -490 b 572 -432 500 -439 535 -432 b 613 -433 586 -432 599 -433 l 619 -433 b 547 -494 606 -492 603 -494 b 514 -496 536 -494 525 -496 b 478 -490 503 -496 490 -494 z m 300 -443 b 200 -503 267 -486 243 -503 b 146 -497 185 -503 167 -501 b 214 -437 161 -449 168 -442 b 286 -436 239 -436 263 -436 b 300 -443 289 -436 293 -439 z m 88 1176 b 90 1122 89 1151 90 1135 b 10 1031 90 1090 79 1083 b 1 1085 4 1053 1 1069 b 88 1176 1 1121 21 1143 z m 106 -336 b 121 -392 111 -357 111 -379 b 135 -422 131 -403 135 -412 b 110 -467 135 -439 121 -453 b 85 -483 100 -478 93 -483 b 61 -469 78 -483 69 -479 b 42 -424 49 -456 42 -439 b 61 -376 42 -407 49 -390 b 106 -336 74 -362 83 -347 z m 3 869 b -1 919 0 889 -1 904 b 82 1031 -1 974 21 997 b 89 988 88 1015 89 1000 b 3 869 89 936 54 900 z m 72 338 b 82 283 79 318 82 300 b 6 168 82 235 56 197 b -14 247 -6 206 -14 229 b 72 338 -14 275 7 293 z m 79 876 b 85 814 82 851 85 832 b -3 704 85 758 64 739 b -6 763 -4 729 -6 747 b 79 876 -6 808 8 824 z m 104 -185 b 114 -239 110 -204 114 -222 b 33 -344 113 -275 85 -314 b 15 -281 22 -321 15 -300 b 104 -185 17 -257 44 -224 z m -4 519 b -8 574 -7 539 -8 557 b 72 706 -8 631 11 676 b 85 644 81 683 85 664 b -4 519 85 600 58 564 z m 26 -200 b 19 -131 22 -175 19 -153 b 96 4 19 -76 38 -31 b 107 -100 100 -32 103 -65 l 107 -106 b 97 -131 107 -115 104 -124 b 26 -200 75 -151 54 -174 z m 17 -8 b 7 58 10 15 7 38 b 83 181 7 108 29 151 b 101 114 94 154 101 133 b 17 -8 101 75 76 43 z m 79 533 b 82 493 81 515 79 504 b 86 460 85 482 86 469 b -1 331 86 401 51 361 b -14 393 -10 353 -14 374 b 79 533 -14 443 14 485 z m 488 1107 b 493 1253 488 1156 493 1204 b 419 1329 492 1303 468 1328 b 231 1333 357 1332 294 1333 b 106 1331 189 1333 147 1333 b -24 1213 50 1329 -15 1288 b -40 910 -35 1113 -36 1011 b -49 365 -46 729 -40 547 b -43 208 -49 365 -44 258 b -14 -175 -39 81 -14 -47 b -15 -228 -14 -193 -15 -210 b 8 -440 -15 -228 -7 -374 b 83 -522 17 -482 40 -511 b 178 -537 114 -531 146 -537 b 215 -535 190 -537 203 -537 b 279 -531 236 -532 258 -531 l 300 -531 b 383 -532 328 -532 356 -532 b 771 -521 513 -532 642 -524 b 882 -504 810 -521 846 -511 b 960 -444 917 -497 943 -476 b 986 -383 969 -425 979 -404 b 992 -354 990 -374 992 -364 b 939 -292 992 -325 972 -301 b 893 -285 924 -287 908 -285 b 867 -287 885 -285 876 -286 b 558 -303 765 -307 661 -300 b 539 -304 550 -303 544 -304 b 513 -258 514 -304 514 -296 b 493 171 507 -125 500 22 b 482 336 490 225 482 275 l 482 349 b 488 1107 483 483 488 1107 z "},"M":{"ha":1175,"x_min":0,"x_max":0,"o":"m 475 631 l 475 732 b 503 667 493 700 503 682 b 475 631 503 653 493 644 z m 931 744 b 936 685 931 725 936 704 b 899 625 936 663 929 642 b 931 744 899 671 915 707 z m 740 564 b 717 453 738 525 725 489 b 686 506 697 474 686 490 b 740 564 686 526 704 544 z m 179 -483 b 251 -432 200 -451 222 -432 b 283 -439 261 -432 272 -433 b 214 -487 271 -475 247 -487 b 179 -483 204 -487 192 -486 z m 840 1131 b 892 1231 853 1172 853 1211 b 906 1236 896 1233 901 1236 b 913 1235 908 1236 911 1236 b 917 1226 915 1232 917 1229 b 914 1214 917 1222 915 1218 b 840 1131 906 1176 896 1140 z m 4 1179 b 3 1206 3 1189 3 1197 b 82 1275 3 1244 21 1257 l 82 1265 b 4 1179 82 1231 67 1214 z m 313 -479 b 396 -429 332 -439 361 -429 b 429 -432 406 -429 418 -431 b 354 -483 414 -468 393 -483 b 313 -479 342 -483 328 -482 z m 60 -468 b 124 -396 78 -439 100 -419 b 168 -436 139 -410 154 -422 b 108 -487 154 -469 133 -487 b 60 -468 94 -487 78 -482 z m 919 -469 b 992 -393 947 -440 968 -418 b 1063 -428 1014 -406 1028 -428 l 1068 -428 b 975 -474 1039 -465 1008 -474 b 919 -469 958 -474 939 -471 z m 515 601 b 542 526 532 564 542 543 b 482 460 542 504 524 490 b 468 518 472 482 468 501 b 515 601 468 549 483 574 z m 7 1047 b 0 1083 1 1061 0 1072 b 74 1179 0 1126 38 1151 b 85 1128 81 1158 85 1142 b 7 1047 85 1092 60 1076 z m 733 761 b 831 910 750 822 743 893 b 733 761 824 844 807 788 z m 33 -175 b 28 -139 29 -162 28 -150 b 97 -15 28 -87 65 -51 b 114 -75 108 -40 114 -58 b 33 -175 114 -107 92 -131 z m 783 738 b 682 578 776 664 751 608 b 783 738 692 646 703 711 z m 26 -321 b 21 -289 22 -304 21 -303 b 104 -165 21 -232 60 -199 b 113 -201 108 -181 113 -196 l 113 -203 b 83 -261 113 -225 106 -243 b 26 -321 64 -278 49 -299 z m 75 1038 b 82 986 79 1015 82 1000 b -1 897 82 953 64 938 b -6 950 -4 919 -6 936 b 75 1038 -6 988 10 1001 z m 28 -36 b 15 21 19 -14 15 4 b 94 125 15 58 39 85 b 101 86 100 111 101 97 b 28 -36 101 35 60 3 z m 881 1096 b 775 935 863 1029 869 954 b 881 1096 799 997 790 1071 z m -7 740 b -8 778 -8 754 -8 767 b 69 894 -8 836 7 853 b 81 839 76 871 81 853 b -7 740 81 804 58 785 z m 79 278 b 93 224 89 257 93 239 b 15 107 93 174 54 140 b 0 168 6 129 0 150 b 79 278 0 206 24 238 z m -1 263 b -11 314 -8 282 -11 299 b 71 439 -11 368 26 404 b 86 379 81 415 86 396 b -1 263 86 343 61 314 z m 76 590 b 83 549 81 575 83 561 b -10 421 83 489 36 457 b -18 482 -15 446 -18 465 b 76 590 -18 525 6 544 z m 967 -89 b 974 -157 971 -118 974 -140 b 888 -258 974 -203 954 -217 b 881 -200 883 -236 881 -217 b 967 -89 881 -150 904 -125 z m 974 -243 b 985 -301 981 -264 985 -283 b 904 -422 985 -354 954 -392 b 888 -353 893 -393 888 -371 b 974 -243 888 -312 914 -289 z m 76 753 b 82 692 79 728 82 708 b -12 578 82 638 60 618 b -18 618 -17 592 -18 606 b 76 753 -18 676 21 717 z m 510 308 b 482 388 492 343 482 368 b 558 465 482 417 506 436 l 563 461 b 589 379 578 417 589 394 b 510 308 589 357 568 347 z m 649 192 b 711 115 663 156 682 132 b 622 60 689 82 661 60 l 618 60 b 571 83 599 60 583 68 b 564 103 567 90 564 96 b 574 122 564 110 567 115 b 649 192 596 143 619 164 z m 958 65 b 967 -1 961 39 967 15 b 888 -101 967 -32 950 -44 b 871 -44 875 -74 871 -53 b 958 65 871 -7 897 21 z m 933 594 b 946 525 942 568 946 544 b 858 411 946 478 919 447 b 854 456 856 426 854 442 b 933 594 854 515 881 563 z m 604 325 b 608 322 606 324 607 324 b 633 247 624 290 633 267 b 551 160 633 217 608 196 b 542 178 542 163 543 171 b 525 254 533 219 525 240 b 604 325 525 275 543 283 z m 867 219 b 857 326 864 260 861 293 l 857 332 b 872 365 857 346 861 356 b 936 418 893 383 911 406 b 956 342 949 388 956 364 b 867 219 956 300 929 268 z m 960 239 b 963 165 960 219 963 172 b 874 47 963 108 918 81 b 865 118 868 72 865 96 b 960 239 865 153 888 203 z m 656 638 l 647 638 b 633 683 642 653 638 668 b 496 1263 582 875 524 1065 b 418 1333 489 1311 467 1331 b 344 1335 393 1335 368 1335 b 99 1317 261 1335 179 1328 b -42 1167 -4 1301 -42 1261 b -40 1140 -42 1158 -40 1150 b -33 1054 -39 1111 -33 1083 b -35 1033 -33 1047 -33 1040 b -47 708 -46 925 -39 817 b -54 526 -51 647 -54 588 b -40 238 -54 431 -49 333 b -17 -126 -29 117 -18 -4 b -14 -182 -15 -144 -14 -162 b -11 -321 -12 -231 -11 -274 b -14 -406 -11 -362 -14 -400 b 114 -522 -14 -483 31 -519 b 208 -524 146 -522 178 -524 b 343 -521 254 -524 299 -522 b 442 -486 379 -519 415 -517 b 510 -346 479 -444 510 -401 b 504 -219 510 -335 504 -239 b 486 176 504 -111 490 32 l 486 217 b 526 94 504 175 513 135 b 619 22 542 47 575 22 b 650 26 629 22 639 24 b 714 61 675 32 694 44 b 799 215 760 103 788 154 b 822 296 803 239 807 263 b 835 54 832 193 831 104 b 857 -406 840 -99 840 -253 b 950 -512 867 -485 888 -512 b 993 -510 963 -512 976 -512 b 1004 -507 997 -510 1001 -508 b 1128 -361 1071 -496 1128 -428 b 1125 -339 1128 -354 1126 -346 b 1104 -137 1110 -272 1108 -206 b 1088 219 1096 -46 1094 88 b 1068 785 1078 408 1068 596 b 1069 882 1068 817 1069 850 l 1069 986 b 1068 1236 1069 1069 1069 1153 b 997 1331 1068 1288 1044 1322 b 956 1335 982 1333 968 1335 b 851 1268 907 1335 875 1315 b 831 1221 843 1253 838 1236 b 710 824 781 1092 744 958 b 656 638 694 761 674 700 z m 40 -432 b 31 -399 32 -410 31 -404 b 110 -294 31 -361 54 -335 b 114 -310 114 -307 114 -307 b 40 -432 114 -361 72 -393 z "},"N":{"ha":1039,"x_min":0,"x_max":0,"o":"m 815 88 b 828 38 825 68 828 53 b 826 10 828 28 826 19 b 808 58 817 28 808 42 b 815 88 808 68 810 76 z m 722 1211 b 785 1274 732 1264 732 1264 b 722 1211 767 1250 747 1229 z m 483 569 b 481 624 481 588 481 606 b 482 690 481 644 481 667 b 511 614 501 654 511 631 b 483 569 511 596 501 583 z m 272 -475 b 335 -426 297 -439 307 -426 b 392 -433 347 -426 365 -429 b 338 -485 372 -471 364 -485 b 272 -475 322 -485 303 -481 z m 104 -476 b 179 -424 125 -433 151 -424 b 247 -431 201 -424 225 -431 b 178 -476 229 -469 206 -476 b 131 -474 163 -476 147 -474 b 104 -476 122 -474 113 -475 z m 810 276 l 810 264 b 818 178 810 233 818 204 b 797 119 818 157 814 139 b 764 204 775 154 764 181 b 810 276 764 229 779 251 z m 883 -435 b 796 -490 860 -468 833 -490 b 781 -489 792 -490 786 -490 b 760 -475 767 -486 760 -482 b 767 -460 760 -471 763 -465 b 785 -439 771 -453 779 -446 b 831 -403 807 -415 818 -403 b 883 -435 843 -403 857 -414 z m 714 1069 b 710 1101 711 1081 710 1092 b 781 1208 710 1149 743 1178 b 789 1157 786 1186 789 1169 b 714 1069 789 1121 769 1106 z m 794 417 b 804 365 801 399 804 381 b 750 281 804 329 786 301 b 724 346 733 311 724 331 b 794 417 724 368 744 383 z m 78 1267 l 78 1258 b -17 1118 78 1189 17 1169 l -17 1133 b 78 1267 -17 1213 4 1239 z m 778 1065 b 785 1001 782 1038 785 1018 b 714 922 785 961 768 950 b 708 960 710 936 708 949 b 778 1065 708 1004 733 1036 z m 743 -199 b 767 -260 758 -228 767 -246 b 700 -340 767 -282 747 -299 b 676 -281 686 -311 676 -294 b 743 -199 676 -261 693 -242 z m 661 -217 b 640 -137 649 -179 640 -156 b 696 -68 640 -112 657 -99 b 724 -139 714 -101 724 -122 b 661 -217 724 -164 706 -182 z m 713 407 b 704 454 707 424 704 440 b 782 560 704 503 733 535 b 796 496 792 531 796 511 b 713 407 796 463 772 450 z m 76 250 l 76 226 b 81 189 76 213 76 200 b 85 161 83 179 85 169 b 15 69 85 118 54 93 b 6 157 10 108 6 136 b 76 250 6 201 24 215 z m 783 914 b 789 863 788 896 789 879 b 717 747 789 813 769 772 b 704 815 708 775 704 797 b 783 914 704 857 726 882 z m 525 544 b 535 525 531 535 533 531 b 554 451 546 490 554 468 b 486 369 554 424 535 408 b 474 438 478 394 474 417 b 525 544 474 481 490 515 z m 72 1158 b 79 1110 76 1140 79 1125 b -7 979 79 1050 44 1011 b -19 1031 -15 999 -19 1015 b 72 1158 -19 1085 29 1118 z m 611 239 b 640 161 629 200 640 179 b 581 82 640 138 622 121 b 544 160 558 121 544 142 b 611 239 544 182 565 200 z m 783 -315 b 810 -351 786 -318 808 -344 b 771 -401 810 -365 799 -369 b 733 -433 760 -412 751 -428 b 728 -435 732 -435 729 -435 b 713 -406 718 -435 713 -418 b 783 -315 713 -379 735 -358 z m 624 -76 b 607 -25 617 -56 611 -40 b 596 28 600 -1 596 15 b 653 92 596 51 611 61 b 686 -4 675 40 686 14 b 624 -76 686 -29 665 -39 z m 10 258 b -4 333 0 290 -4 314 b 67 431 -4 372 15 394 b 81 360 76 403 81 379 b 10 258 81 315 58 286 z m 788 747 l 788 633 b 768 601 788 618 779 610 b 715 558 751 588 735 574 b 707 636 710 590 707 615 b 788 747 707 685 726 708 z m 568 389 b 599 300 588 340 599 317 b 533 221 599 276 578 265 b 494 297 508 254 494 276 b 568 389 494 324 517 347 z m 72 993 b 81 929 78 971 81 949 b -3 813 81 878 58 836 b -15 872 -11 836 -15 856 b 72 993 -15 914 10 944 z m 106 -307 b 115 -386 113 -351 115 -386 b 60 -453 115 -401 74 -451 b 49 -451 56 -453 51 -453 b 18 -411 35 -439 22 -433 b 17 -404 18 -408 17 -407 b 28 -379 17 -394 22 -386 b 106 -307 50 -357 74 -336 z m -12 619 b -11 660 -12 635 -11 647 b -12 676 -11 665 -11 671 b -15 703 -14 686 -15 694 b 71 815 -15 758 22 789 b 83 735 79 782 83 756 b -12 619 83 686 58 661 z m 1 432 b -8 481 -8 450 -4 465 b -14 518 -11 494 -14 506 b 69 625 -14 568 18 603 b 82 551 78 596 82 572 b 1 432 82 504 58 472 z m 8 -142 l 8 -75 b 10 -15 8 -54 8 -35 b 88 76 13 29 51 44 b 96 -53 90 26 93 -12 b 79 -86 96 -67 90 -78 b 8 -142 57 -103 36 -119 z m 94 -128 b 99 -162 96 -144 97 -153 b 100 -215 100 -183 100 -201 b 14 -335 100 -272 86 -282 b -6 -251 1 -303 -6 -275 b 94 -128 -6 -201 25 -167 z m 489 208 b 572 -37 519 118 549 42 b 661 -362 604 -144 631 -254 b 713 -485 675 -415 692 -458 b 749 -519 722 -499 732 -512 b 796 -528 761 -525 778 -528 b 936 -476 846 -528 908 -507 b 985 -343 972 -437 985 -392 b 983 -319 985 -335 983 -328 b 963 -68 981 -258 972 -164 b 951 150 954 4 960 78 b 924 554 936 285 926 419 b 915 958 919 689 915 824 b 919 1160 915 1025 917 1093 b 921 1232 921 1185 921 1208 l 921 1261 b 856 1333 919 1304 897 1326 b 824 1336 844 1335 833 1336 b 681 1200 743 1336 689 1285 b 678 1165 679 1189 679 1176 b 674 944 674 1092 674 1018 l 674 682 b 672 567 672 644 672 606 b 654 582 658 568 656 575 b 579 871 632 679 600 774 b 496 1265 551 1003 507 1131 b 433 1325 493 1303 469 1322 b 253 1336 372 1331 313 1336 b 86 1319 196 1336 140 1332 b -51 1181 15 1304 -36 1258 b -58 1107 -57 1156 -58 1132 b -56 1057 -58 1090 -57 1074 b -47 858 -49 992 -47 925 l -47 585 b -28 13 -42 394 -28 203 b -35 -201 -28 -58 -31 -131 b -36 -246 -35 -215 -36 -231 b -35 -292 -36 -261 -35 -276 b -11 -453 -31 -346 -28 -400 b 76 -504 0 -487 50 -501 b 304 -519 151 -511 228 -519 b 357 -518 322 -519 339 -519 b 513 -372 438 -514 513 -442 b 511 -357 513 -367 513 -362 b 503 -212 507 -332 508 -272 b 482 186 490 -81 496 53 b 489 208 482 189 483 193 z "},"O":{"ha":1014,"x_min":0,"x_max":0,"o":"m 214 1236 b 117 1136 182 1175 182 1175 b 214 1236 139 1189 179 1231 z m 678 -201 b 597 -286 668 -243 656 -285 b 678 -201 600 -233 639 -217 z m 629 1186 b 556 1124 603 1164 579 1143 b 544 1118 553 1121 549 1118 b 536 1122 542 1118 539 1119 b 532 1131 533 1125 532 1128 l 532 1132 b 575 1196 539 1158 556 1179 b 593 1203 581 1200 588 1203 b 629 1186 604 1203 617 1196 z m 722 -60 l 722 -68 b 642 -169 722 -125 685 -149 l 642 -149 b 722 -60 642 -96 654 -86 z m 667 -37 b 749 90 676 82 668 60 b 753 51 751 75 753 63 b 667 -37 753 7 732 -10 z m 28 943 l 28 951 b 149 1108 28 1032 86 1068 b 96 993 144 1058 138 1018 b 28 943 72 978 56 954 z m 771 736 b 790 671 783 707 790 688 b 721 596 790 642 769 625 b 703 664 710 625 703 647 b 771 736 703 694 724 711 z m 481 -499 b 601 -419 508 -440 551 -419 b 638 -422 614 -419 625 -421 b 531 -503 628 -474 599 -503 b 481 -499 515 -503 499 -501 z m 749 889 b 768 810 761 850 768 826 b 704 740 768 783 750 771 b 676 815 686 775 676 797 b 749 889 676 842 700 856 z m 782 256 b 692 113 775 140 775 140 b 688 160 689 132 688 147 b 782 256 688 213 710 229 z m 792 592 b 799 556 799 579 799 568 l 799 544 b 800 513 799 532 800 522 b 725 436 800 467 789 463 b 718 501 721 464 718 485 b 792 592 718 544 736 561 z m 669 1160 b 696 1096 683 1126 696 1110 b 617 1022 696 1078 676 1063 b 608 1028 614 1025 610 1026 b 583 1086 592 1057 583 1072 b 629 1138 583 1101 597 1113 b 669 1160 640 1146 651 1157 z m 318 -499 b 413 -424 349 -451 361 -424 b 475 -432 429 -424 449 -426 b 388 -511 439 -492 422 -511 b 318 -499 371 -511 349 -506 z m 153 -425 b 113 -351 129 -386 113 -368 b 181 -272 113 -333 132 -315 l 186 -272 b 217 -340 206 -304 217 -324 b 153 -425 217 -361 197 -381 z m 322 -422 b 293 -465 317 -442 303 -451 b 246 -494 276 -485 263 -494 b 201 -476 233 -494 218 -489 b 186 -456 192 -471 186 -464 b 193 -440 186 -451 189 -446 b 236 -390 207 -424 222 -407 b 254 -379 242 -383 247 -379 b 269 -385 258 -379 264 -381 b 322 -422 286 -399 304 -411 z m 793 421 b 797 364 796 397 797 378 b 711 268 797 311 779 299 b 703 325 706 290 703 308 b 793 421 703 371 728 394 z m 93 -299 b 58 -222 71 -262 58 -240 b 142 -133 58 -196 83 -176 b 167 -211 156 -174 167 -194 b 93 -299 167 -233 147 -250 z m 707 1038 b 735 954 724 1011 726 982 b 736 946 736 951 736 949 b 725 924 736 938 732 931 b 669 875 706 907 686 890 b 650 903 651 881 653 893 b 633 968 640 933 633 953 b 707 1038 633 994 653 1006 z m -10 571 b -12 643 -11 601 -12 625 b 79 753 -12 699 1 707 b 85 696 83 731 85 713 b -10 571 85 643 61 615 z m 115 951 b 97 833 108 907 103 869 b 76 801 94 819 86 810 b 8 751 54 786 32 769 b 4 801 6 769 4 786 b 115 951 4 868 36 910 z m 76 582 l 76 531 b -14 392 74 442 72 439 b -25 457 -21 417 -25 438 b 76 582 -25 504 3 536 z m 107 26 b 131 -71 121 -31 131 -56 b 56 -156 131 -94 111 -101 b 46 -161 53 -158 49 -160 b 13 -83 24 -132 13 -107 b 107 26 13 -46 43 -12 z m -14 192 b -19 254 -18 214 -19 235 b -18 321 -19 276 -18 299 b -1 347 -18 332 -10 340 b 63 393 19 364 38 382 b 81 314 74 363 81 336 b -14 192 81 267 53 235 z m 1 -8 b -11 111 -3 39 -7 75 b -12 119 -11 114 -12 117 b 4 151 -12 132 -7 143 b 75 211 26 169 49 189 b 96 88 94 168 90 126 l 96 86 b 86 68 96 81 92 74 b 1 -8 61 44 35 21 z m 511 1088 b 581 997 554 1067 568 1032 b 681 478 643 826 681 656 b 669 308 681 422 678 365 b 617 -82 651 178 642 47 b 564 -256 606 -140 589 -197 b 521 -181 535 -233 528 -206 b 426 410 465 14 426 208 b 428 468 426 429 426 449 b 483 993 436 644 439 821 b 501 1064 489 1017 494 1040 b 511 1088 503 1071 507 1076 z m -57 374 l -57 347 b -46 86 -57 271 -51 178 b 111 -431 -33 -97 22 -269 b 272 -536 146 -494 200 -528 b 415 -543 319 -542 367 -543 b 514 -542 447 -543 481 -543 b 760 -369 635 -537 714 -479 b 929 463 874 -104 922 176 l 929 504 b 804 1183 929 738 876 964 b 604 1332 771 1282 694 1317 b 579 1333 596 1333 588 1333 l 553 1333 b 446 1336 518 1335 482 1335 b 413 1338 435 1336 424 1338 b 106 1194 290 1338 185 1300 b -10 960 51 1124 4 1049 b -58 436 -36 790 -58 624 b -57 374 -58 415 -57 394 z "},"P":{"ha":972,"x_min":0,"x_max":0,"o":"m 518 1185 b 471 1146 504 1169 494 1153 b 467 1172 468 1154 467 1164 b 475 1192 467 1179 468 1186 b 493 1197 481 1196 486 1197 b 518 1185 501 1197 511 1193 z m 490 156 b 489 185 489 168 489 178 b 518 213 489 207 494 213 b 544 211 525 213 533 211 b 490 156 536 185 513 178 z m 10 1185 b 71 1271 10 1228 22 1260 b 72 1257 72 1265 72 1261 b 10 1185 72 1217 32 1207 z m 568 169 b 708 256 607 213 653 242 b 568 169 683 203 640 176 z m 240 -478 b 325 -424 260 -433 290 -424 b 371 -426 340 -424 356 -425 b 276 -479 349 -472 315 -479 b 240 -478 265 -479 253 -478 z m 213 -433 b 153 -476 192 -464 176 -476 b 92 -462 138 -476 118 -471 b 143 -417 113 -431 122 -417 b 213 -433 158 -417 178 -424 z m -1 1047 b -4 1072 -3 1056 -4 1065 b 64 1175 -4 1119 29 1147 b 74 1129 71 1157 74 1142 b -1 1047 74 1101 54 1082 z m 32 -193 b 25 -146 28 -176 25 -161 b 86 -56 25 -108 42 -76 b 97 -118 93 -83 97 -103 b 32 -193 97 -150 81 -167 z m 82 99 b 94 36 90 71 94 51 b 36 -40 94 7 78 -8 b 21 21 26 -15 21 4 b 82 99 21 51 40 72 z m 10 764 b 4 801 6 778 4 790 b 74 906 4 849 35 878 b 83 851 79 882 83 865 b 10 764 83 818 63 806 z m 82 260 b 88 208 85 242 88 225 b 29 117 88 169 74 138 b 15 178 21 143 15 161 b 82 260 15 208 33 228 z m 681 671 b 668 739 674 708 668 724 b 740 821 668 761 683 779 b 754 751 749 796 753 778 b 681 671 754 715 728 704 z m 86 -193 b 99 -222 94 -208 99 -217 l 99 -225 b 26 -331 99 -271 58 -297 b 18 -300 21 -325 18 -312 b 25 -257 18 -282 22 -274 b 86 -193 29 -225 64 -217 z m 7 903 b -4 961 0 928 -4 947 b 68 1043 -4 994 15 1011 b 78 988 74 1018 78 1001 b 7 903 78 960 61 946 z m 11 432 b 3 489 7 454 3 474 b 81 590 3 525 19 553 b 88 540 85 572 88 556 b 11 432 88 494 67 458 z m 101 -303 b 106 -329 106 -315 106 -325 l 106 -333 b 108 -369 106 -346 106 -358 l 108 -371 b 50 -437 108 -387 65 -435 l 47 -437 b 36 -432 43 -437 39 -435 b 24 -400 26 -422 24 -404 b 33 -375 25 -390 28 -382 b 101 -303 53 -353 74 -332 z m 721 967 b 738 899 732 938 738 917 b 667 817 738 868 718 850 b 644 892 654 854 644 875 b 721 967 644 914 664 926 z m 14 263 b 6 336 8 296 6 318 b 78 426 6 375 22 392 b 86 358 83 397 86 376 b 14 263 86 319 68 301 z m 78 767 b 88 706 83 744 88 725 b 10 592 88 657 65 618 b 1 644 4 610 1 628 b 78 767 1 693 26 733 z m 644 1124 b 615 1100 632 1114 622 1108 b 557 1061 586 1074 571 1061 b 496 1100 542 1061 526 1074 b 522 1135 496 1118 511 1125 b 576 1171 547 1158 561 1171 b 644 1124 593 1171 610 1156 z m 629 947 b 622 956 626 951 624 953 b 594 1022 604 985 594 1006 b 654 1086 594 1046 613 1063 b 668 1092 660 1089 664 1092 b 675 1090 671 1092 672 1092 b 699 1026 689 1083 699 1053 b 690 996 699 1014 696 1001 b 629 947 671 979 654 960 z m 475 1061 b 599 913 543 1031 576 975 b 640 682 636 811 640 682 b 589 392 640 583 619 486 b 524 340 578 358 553 340 b 493 346 514 340 503 342 b 479 368 483 350 479 357 l 479 594 b 475 950 479 713 479 831 z m -10 -132 l -10 -179 b -14 -310 -10 -212 -14 -275 l -14 -321 b -10 -389 -14 -343 -12 -367 b 83 -503 -10 -451 25 -490 b 228 -518 132 -512 181 -518 b 368 -504 275 -518 322 -512 b 503 -346 438 -490 503 -410 l 503 -342 b 492 -146 500 -276 494 -211 b 488 83 492 -143 490 -81 l 488 89 b 518 119 488 108 494 119 b 551 124 529 119 540 122 b 754 242 636 133 704 172 b 861 474 804 313 840 390 b 888 726 882 558 888 539 b 874 890 888 764 879 861 b 826 1075 864 936 850 1007 b 526 1322 775 1219 672 1304 b 325 1333 460 1329 392 1333 b 83 1315 244 1333 164 1328 b -29 1201 17 1304 -17 1269 b -42 1053 -37 1153 -42 1103 b -40 994 -42 1033 -42 1014 b -32 726 -35 904 -32 817 b -33 624 -32 692 -32 658 b -35 557 -33 601 -35 579 b -10 -132 -35 332 -11 107 z m 629 344 b 749 517 642 467 696 483 b 629 344 722 418 693 368 z m 751 665 b 757 633 756 656 757 647 b 756 606 757 625 757 617 b 667 508 756 561 701 533 b 678 581 674 549 675 567 b 751 665 683 614 700 633 z "},"Q":{"ha":1013,"x_min":0,"x_max":0,"o":"m 210 1235 b 133 1144 186 1174 186 1174 b 210 1235 151 1188 179 1213 z m 768 -514 b 821 -454 782 -486 801 -469 b 831 -450 824 -451 826 -450 b 846 -458 836 -450 842 -454 b 850 -467 849 -461 850 -464 b 839 -479 850 -472 843 -476 b 768 -514 821 -496 801 -514 z m 725 -493 b 713 -486 722 -492 717 -489 b 707 -475 708 -482 707 -479 b 711 -465 707 -472 708 -468 b 754 -408 725 -446 739 -426 b 764 -403 757 -404 761 -403 b 774 -407 768 -403 771 -404 b 786 -424 779 -412 785 -418 l 786 -425 b 725 -493 786 -436 738 -492 z m 635 1182 b 571 1128 610 1161 590 1144 b 558 1122 567 1124 563 1122 b 546 1126 554 1122 550 1124 b 540 1139 542 1131 540 1135 b 543 1150 540 1142 542 1146 b 592 1193 556 1179 569 1193 b 635 1182 604 1193 618 1189 z m 528 263 b 531 232 529 250 531 240 b 453 157 531 200 514 189 b 528 263 456 210 479 243 z m 618 -206 b 642 -240 633 -215 635 -229 b 650 -262 646 -249 650 -256 b 631 -285 650 -271 644 -279 b 607 -290 624 -287 615 -290 b 567 -267 590 -290 574 -281 b 565 -258 565 -264 565 -261 b 574 -242 565 -253 568 -247 b 618 -206 586 -229 599 -215 z m 761 92 b 703 -22 749 46 764 -7 b 688 38 693 6 688 24 b 761 92 688 64 707 72 z m 503 -92 b 489 -39 494 -68 489 -51 b 550 24 489 -17 506 -4 b 565 -22 560 6 565 -10 b 503 -92 565 -46 549 -64 z m 535 -214 b 517 -153 524 -185 517 -167 b 572 -92 517 -132 532 -121 b 603 -154 590 -121 603 -139 b 535 -214 603 -174 585 -187 z m 775 733 b 792 661 786 700 792 678 b 733 600 792 635 775 622 b 717 665 724 628 717 649 b 775 733 717 693 733 708 z m 750 881 b 772 804 764 843 772 821 b 715 744 772 781 756 768 b 689 818 697 781 689 803 b 750 881 689 843 710 854 z m 476 21 b 460 85 467 50 460 69 b 532 157 460 114 481 128 b 547 97 542 129 547 111 b 476 21 547 71 528 58 z m 735 436 b 731 492 733 456 731 474 b 790 585 731 531 742 565 b 804 514 800 554 804 532 b 735 436 804 476 783 458 z m 147 1099 l 147 1085 b 42 943 147 1011 93 981 l 42 947 b 147 1099 42 1025 85 1065 z m 788 253 b 772 158 782 219 779 189 b 707 117 768 136 763 135 b 701 168 703 136 701 153 b 788 253 701 214 724 232 z m 628 1024 b 596 1090 607 1057 596 1076 b 650 1146 596 1108 613 1119 b 669 1156 656 1150 664 1153 b 697 1092 686 1125 697 1107 b 628 1024 697 1071 676 1056 z m 653 -422 b 531 -503 631 -490 583 -503 b 494 -501 518 -503 507 -503 b 629 -422 518 -431 571 -422 z m 165 -422 b 128 -344 140 -383 128 -362 b 188 -278 128 -324 147 -308 b 222 -349 210 -312 222 -332 b 165 -422 222 -369 204 -386 z m 332 -497 b 435 -425 354 -443 390 -425 b 482 -431 450 -425 465 -426 b 401 -507 453 -489 439 -507 b 332 -497 385 -507 363 -503 z m 793 415 b 800 356 797 390 800 371 b 725 274 800 311 781 296 b 715 331 719 296 715 314 b 793 415 715 374 739 397 z m 328 -431 b 297 -475 322 -449 306 -458 b 268 -493 289 -489 279 -493 b 249 -490 261 -493 256 -492 b 203 -457 218 -482 203 -472 b 224 -417 203 -446 210 -433 b 258 -387 240 -396 247 -387 b 297 -407 267 -387 278 -394 b 325 -425 306 -412 315 -418 b 328 -431 326 -425 326 -428 z m 681 878 b 660 915 663 889 664 904 b 646 972 651 942 646 958 b 711 1032 646 994 663 1004 b 739 947 725 1006 729 976 b 740 940 739 944 740 943 b 728 918 740 932 736 925 b 681 878 713 904 697 892 z m 143 -137 b 169 -215 160 -175 169 -197 b 110 -296 169 -239 151 -256 b 71 -226 85 -267 71 -246 b 143 -137 71 -200 93 -176 z m -3 568 b 79 744 1 644 -12 718 b 90 696 86 728 90 711 b -3 568 90 651 61 613 z m 113 949 l 113 936 b 94 818 113 892 106 854 b 15 753 83 786 47 774 b 14 779 15 761 14 771 b 29 872 14 814 19 846 b 113 949 40 907 78 925 z m -4 393 b -12 449 -10 413 -12 432 b 71 571 -12 503 14 543 b 83 504 79 544 83 524 b -4 393 83 456 57 425 z m 51 -162 b 43 -136 47 -150 44 -143 b 28 -67 33 -106 28 -85 b 108 19 28 -33 50 -15 b 131 -60 121 -6 121 -33 b 133 -76 132 -65 133 -71 b 117 -108 133 -89 128 -100 b 51 -162 96 -125 81 -147 z m 74 388 b 79 271 75 347 76 308 b 64 242 79 258 72 250 b 8 196 46 226 26 211 b -11 274 -4 224 -11 250 b 74 388 -11 322 17 363 z m 83 206 b 100 89 89 163 94 125 l 100 86 b 83 56 100 72 92 64 b 24 3 64 38 44 21 b 0 90 8 38 0 65 b 83 206 0 133 26 165 z m 672 229 b 597 326 658 297 638 326 b 529 308 579 326 557 321 b 447 251 499 294 471 275 b 432 289 433 263 432 276 l 432 300 b 431 415 432 339 431 376 b 496 1036 431 624 443 832 b 497 1042 496 1039 496 1040 b 521 1090 504 1058 500 1086 l 526 1090 b 569 1051 547 1090 558 1067 b 606 968 586 1026 596 997 b 693 553 650 833 688 697 b 694 506 694 538 694 522 b 672 229 694 415 682 325 z m -43 381 b -32 90 -43 293 -39 192 b 124 -426 -19 -93 35 -265 b 268 -531 156 -483 201 -519 b 408 -540 314 -539 361 -540 b 519 -539 444 -540 482 -539 b 635 -515 560 -537 599 -533 b 663 -507 646 -510 654 -507 b 700 -522 675 -507 686 -512 b 772 -553 728 -543 750 -553 b 851 -517 797 -553 822 -540 b 918 -435 879 -494 903 -468 b 929 -394 925 -419 929 -407 b 899 -340 929 -375 919 -358 b 835 -286 878 -322 857 -304 b 817 -256 822 -278 817 -268 b 821 -237 817 -250 818 -244 b 853 -107 833 -194 843 -150 b 932 443 897 74 928 257 l 932 479 b 804 1186 932 722 879 956 b 613 1329 772 1279 699 1311 b 568 1332 597 1332 582 1331 b 433 1335 522 1333 478 1335 l 418 1335 b 217 1289 347 1335 281 1325 b 119 1197 175 1267 149 1232 b 4 964 63 1129 18 1053 b -44 450 -22 797 -44 629 b -43 381 -44 428 -44 404 z "}}}
